<?xml version="1.0" encoding="UTF-8"?>
<svg width="103px" height="329px" viewBox="0 0 103 329" version="1.1" xmlns="http://www.w3.org/2000/svg" xmlns:xlink="http://www.w3.org/1999/xlink">
    <title>CENTER</title>
    <defs>
        <rect id="path-1" x="0" y="0" width="103" height="398"></rect>
    </defs>
    <g id="Page-1" stroke="none" stroke-width="1" fill="none" fill-rule="evenodd" opacity="0.763625372">
        <g id="Low-Res-TV" transform="translate(-356.000000, -199.000000)">
            <g id="CENTER" transform="translate(356.000000, 162.000000)">
                <mask id="mask-2" fill="white">
                    <use xlink:href="#path-1"></use>
                </mask>
                <g id="Mask"></g>
                <path d="M245.376465,135.102226 C245.4421,137.232698 243.899672,139.428722 242.160338,139.592605 C242.029068,139.592605 241.897797,139.592605 241.799344,139.592605 C240.946086,139.592605 240.453822,139.26484 240.092828,138.445428 C240.092828,138.445428 240.092828,138.412651 240.06001,138.412651 C240.06001,138.445428 240.027193,138.478204 240.027193,138.510981 C239.863105,138.773193 239.436476,139.625381 238.68167,139.625381 C237.697142,139.625381 237.139242,138.412651 236.811066,135.429991 C236.712613,134.51225 236.581343,133.889497 236.48289,133.430626 C236.384437,134.446697 235.957808,135.036674 235.006097,135.921639 C233.955933,136.904933 233.890298,137.101592 233.594939,139.133734 C233.135492,142.640818 232.085328,143.722442 229.16456,143.787995 C229.03329,143.787995 228.902019,143.787995 228.803566,143.787995 C227.950308,143.787995 226.998597,143.689665 226.736056,142.968583 C226.440697,142.2475 227.031415,141.493641 228.048761,140.543123 C228.902019,139.756487 229.000472,139.494275 229.000472,138.642087 L229.000472,138.445428 C228.114396,138.871522 227.162685,139.133734 226.473515,139.133734 C226.079704,139.133734 225.784345,139.068181 225.554622,138.871522 C225.095175,138.937075 223.388659,139.985923 222.010319,140.805335 C220.992972,141.428088 219.680267,142.018065 219.08955,142.149171 C219.056733,142.149171 219.056733,142.149171 219.056733,142.149171 C218.761374,142.181947 218.26911,142.280277 217.842481,142.34583 C217.547122,142.378606 217.284581,142.444159 217.054858,142.476936 C216.562593,142.542489 214.724807,143.165242 212.755749,143.951877 C212.19785,144.181313 211.63995,144.410748 211.147686,144.607407 C210.195975,145.000725 209.277081,145.361266 209.145811,145.426819 C209.080176,145.459596 209.01454,145.492372 208.948905,145.492372 C208.916087,145.492372 208.88327,145.492372 208.817635,145.492372 C208.128465,145.492372 207.472112,144.771289 207.242389,144.476301 C206.12659,143.099689 206.159407,141.362535 207.275206,139.854817 C207.898741,139.035405 208.062829,138.117663 207.931559,137.691569 C207.898741,137.560463 207.833106,137.527686 207.833106,137.527686 C207.340842,137.363804 206.979848,137.068816 206.848577,136.675498 C206.618854,136.085521 206.81576,135.331662 207.50493,134.184485 C208.030012,133.365073 208.095647,133.135637 207.898741,130.611848 C207.570565,125.990364 207.669018,120.516691 208.1941,115.2069 L208.1941,115.108571 C208.226917,114.6497 208.358188,113.273088 208.522276,111.896475 C208.653547,110.487087 208.88327,109.471016 209.244264,108.618827 C209.178628,108.651603 209.080176,108.68438 208.981723,108.68438 L208.948905,108.68438 C208.784817,108.68438 208.587911,108.58605 208.489458,108.454944 C208.719182,108.815486 208.719182,108.913815 208.719182,109.044921 C208.719182,109.33991 208.719182,109.569345 206.389131,111.306499 C203.599633,113.43697 201.827481,115.403559 201.630575,116.550736 C201.532123,117.271819 200.777317,119.172855 199.924059,120.844456 C199.103619,122.450503 198.348813,124.122104 198.184725,124.548198 C197.659643,126.088693 191.555566,128.973024 188.700433,129.792436 C187.978445,129.989095 186.764193,130.349636 185.484306,130.742954 C184.466959,131.037942 183.416795,131.332931 182.497902,131.595143 C178.001888,132.906202 164.349757,136.83938 162.905782,138.838746 C162.643241,139.199287 162.249429,140.182582 162.085341,141.001994 C161.921253,141.886959 161.494624,143.624112 161.067995,144.869619 C160.542913,146.606773 160.247555,147.557291 158.967667,147.557291 C157.884686,147.557291 154.832647,150.73661 153.68403,153.850376 C153.355854,154.800894 152.633866,156.177506 152.075967,157.095248 C153.290219,155.4892 155.128006,153.325952 156.079717,152.440987 C156.703251,151.85101 157.950321,150.703833 158.869214,149.884421 C159.820925,148.999456 161.494624,147.786726 162.577606,147.09842 C163.594952,146.475667 165.596827,145.164607 166.975167,144.214089 C168.747319,142.968583 170.224112,142.280277 171.799357,141.886959 C172.751068,141.657523 173.407421,141.493641 173.998138,141.493641 C174.687308,141.493641 175.278025,141.657523 176.196919,141.952512 C177.870617,142.476936 178.494152,142.837477 179.084869,143.984654 C180.528845,146.705102 180.299121,148.638915 178.231611,151.162704 C177.443988,152.113222 176.853271,152.768752 176.229736,153.227622 C177.247083,152.768752 178.330064,152.473763 179.084869,152.473763 C180.364757,152.473763 180.430392,153.358728 180.430392,153.522611 C180.430392,154.047035 179.938128,154.932 179.839675,155.095882 C179.248957,156.14473 179.380228,158.635742 179.90531,159.324049 C180.299121,159.848472 180.72575,160.766214 180.889839,161.45452 C180.955474,161.782285 181.28365,162.372262 181.907185,163.093344 C181.84155,162.536144 182.071273,161.880614 182.465084,161.061202 C182.826078,160.307343 183.515248,158.996284 184.270054,158.996284 C184.434142,158.996284 184.893588,158.996284 186.632922,160.569555 C187.190822,161.126755 187.486181,161.356191 187.650269,161.45452 C188.175351,161.028426 189.225514,160.930096 190.013137,160.930096 C190.932031,160.930096 191.719654,160.79899 191.883742,160.700661 C192.835453,160.209014 195.231139,159.520708 196.117215,159.520708 C196.478209,159.520708 196.74075,159.619037 196.87202,159.848472 C197.068926,160.110688 197.167379,160.536779 196.642297,161.651179 C196.642297,161.651179 196.642297,161.683956 196.609479,161.683956 C196.412574,162.044497 196.18285,162.962238 196.150033,163.716098 L196.150033,163.748874 C196.084397,164.568286 195.887492,165.223816 195.559315,165.617134 C196.18285,165.453251 196.675115,165.256592 196.937656,165.059933 C197.626826,164.601063 198.25036,164.338851 198.775442,164.338851 C198.93953,164.338851 199.103619,164.371627 199.267707,164.43718 C199.267707,164.43718 199.267707,164.43718 199.300524,164.43718 C199.464612,164.502733 200.1866,164.633839 201.105494,164.666616 C201.630575,164.699392 202.155657,164.764945 202.615104,164.896051 C202.352563,164.601063 202.057205,164.306074 201.794664,164.011086 C200.941405,163.093344 199.759971,161.880614 200.514776,161.028426 C200.646047,160.79899 201.105494,159.651813 201.761846,157.783554 C203.763721,151.687128 204.649797,151.687128 205.043608,151.687128 C206.192225,151.687128 207.012665,153.653717 207.045483,154.932 L207.045483,154.964776 C207.045483,156.931365 207.439295,157.029695 207.800288,157.128024 C209.178628,157.488566 210.983598,159.12739 210.983598,160.34012 C210.983598,160.995649 210.327245,162.241156 209.867799,162.929462 C209.080176,164.109415 208.456641,164.797722 207.537747,164.797722 C207.340842,164.797722 206.94703,165.027157 206.586036,165.518804 C206.12659,166.141557 205.732778,166.633205 205.174879,166.698758 C205.240514,166.797087 205.306149,166.928193 205.338967,167.026523 C205.929684,168.272029 205.306149,168.894782 203.468362,170.697489 C202.385381,171.779113 201.171129,172.991843 200.908588,173.286831 C200.908588,173.286831 200.908588,173.286831 200.87577,173.286831 C199.792789,174.434008 196.74075,176.859468 195.821856,177.088903 C195.657768,177.154456 195.067051,177.67888 194.541969,178.596622 C193.885617,179.711022 193.458988,180.432105 192.474459,180.432105 C192.277553,180.432105 192.113465,180.399328 191.916559,180.366552 C191.752471,180.333775 191.621201,180.333775 191.522748,180.333775 C191.424295,180.333775 191.391478,180.333775 191.391478,180.333775 C191.391478,180.333775 191.325842,180.366552 191.194572,180.628764 C190.997666,181.087634 190.899213,181.415399 190.899213,181.513729 C190.899213,181.644835 190.899213,181.939823 189.881867,184.463612 C189.094244,186.364648 188.273803,187.544602 186.632922,189.216203 C184.335689,191.57611 184.270054,191.57611 183.974695,191.57611 C183.90906,191.57611 183.810607,191.57611 182.202543,191.182792 C180.03658,190.691144 178.920781,189.445638 178.067523,186.528531 C177.640894,185.119142 177.575259,184.2014 177.8378,183.447541 C177.8378,183.447541 177.8378,183.414765 177.8378,183.414765 C178.395699,181.9726 180.627298,178.727728 182.038455,177.187233 C182.727625,176.433374 183.482431,175.548409 183.679336,175.25342 C183.843425,175.056761 184.04033,174.827326 184.302871,174.663443 C183.941877,174.59789 183.646519,174.368455 183.482431,174.007914 C183.35116,173.712925 183.318343,173.319608 183.416795,172.893513 C181.677461,175.286197 178.691058,178.23608 177.312718,178.23608 C176.886089,178.23608 176.787636,178.268857 176.557912,178.760504 C176.557912,178.760504 176.557912,178.793281 176.525095,178.793281 C175.934378,180.00601 174.359132,180.792646 172.521345,180.792646 C171.963445,180.792646 171.438364,180.727093 170.913282,180.595987 C169.961571,180.366552 168.944224,179.252151 168.287872,177.777209 C168.287872,177.777209 168.287872,177.777209 168.287872,177.744433 C168.156601,177.416668 167.76279,177.088903 167.631519,177.056127 C165.69528,176.597256 163.693405,170.468053 163.693405,167.452617 C163.693405,166.469322 163.529317,166.108781 163.135505,165.74824 C161.986888,164.666616 160.411643,163.847204 159.525567,163.847204 L158.475403,163.847204 C158.344132,163.847204 158.24568,163.814427 158.147227,163.748874 C158.114409,164.043862 157.884686,164.306074 157.589327,164.338851 L156.30944,164.53551 C155.882811,164.601063 155.324911,164.633839 154.865465,164.633839 C154.471653,164.633839 154.176295,164.601063 153.946571,164.568286 C153.848118,164.53551 153.749665,164.53551 153.68403,164.53551 C153.55276,164.53551 153.454307,164.53551 153.191766,164.896051 C152.633866,165.64991 151.288344,170.009183 151.025803,172.074101 C150.960168,172.729631 150.796079,173.876808 150.664809,174.860102 L150.533538,175.679514 L150.467903,176.269491 C150.303815,177.318339 150.139727,178.531069 150.106909,179.186598 C149.811551,181.907047 148.761387,184.234177 147.317412,185.250248 C146.759512,185.643566 145.939071,186.430201 145.54526,186.987402 C145.118631,187.642931 144.331008,188.364014 143.674656,188.462343 C143.313662,188.527896 140.753887,189.085097 137.701848,189.773403 C134.78108,190.428933 131.532136,190.953356 130.481972,190.953356 C128.808273,190.953356 128.316009,190.82225 127.659656,189.70785 C127.298662,189.117873 127.003304,188.134579 126.904851,187.380719 C126.872033,187.216837 126.839216,186.921849 126.806398,186.790743 C126.77358,186.790743 126.707945,186.757966 126.64231,186.757966 C126.740763,186.889072 126.806398,187.020178 126.806398,187.184061 C126.872033,187.708484 127.036121,188.462343 127.233027,189.085097 C127.233027,189.085097 127.233027,189.117873 127.233027,189.117873 C127.528386,190.166721 126.937669,190.789474 126.018775,191.57611 C124.0169,193.280487 122.310384,195.11597 119.947515,198.033077 C117.551829,201.048514 117.059564,201.146843 116.928294,201.146843 C116.895476,201.146843 116.895476,201.146843 116.862659,201.146843 C116.632935,201.212396 116.0094,201.704043 115.812495,202.031808 C115.845312,202.228467 115.812495,202.457902 115.714042,202.654561 C115.18896,203.670632 112.43228,204.358939 110.725763,204.391715 C106.722014,204.522821 101.504012,206.849951 100.486665,208.488776 C99.7318601,209.734282 99.6662249,210.094823 99.6990425,210.193153 C99.6990425,210.193153 99.7318601,210.291482 100.224124,210.488141 C100.617936,210.652024 101.1102,210.78313 101.438376,210.78313 C101.536829,210.78313 101.569647,210.78313 101.569647,210.78313 C101.700917,210.750353 101.832188,210.717577 101.963458,210.717577 C102.751081,210.717577 103.17771,211.405883 103.505887,212.126965 C103.801245,212.782495 104.063786,213.405248 103.702792,213.929672 C103.308981,214.519649 102.455723,214.585202 101.143018,214.585202 C100.027219,214.585202 96.7782742,215.797932 95.8265631,216.519014 C95.8921984,216.551791 95.925016,216.617344 96.0234689,216.682897 L96.8439094,217.30565 C97.0408151,217.469532 97.139268,217.698968 97.1064504,217.96118 C97.0736328,218.223392 96.876727,218.387274 96.6141861,218.452827 L95.7281103,218.682262 C95.4983869,218.747815 95.2030283,218.780592 94.8748521,218.780592 C94.3169525,218.780592 93.6277825,218.715039 93.0370653,218.551156 C92.1509895,218.321721 91.5930899,218.223392 91.1336432,218.223392 C89.7553031,218.223392 88.7707745,219.07558 85.9812766,221.959911 C83.8153136,224.221488 83.1917788,224.745912 81.9118915,224.745912 C81.2883567,224.745912 80.3038281,224.811465 79.7787461,224.877018 L78.7285822,224.975347 C78.6957646,224.975347 78.6957646,224.975347 78.662947,224.975347 C78.4332236,224.975347 78.2363179,224.877018 78.1050474,224.680359 C77.9737769,224.4837 77.9737769,224.221488 78.0722298,223.992053 L78.5973117,223.074311 C79.0895761,222.189346 79.7131109,221.796028 80.7960924,221.632146 C81.4524448,221.533816 82.0759796,221.337158 82.1744325,221.238828 C82.1744325,221.238828 82.1744325,221.238828 82.2072501,221.238828 C82.4697911,220.976616 82.6995145,219.73111 82.568244,219.305016 C82.2728854,219.108357 81.8134387,218.583933 82.3385206,217.666191 C82.4697911,217.403979 82.6995145,216.65012 82.7979673,216.027367 C82.7979673,216.027367 82.7979673,215.994591 82.7979673,215.994591 C82.9620554,215.240731 83.3558669,214.290213 83.8809488,213.929672 C84.9311127,213.208589 85.7843709,211.471436 85.7187357,210.652024 C85.6531004,209.963717 85.5874652,208.193787 85.5546475,206.817175 C85.5218299,204.227833 85.6202828,203.801738 86.7688995,201.73682 L87.7862458,199.934113 L87.3267991,198.918042 C87.0314405,198.295289 86.5063586,197.508653 86.1781824,197.180888 C85.5874652,196.656465 85.0623832,195.7715 85.3249242,195.11597 C85.4561947,194.755429 85.7843709,194.55877 86.1781824,194.55877 C86.4079057,194.55877 86.7032643,194.55877 88.8035921,196.722018 C90.4772908,198.426395 92.1509895,199.508019 93.7918706,199.96689 C93.8575058,199.999666 93.9231411,199.999666 94.0215939,199.999666 C94.4154054,199.999666 94.6779464,199.639125 94.7763992,199.409689 C95.1373931,198.688607 95.2030283,197.475877 94.5466759,196.558135 C93.6934177,195.312629 90.1491146,191.510557 89.328674,190.887803 C89.1317683,190.756697 88.114422,190.428933 86.8673524,190.297827 C85.6202828,190.166721 83.782496,189.773403 82.7979673,189.511191 C81.5508977,189.15065 79.614658,189.019544 76.3328959,189.019544 C71.8368817,189.019544 71.1477116,189.019544 70.4913592,188.069026 C70.3272711,187.83959 69.4411953,187.184061 68.5223019,186.692413 C67.0783265,185.938554 66.4547917,185.446907 66.3891565,184.365283 C66.3563389,184.103071 66.0609803,183.414765 65.6015336,182.923118 C64.9779987,182.300364 64.6170049,181.87427 64.7482754,181.349846 C64.8467283,180.890976 65.2733573,180.727093 65.4374454,180.66154 C65.5030807,180.628764 65.5358983,180.628764 65.5358983,180.628764 C65.5358983,180.628764 65.6015336,180.366552 65.0108164,179.514363 C64.6498225,178.989939 64.0262877,177.908315 63.6324763,177.02335 C63.1402119,175.90895 63.0745767,175.876173 62.2213185,175.777844 C60.9086137,175.581185 57.2986753,173.876808 56.281329,172.92629 C55.8218823,172.500195 55.5921589,171.549677 55.5593413,170.795818 C55.5265237,170.173065 55.3624356,169.222547 55.2639827,168.7309 L55.1327122,168.304805 L52.9995668,168.435911 C52.3432144,168.468688 51.8181324,168.501464 51.3915034,168.501464 C50.1116161,168.501464 49.4552637,168.239252 48.1097412,167.583723 L46.5344954,166.797087 L45.5171491,167.452617 C45.353061,167.550946 45.0577024,167.747605 44.8607966,167.878711 C45.0248848,168.042594 45.2217905,168.337582 45.1889729,168.7309 C45.1233376,169.320876 44.5654381,169.746971 42.9901922,170.730265 C41.7431226,171.549677 40.2991472,172.729631 39.7412477,173.319608 C38.9208071,174.204573 38.3957252,174.69622 37.0173851,174.69622 C36.1969445,174.69622 35.0811454,174.532338 32.948,174.171796 C31.7009303,173.942361 29.6006026,173.745702 28.2550801,173.712925 C26.4501109,173.647372 23.8575188,173.057396 23.3324368,171.942995 C23.2668016,171.942995 23.1683487,171.910219 23.0370782,171.910219 C22.1181848,171.910219 21.0680209,171.090807 20.5101214,170.566383 C19.9194042,170.009183 19.6896808,169.812524 19.328687,169.714194 C18.8692403,169.583088 18.114435,169.583088 16.7032772,169.583088 C14.2419556,169.583088 13.257427,169.419206 12.7651626,168.927559 C12.6667098,168.829229 12.0759926,168.567017 11.3868225,168.435911 C9.15522425,168.042594 8.85986565,167.41984 8.6301423,164.99438 C8.46605419,163.290003 8.43323657,163.290003 7.71124889,162.962238 C6.92362597,162.568921 6.56263213,162.273932 6.43136165,161.716732 C6.39854403,162.01172 6.3657264,162.273932 6.3657264,162.437815 L6.16882067,164.011086 C6.13600305,164.338851 5.84064446,164.601063 5.51246824,164.601063 L5.47965062,164.601063 L2.16507083,164.502733 C0.425736877,164.469957 -2.23249048,164.338851 -4.33281827,164.207745 C-6.00651697,164.109415 -8.27093287,163.912756 -9.28827914,163.781651 C-12.1762299,163.421109 -13.2592114,163.290003 -15.195451,163.093344 C-15.195451,163.093344 -15.195451,163.093344 -15.2282687,163.093344 C-15.7533506,163.027791 -16.3112502,162.962238 -16.8035145,162.896685 C-17.2629612,162.831133 -17.6239551,162.798356 -17.8536784,162.76558 C-18.6084837,162.66725 -21.102623,162.372262 -24.8766494,161.978944 L-26.8457067,161.782285 C-27.173883,161.749509 -27.4364239,161.45452 -27.4364239,161.126755 L-27.4036063,160.176237 C-27.5348768,160.962873 -27.7974178,161.749509 -28.5522231,161.749509 C-28.7819464,161.749509 -29.0116698,161.651179 -29.2413931,161.487297 C-29.5695693,161.421744 -30.4884628,161.323414 -31.7355324,161.192308 L-32.6872434,161.093979 C-33.8358602,160.995649 -34.8532064,160.89732 -35.2142003,160.831767 C-35.6408294,160.766214 -36.9535342,160.602332 -38.1349686,160.504002 C-39.3492206,160.405673 -40.6619255,160.24179 -41.1213722,160.176237 C-41.5480013,160.110688 -42.8607061,159.946802 -44.0421405,159.848472 C-45.3548454,159.750143 -50.3103063,158.734072 -54.3140561,157.81633 C-57.4317302,157.095248 -60.2540456,156.472494 -61.7636562,156.14473 C-62.4528263,155.980847 -62.7481849,155.915294 -62.8466377,155.915294 C-63.4373549,155.784188 -63.8968016,155.685859 -64.389066,155.554753 C-65.1438713,155.39087 -65.9314942,155.226988 -67.0801109,154.964776 C-67.5395576,154.866447 -68.031822,154.735341 -68.4584511,154.669788 C-69.1148035,154.538682 -69.6398854,154.407576 -69.8367912,154.374799 C-70.0336969,154.342023 -70.4931436,154.243694 -71.0838608,154.112588 C-71.674578,153.981482 -72.363748,153.817599 -73.0529181,153.686493 C-74.8578873,153.293175 -75.5470573,153.06374 -75.8424159,152.539316 C-75.8752336,152.473763 -75.9080512,152.40821 -75.9408688,152.309881 C-76.0393217,152.572093 -76.2362274,152.899858 -76.6628565,152.899858 C-76.8597622,152.899858 -76.9910327,152.834305 -77.0566679,152.768752 C-77.0566679,152.768752 -77.0894856,152.768752 -77.0894856,152.735975 C-77.3520265,152.637646 -78.4021904,152.375434 -79.5508072,152.047669 C-80.2071596,151.883787 -80.9291473,151.687128 -81.651135,151.490469 C-83.1935632,151.097151 -84.5719033,150.73661 -85.8189729,150.408845 C-91.6933272,148.86835 -94.6469132,148.081714 -96.222159,147.491738 C-97.3379581,147.065643 -97.8302225,146.705102 -98.1583987,146.246231 C-98.1583987,146.279008 -98.1912163,146.311784 -98.1912163,146.344561 C-98.3224868,146.606773 -98.6178454,146.770655 -98.9460216,146.770655 C-99.0772921,146.770655 -99.2085626,146.737879 -99.4054683,146.705102 C-99.4054683,146.705102 -99.4054683,146.705102 -99.4382859,146.705102 C-99.602374,146.639549 -101.604249,146.016796 -104.131206,145.23016 C-106.428439,144.509078 -109.250755,143.624112 -111.712076,142.870253 C-113.517046,142.313053 -132.715354,135.135003 -140.624401,132.021237 C-141.871471,131.52959 -143.479534,130.939613 -144.070251,130.710178 C-145.61268,130.152977 -145.973673,129.563001 -145.973673,127.79307 C-145.973673,126.973658 -146.203397,126.67867 -146.43312,126.482011 C-148.566266,124.712081 -149.255436,123.859892 -149.255436,123.007704 C-149.255436,122.974927 -149.255436,122.942151 -149.255436,122.909374 C-150.043059,122.679939 -150.797864,121.696644 -151.257311,120.61502 C-151.093222,121.794974 -150.765046,122.319397 -149.649247,123.827116 C-147.68019,126.416458 -147.450466,126.908105 -147.155108,129.595777 C-147.023837,130.677401 -146.728479,132.021237 -146.498755,132.611214 C-146.498755,132.611214 -146.498755,132.64399 -146.498755,132.64399 C-146.039309,134.020602 -146.137762,134.51225 -146.465938,134.774462 C-146.728479,135.036674 -147.187925,135.135003 -147.877096,135.135003 C-148.992895,135.135003 -150.699411,134.807238 -151.585487,134.250038 C-153.718632,132.873426 -157.131665,128.612483 -157.131665,126.842552 C-157.131665,126.350905 -157.131665,126.318129 -157.656747,126.12147 C-158.838181,125.695375 -159.724257,124.285987 -160.249339,121.991633 C-160.249339,121.991633 -160.249339,121.958856 -160.249339,121.958856 C-160.314974,121.499985 -160.741603,120.61502 -161.102597,120.090597 C-161.102597,120.090597 -161.102597,120.090597 -161.102597,120.05782 C-161.529226,119.40229 -162.119943,118.18956 -162.480937,117.337372 C-162.776296,116.616289 -163.596736,115.010241 -164.351542,113.731959 C-165.237617,112.191464 -165.926787,110.487087 -166.156511,109.274357 C-166.386234,108.159956 -166.780046,106.81612 -166.976951,106.291696 C-167.469216,105.078967 -167.436398,104.652872 -166.254964,103.669578 C-165.828335,103.309036 -164.876624,102.686283 -164.220271,102.686283 C-163.596736,102.686283 -162.546572,103.145154 -157.952105,108.454944 C-157.492659,108.979368 -157.033212,109.503792 -156.672218,109.929886 C-156.672218,109.700451 -156.639401,109.405463 -156.606583,109.077698 C-156.540948,108.651603 -156.540948,108.389392 -156.540948,108.225509 C-156.869124,108.159956 -157.230118,107.996074 -157.427023,107.701085 C-157.591112,107.569979 -158.149011,107.176662 -158.903816,106.750567 C-160.150886,106.029485 -160.807238,105.373955 -160.807238,104.882308 C-160.807238,104.751202 -160.872874,104.423437 -160.905691,104.194001 C-160.905691,104.128449 -160.938509,104.030119 -160.938509,103.964566 C-161.135415,103.014048 -161.135415,102.391295 -161.102597,98.8514345 C-161.069779,95.8687744 -161.036962,95.508233 -159.82271,94.492162 C-159.625804,94.3282796 -159.26481,94.0005147 -159.231993,93.9021853 C-159.231993,93.8694088 -159.231993,93.7383029 -159.396081,93.3449851 C-159.625804,92.7222318 -159.789892,91.6078314 -159.789892,90.7884193 C-159.789892,89.9690071 -160.052433,89.3462539 -160.971327,87.9696416 C-162.087126,86.3963703 -162.415302,85.7080641 -162.218396,84.4625577 C-162.087126,83.6759221 -161.627679,82.790957 -161.135415,82.3976392 C-160.774421,82.1026508 -160.64315,82.0043214 -161.75895,79.8082969 C-162.382484,78.5627905 -162.480937,77.7106019 -162.480937,73.9413061 C-162.480937,69.8770221 -162.480937,69.4509278 -161.430773,68.4020802 C-160.905691,67.8776565 -159.691439,67.1565738 -158.608458,66.763256 C-156.37686,65.9110674 -154.801614,64.4033491 -154.801614,63.583937 C-154.801614,62.1089952 -154.046808,60.4373945 -152.701286,58.9624527 C-151.946481,58.1102641 -151.848028,57.9791581 -151.848028,56.2420044 C-151.848028,54.5376272 -151.913663,54.4720743 -152.602833,53.8493211 C-153.817085,52.7676971 -155.851778,48.9328484 -156.442495,46.6712709 C-156.803489,45.2618821 -156.737853,44.4752465 -155.917413,41.197598 C-155.162608,38.0510555 -155.096972,37.4610787 -155.392331,35.920584 C-155.589237,34.83896 -155.81896,32.544606 -155.95023,30.8402288 C-156.048683,29.1358516 -156.212771,27.4642509 -156.278407,27.1037096 C-156.311224,27.0053801 -156.311224,26.8414977 -156.344042,26.6776153 C-156.409677,26.2187445 -156.540948,25.6287678 -156.606583,25.104344 C-156.705036,24.4815908 -157.1973,22.1872369 -157.7552,19.7945535 C-158.280282,17.4674231 -158.805364,15.3369516 -158.903816,14.9764103 C-158.903816,14.9764103 -158.903816,14.9764103 -158.903816,14.9436338 C-158.936634,14.7797514 -159.231993,14.4519865 -159.888345,14.1569982 C-160.708786,13.8292333 -161.496409,13.5014685 -161.824585,13.5014685 C-161.923038,13.5014685 -161.988673,13.5014685 -162.316849,13.9931157 C-162.841931,14.8780808 -163.629554,15.4025046 -165.237617,15.9924813 C-166.287781,16.3530226 -167.764574,16.9429994 -168.453744,17.3035407 C-168.453744,17.3035407 -168.453744,17.3035407 -168.486562,17.3035407 C-168.749103,17.4346466 -169.011644,17.5329761 -169.20855,17.6313055 C-169.864902,17.9262939 -169.963355,17.9918469 -170.127443,17.9918469 C-170.324349,17.9918469 -170.521255,17.8935174 -170.652525,17.729635 C-170.882248,17.4346466 -170.816613,17.2379877 -170.58689,16.0908108 C-170.58689,16.0908108 -170.58689,16.0580343 -170.58689,16.0580343 C-170.160261,14.5175395 -170.488437,10.8137967 -170.980701,10.0599376 C-171.669871,9.04386655 -171.735507,6.61840669 -171.243242,5.70066512 C-170.980701,5.17624136 -170.58689,5.11068839 -170.357166,5.11068839 C-170.291531,5.11068839 -170.258714,5.11068839 -170.193078,5.11068839 C-170.160261,5.11068839 -170.160261,5.11068839 -170.127443,5.11068839 C-169.569543,5.27457082 -162.645025,9.76494921 -162.57939,9.7977257 C-152.012116,16.6807875 -140.821307,23.4982963 -135.373582,26.3498504 C-132.846625,27.6609098 -130.319668,29.0047457 -130.057127,29.1686281 C-129.236686,29.7258284 -119.227312,34.8061835 -115.38765,36.5761137 C-112.959146,37.6905141 -107.872415,39.7882091 -104.098388,41.2303745 C-96.8128762,44.0819286 -96.7144233,44.1802581 -96.5503352,44.311364 C-96.3534295,44.5080229 -96.2877942,44.7374583 -96.2877942,44.9996702 C-96.1893414,44.7374583 -95.9268004,44.5735759 -95.6642594,44.5735759 C-95.5986242,44.5735759 -95.532989,44.5735759 -95.4673537,44.6063524 L-88.2146593,47.0318123 C-84.2437271,48.3756481 -78.2052847,50.2439077 -74.7594344,51.2599788 C-72.7903771,51.817179 -69.935244,52.6693676 -67.1785638,53.4887797 C-65.078236,54.1115329 -63.0107259,54.7015097 -61.3370271,55.1931569 C-54.0186975,57.2908519 -53.887427,57.4219579 -53.7561565,57.5530638 C-53.5592508,57.7497227 -53.5264332,58.0119346 -53.5264332,58.2085935 C-53.3295275,57.8808287 -53.0341689,57.6841698 -52.6403574,57.6841698 C-52.5419045,57.6841698 -52.410634,57.7169462 -52.3121812,57.7169462 C-51.8199169,57.8480522 -49.555501,58.3396995 -47.3895379,58.7330173 C-47.3895379,58.7330173 -47.3567203,58.7330173 -47.3567203,58.7330173 C-47.1926322,58.7657938 -46.9629088,58.7985702 -46.7331855,58.8641232 C-46.4050093,58.9296762 -46.1424683,58.9624527 -45.912745,59.0280056 C-44.5344048,59.322994 -31.1776328,61.9123363 -30.3900099,62.0434422 C-29.9961984,62.1089952 -28.5522231,62.3712071 -26.7144363,62.7317484 L-25.5986371,62.9611838 C-23.1701331,63.4528311 -21.0369877,63.8133724 -20.4134529,63.8789254 C-19.2320185,64.0100313 -18.7397542,64.1739137 -18.6084837,64.9277729 L-18.5756661,64.665561 C-18.5428485,64.3377961 -18.2474899,64.0755843 -17.9193136,64.0755843 C-17.886496,64.0755843 -17.886496,64.0755843 -17.8536784,64.0755843 L-16.3768854,64.2066902 C-16.3768854,64.2066902 -16.3440678,64.2066902 -16.3440678,64.2066902 C-15.5564449,64.3377961 -14.0140167,64.5016786 -12.8653999,64.600008 C-11.7167831,64.6983375 -9.48518487,64.9605494 -8.23811525,65.0916553 C-7.02386325,65.2227612 -4.79226497,65.4849731 -3.67646583,65.5833026 C-2.62630194,65.681632 -1.37923232,65.812738 -0.952603234,65.8782909 C-0.624427017,65.9438439 0.721095472,66.1077263 1.93534747,66.2388323 C3.01832899,66.3371617 4.10131051,66.5010441 4.52793959,66.5338206 L4.6920277,66.5665971 C4.72484532,66.5665971 4.75766294,66.5665971 4.75766294,66.5993736 C4.88893343,66.6321501 5.67655635,66.7304795 6.33290878,66.7960325 C6.72672024,66.828809 7.18616695,66.8943619 7.61279603,66.9599149 C8.07224273,67.0254679 8.53168944,67.0582444 8.9255009,67.1237973 C9.97566479,67.2549033 10.2710234,67.2876798 10.4022939,67.3204562 C10.5991996,67.3532327 11.6493635,67.3860092 12.2728983,67.4187857 L14.0122323,67.4515622 C14.209138,67.4515622 14.3732261,67.5498916 14.5044966,67.6809976 C14.6357671,67.8121035 14.7014023,68.0087624 14.6685847,68.2054213 L14.4060437,70.4342223 C13.8809618,74.6951653 14.1106851,76.5306484 14.3075909,76.9239662 C14.471679,77.2845076 15.8172015,77.5794959 17.0642711,77.8417078 C20.5101214,78.5627905 21.7900086,79.2838731 22.1181848,81.8076625 C22.3479082,83.6103691 22.5448139,84.5281107 23.2011663,87.6418767 C24.1200597,92.0339257 24.2185126,92.6239024 23.8903364,93.5088675 C23.8903364,93.541644 23.8575188,93.5744204 23.8575188,93.5744204 C23.9559716,93.5744204 24.0872421,93.6071969 24.3169655,93.6071969 C25.5640351,93.6071969 27.4018219,93.3122086 27.828451,93.1155497 C28.0253567,92.8861143 28.5832563,92.5583494 30.519496,92.4927965 C30.6835841,92.4927965 30.8804898,92.4927965 31.0117603,92.4927965 C32.2588299,92.4927965 32.9808176,92.6239024 33.4402643,93.2794321 C33.6699877,93.6071969 34.162252,93.8038558 36.2953974,94.1316207 C36.328215,94.1316207 40.0694239,94.7543739 40.0694239,96.0982098 L40.0694239,96.1309863 C40.2006944,95.9998803 40.3647825,95.9015509 40.5616882,95.9015509 C40.6601411,95.9015509 40.7914116,95.9343273 40.8898644,95.9998803 L41.9728459,96.6226335 C42.924557,97.1470573 45.6156019,99.3103053 45.8453253,100.391929 C45.9109605,100.523035 46.2063191,100.916353 46.7642187,101.473553 C47.4533888,102.161859 48.1097412,102.456848 49.4880813,102.71906 C50.9976919,103.014048 52.0150382,103.472919 52.7698435,104.194001 C53.590284,104.947861 54.2466365,105.210072 55.6249766,105.275625 C56.4125995,105.308402 58.0206629,106.619461 58.5129273,107.045556 L60.1209907,108.454944 L66.0281626,108.651603 C71.4102526,108.815486 72.4932341,108.946592 73.8387566,109.602121 L75.1842791,110.290428 C75.4140024,110.421534 75.5780906,110.650969 75.5452729,110.913181 L75.3155496,113.764735 C75.1186438,115.993536 74.9217381,116.780172 74.75765,117.07516 C74.7904676,117.173489 74.8561029,117.435701 75.0530086,117.796243 C75.4140024,118.386219 75.8406315,119.598949 75.971902,120.516691 C76.3328959,123.13881 76.3985311,123.302692 76.6282544,123.827116 C76.8907954,124.35154 76.9564307,125.46594 76.8907954,126.285352 C76.7923426,127.3342 76.923613,127.760294 77.6784183,128.940247 C78.925488,130.87406 82.2728854,134.872791 82.9620554,135.429991 C84.2747603,135.757756 86.2766352,138.740416 86.8345348,140.280911 L87.2939815,141.657523 L88.8035921,141.526417 L90.8382846,141.362535 L90.9039199,141.362535 C91.1336432,141.362535 91.330549,141.493641 91.4618195,141.6903 C91.3633666,140.969217 91.2977313,140.510346 91.2649137,140.412017 C91.1664609,140.018699 91.1008256,139.559828 91.3633666,139.199287 C91.6259076,138.805969 92.0853543,138.70764 92.6432538,138.60931 C92.8073419,138.576534 92.9386124,138.543757 93.0042477,138.510981 C93.0042477,138.445428 92.97143,138.314322 92.9386124,138.15044 C92.7417067,137.167145 92.9057948,136.446062 93.7262353,135.298885 C94.2184997,134.545026 94.5466759,133.692838 94.5466759,133.463402 C94.5466759,133.20119 94.0872292,131.824578 93.2667886,130.152977 C92.5119833,128.579706 91.757178,126.711446 91.5602723,125.924811 C91.3633666,125.236505 91.0023727,124.384316 90.7398318,124.056551 C90.2803851,123.433798 90.0834793,122.548833 90.116297,121.237773 C90.116297,121.237773 90.116297,121.237773 90.116297,121.204997 C90.1819322,119.795608 89.4599445,118.124007 88.4754159,117.599584 C87.8846987,117.271819 87.5237048,116.550736 87.5237048,115.829654 C87.5237048,115.534665 87.2939815,114.911912 86.9986229,114.518594 C86.8017172,114.289159 86.211,113.469747 86.211,112.978099 C86.211,111.765369 89.591215,109.602121 89.9522089,109.372686 C90.805467,108.848262 91.9540838,107.864968 92.4791657,107.242215 C93.0370653,106.586685 94.1528644,105.308402 94.973305,104.357884 C95.925016,103.309036 96.7782742,101.899648 97.5002618,100.031388 C98.5832434,97.4092692 98.616061,96.9503984 98.5832434,94.5904915 C98.5504257,92.6566789 98.3207024,91.2800665 97.66435,89.3134774 C97.1720856,87.8057592 96.6798213,86.1997114 96.5485508,85.7080641 C96.5485508,85.7080641 96.5485508,85.6752876 96.5485508,85.6752876 C96.2860098,84.4953342 93.5949649,81.4471211 91.4946371,80.2999442 C89.2302212,79.0872142 86.7032643,76.9895192 86.5391762,75.219589 C86.5063586,74.5640594 86.7360819,73.4168824 87.0970758,72.6630232 C87.3924344,72.0074936 87.6549753,71.2536344 87.7206106,71.024199 C87.8190634,70.4342223 88.4754159,69.8114691 88.6723216,69.6148102 C88.6723216,69.6148102 88.6723216,69.5820337 88.7051392,69.5820337 C89.0004978,69.3525983 89.1645859,69.1559394 89.1645859,68.0087624 C89.1645859,66.7304795 89.4271269,65.9110674 89.9850265,65.2883142 C90.1819322,65.0588788 90.2803851,64.9605494 90.2803851,64.8949964 C90.3132027,64.731114 90.116297,64.2066902 89.9850265,63.9117018 C89.7224855,63.1578427 89.4599445,62.1745482 89.328674,61.6501244 C89.1645859,60.7323828 88.3441454,59.1263351 87.425252,57.9136052 C86.6048114,56.8319812 86.5391762,56.209228 86.5391762,52.83325 C86.5391762,50.0144724 86.3750881,49.1950602 86.2438176,48.9984013 C85.8500061,48.572307 85.1936537,47.1629182 84.7670246,46.0485177 L83.8481312,43.7869403 C83.782496,43.6230579 83.782496,43.4263989 83.8809488,43.22974 L84.734207,41.5253628 C85.6202828,39.7554327 85.8828238,39.4604443 87.6221577,39.2310089 C88.639504,39.099903 89.6240326,39.03435 90.4772908,39.03435 C91.8556309,39.03435 93.0042477,39.1982324 93.8903235,39.5259973 C95.0061226,39.9193151 96.5157332,40.181527 97.7299852,40.181527 C98.4847905,40.181527 98.8457843,40.0831975 98.9770548,40.050421 C99.3708663,39.8865386 100.256942,39.2310089 100.946112,38.5427027 C101.372741,38.1166084 102.48854,37.0677609 103.04644,37.0677609 C103.965333,37.0677609 110.824216,40.8370567 112.43228,41.9186806 C114.073161,42.9675282 114.729513,43.5902814 114.63106,44.6391289 C114.598243,44.9013408 114.762331,45.4913175 115.024872,45.9174118 C115.32023,46.3762826 115.418683,46.5073885 118.50354,46.8679298 C120.275691,47.0973652 122.605742,47.490683 123.590271,47.8184479 L125.198335,48.3428716 C125.493693,48.4412011 125.690599,48.7361895 125.657781,49.0311778 L125.428058,50.8338845 C125.198335,52.4399322 125.428058,53.4560032 126.937669,57.6841698 C127.134574,58.2741465 127.298662,59.1591116 127.298662,59.7818648 L127.298662,59.8146413 C127.265845,60.1424061 127.528386,60.6340534 127.88938,61.0601477 C128.414461,61.5845714 129.103632,62.6334189 129.497443,63.5511605 L129.95689,64.600008 L131.072689,64.4689021 C131.499318,64.4033491 131.794677,64.3705726 132.090035,64.3705726 C133.140199,64.3705726 133.698099,64.8622199 134.945168,65.8782909 C135.896879,66.697703 136.979861,67.3532327 137.308037,67.4515622 C137.669031,67.5498916 138.161295,67.7465505 138.456654,68.0743154 C138.686377,67.910433 139.047371,67.6154446 139.670906,67.0254679 C140.655434,66.0749498 141.016428,65.4849731 141.147699,64.6327845 C141.278969,63.7805959 141.574328,62.8628543 142.493221,62.4695365 C142.690127,62.4039836 143.051121,61.9451128 143.313662,61.1257007 C143.805926,59.6179824 143.707473,56.4386633 143.248026,55.6520277 C143.149574,55.4881453 142.755762,54.6687332 142.952668,54.1115329 C142.985486,53.980427 143.083938,53.4232268 143.182391,52.964356 C143.248026,52.7021441 143.280844,52.4071557 143.346479,52.1121674 C143.60902,50.6044491 144.363826,49.0639543 145.446807,49.0639543 C145.610895,49.0639543 145.807801,49.0967308 145.971889,49.1950602 C146.004707,49.1950602 146.037524,49.2278367 146.070342,49.2606132 C145.54526,47.1956947 145.709348,47.0645887 145.939071,46.8351533 C146.070342,46.7040474 146.267248,46.6384944 146.464153,46.6384944 C146.661059,46.6384944 147.186141,46.6384944 149.352104,48.6050835 C150.36945,49.4900486 151.682155,50.801108 152.404143,51.7844025 C153.093313,52.7349206 153.749665,53.3248973 153.946571,53.4560032 C154.602924,53.5215562 155.292094,54.2426389 155.62027,54.6687332 C155.62027,54.6687332 155.62027,54.6687332 155.653087,54.7015097 C155.948446,55.127604 156.703251,55.8486866 157.228333,56.143675 C158.081591,56.6680987 158.770762,57.5858403 159.295843,58.7657938 C159.689655,59.6835353 159.985014,59.9457472 160.050649,60.0113002 C160.772636,60.0768531 161.494624,60.9618182 161.789983,61.420689 C162.249429,62.1089952 162.544788,62.3056541 163.398046,62.43676 C164.776386,62.6661954 165.235833,63.0267368 165.925003,64.3705726 C166.318815,65.1244318 166.811079,66.4027147 166.909532,67.2876798 C166.975167,67.7137741 167.007985,67.9759859 167.106437,68.0743154 C167.237708,68.2054213 167.631519,68.3365273 168.156601,68.4676332 C169.00986,68.6970686 170.092841,69.1887159 170.552288,69.7131396 C171.339911,70.5653282 171.20864,71.0569755 170.749193,72.5646938 C170.3882,73.8429767 170.421017,74.0396356 170.650741,74.4657299 C170.913282,74.9573772 171.241458,75.7767893 171.339911,76.2356601 C171.438364,76.5962014 171.832175,76.8256368 174.621673,77.8417078 C176.59073,78.530014 178.264429,79.0216613 178.559787,79.0544378 C179.34741,79.0544378 180.528845,80.2343912 180.857021,80.5949325 L181.907185,81.7421095 L184.565412,81.8732154 C186.173476,81.9387684 188.142533,82.2337568 188.930156,82.5287451 C189.29115,82.6598511 189.619326,82.7581805 189.881867,82.7581805 C190.341314,82.7581805 190.767943,82.5287451 191.325842,82.0043214 C191.588383,81.7421095 191.949377,81.6110036 192.376006,81.6110036 C192.835453,81.6110036 193.491805,81.7421095 194.738875,82.1026508 C197.364285,82.8237335 197.626826,83.1514983 197.725278,83.3481572 C197.987819,83.7742515 198.053455,84.3314518 197.856549,84.888652 C197.692461,85.4458523 197.331467,85.9374995 196.839203,86.2652644 C197.068926,86.2324879 197.265832,86.1997114 197.528373,86.1997114 C198.742625,86.1997114 199.267707,86.4946998 200.05533,87.5763238 C200.350688,88.0024181 200.547594,88.2318535 200.646047,88.2318535 C200.711682,88.2318535 200.810135,88.199077 200.941405,88.1663005 C201.597758,88.0024181 202.286928,87.9040886 202.94328,87.9040886 C203.993444,87.9040886 204.912338,88.133524 205.503055,88.5923948 C205.864049,88.8873831 207.045483,89.6412423 208.161282,90.231219 C208.88327,90.6245368 209.57244,91.0178546 209.933434,91.2145136 C210.097522,91.312843 210.195975,91.3456195 210.228792,91.378396 C210.852327,91.7061608 210.589786,92.3616905 210.228792,93.1483261 C209.802163,94.0988442 210.39288,95.8032214 211.607132,97.0159513 C212.624479,98.0320224 214.26536,100.555812 214.26536,101.604659 C214.26536,102.194636 213.182378,103.964566 212.132214,105.406731 C212.165032,105.373955 212.19785,105.341178 212.263485,105.308402 C213.215196,104.587319 213.773095,104.226778 214.298177,104.226778 C214.593536,104.226778 214.888895,104.325107 215.151436,104.554543 C216.628229,105.800049 216.857952,107.340544 216.726681,111.273722 C216.693864,111.929252 216.595411,115.043018 216.33287,115.698548 C216.300052,115.829654 216.168782,116.41963 216.037511,117.534031 C216.135964,117.402925 216.168782,117.337372 216.2016,117.304595 C216.267235,116.97683 216.562593,116.354077 217.973751,116.354077 C218.498833,116.354077 219.023915,116.452407 219.516179,116.616289 C221.091425,117.173489 221.222696,117.599584 221.091425,119.435067 L221.058608,119.828385 L222.010319,119.828385 C222.732306,119.828385 223.257388,119.730055 223.421476,119.697279 C223.815288,119.336737 224.701364,119.041749 225.423351,118.84509 C226.210974,118.648431 227.589314,118.124007 228.541025,117.697913 C229.459919,117.271819 230.378812,117.042383 231.23207,117.042383 C232.052511,117.042383 232.840134,117.239042 233.594939,117.63236 C234.054386,117.861796 234.41538,118.386219 234.612285,119.107302 C234.809191,119.795608 234.842009,120.811679 234.382562,121.499985 C234.316927,121.598315 234.316927,121.631091 234.284109,121.663868 C234.316927,121.696644 234.382562,121.794974 234.54665,121.92608 C234.54665,121.92608 234.54665,121.92608 234.579468,121.92608 C234.842009,122.188292 234.973279,122.253845 235.268638,122.253845 C235.498361,122.253845 235.79372,122.221068 236.285984,122.122739 C237.040789,121.991633 237.500236,121.958856 237.86123,121.958856 C239.272388,121.958856 239.469293,122.876598 239.469293,123.663233 C239.469293,124.744857 238.747306,126.088693 237.565871,127.170317 C237.762777,127.498082 237.86123,127.989729 237.86123,128.4486 C237.86123,128.710812 237.894047,128.973024 237.894047,129.202459 C238.090953,128.874694 238.353494,128.54693 238.5504,128.284718 C239.633381,127.006435 240.125646,127.006435 240.289734,127.006435 C241.077357,127.006435 241.569621,128.120835 241.766527,128.776365 C241.930615,129.333565 242.061885,129.497448 242.094703,129.563001 C242.193156,129.530224 242.422879,129.464671 243.013596,129.038577 C243.210502,128.907471 243.899672,128.415824 244.490389,128.415824 C244.785748,128.415824 244.982654,128.54693 245.081107,128.645259 C245.474918,129.038577 245.573371,130.611848 245.606189,131.52959 C245.278012,132.906202 245.343648,134.41392 245.376465,135.102226 Z" id="Path" fill="#FFDBD0" fill-rule="nonzero" mask="url(#mask-2)"></path>
                <path d="M175.11669,182.605655 C175.11669,182.605655 175.083942,182.605655 175.11669,182.605655 C174.068765,184.574423 172.234897,186.215062 170.532019,186.707254 C169.615085,186.969757 168.56716,187.757264 166.504059,189.726031 C164.899424,191.268233 162.86907,193.072936 161.984883,193.729192 C161.231687,194.319822 160.020024,195.46827 159.365071,196.28859 C158.611875,197.207348 157.465708,198.585485 156.778007,199.405805 C156.286792,199.996435 155.468101,200.948006 155.369858,201.046445 C155.337111,201.079258 155.271615,201.11207 155.238868,201.144883 C155.435354,201.538637 155.533596,201.998016 155.533596,202.391769 C155.533596,202.687084 155.500849,202.949587 155.435354,203.146464 C155.992064,203.212089 156.516026,203.408966 156.908998,203.901158 C157.498455,204.688665 157.301969,205.738674 156.974493,206.788684 C156.843502,207.21525 156.712512,207.707442 156.712512,207.904318 C156.712512,207.937131 156.712512,207.969944 156.908998,208.232446 C157.170979,208.560574 157.85868,209.151205 158.41539,209.479333 C158.41539,209.479333 158.448137,209.479333 158.448137,209.512145 C159.561557,210.201214 159.954529,210.562155 160.08552,210.890283 C160.282005,211.021534 160.64223,211.185598 160.969706,211.316849 C160.904211,211.152785 160.805968,210.955908 160.64223,210.85747 C160.347501,210.660593 159.725295,210.168401 159.954529,209.413707 C160.21651,208.659013 161.002454,208.659013 161.395426,208.659013 C162.279612,208.659013 163.098303,209.380894 163.622266,210.102776 C164.5392,211.382475 164.637443,211.841854 163.720509,213.121553 C163.720509,213.121553 163.687761,213.154365 163.687761,213.154365 C163.55677,213.318429 163.360284,213.515306 163.131051,213.67937 C163.851499,213.777808 164.146228,214.204375 164.244471,214.466877 C164.408209,214.860631 164.440957,215.484074 163.687761,216.238768 C163.458527,216.468457 163.065556,216.862211 162.44335,216.862211 C162.115874,216.862211 161.821145,216.763773 161.460921,216.599709 C160.838715,216.370019 160.511239,215.779389 160.64223,215.155946 C160.64223,215.09032 160.674977,214.991882 160.707725,214.926256 C160.511239,214.991882 160.282005,215.09032 160.08552,215.155946 C160.380248,215.385635 160.609482,215.746576 160.674977,216.107517 C160.805968,216.698147 160.609482,217.0919 160.445744,217.32159 C160.052772,217.813782 159.463314,217.879408 158.9721,217.879408 C158.480885,217.879408 157.891427,217.813782 157.498455,217.32159 C157.334717,217.124713 157.203727,216.829398 157.203727,216.402832 C156.974493,216.468457 156.745259,216.50127 156.516026,216.50127 C156.123054,216.50127 155.76283,216.402832 155.435354,216.205955 C155.435354,216.468457 155.369858,216.73096 155.20612,216.960649 C155.20612,216.993462 155.173372,216.993462 155.173372,217.026275 C154.813148,217.616905 152.553561,219.487234 151.636626,219.487234 C151.44014,219.487234 151.276402,219.454422 151.145412,219.388796 C151.014421,219.716924 150.621449,219.979426 149.835506,220.274741 C150.228477,220.405993 150.424963,220.668495 150.555954,220.865372 C150.75244,221.226312 151.079916,222.145071 149.737263,223.326331 C149.278796,223.720085 148.361862,224.573217 147.706909,225.19666 C147.674161,225.229473 147.674161,225.229473 147.641413,225.262286 C146.397003,226.24667 142.008818,228.379501 140.600669,228.379501 C140.436931,228.379501 140.30594,228.346688 140.174949,228.313876 C140.30594,228.904506 140.502426,229.626387 140.829902,230.381082 C141.190127,231.234214 141.386612,232.349849 141.28837,233.038918 C141.222874,233.53111 141.091884,234.384242 140.993641,234.94206 C140.73166,236.779576 138.177343,241.963997 136.96568,242.751505 C136.867437,242.81713 136.801942,242.849943 136.736446,242.915568 C136.310727,243.210884 135.983251,243.473386 135.426541,243.473386 C135.361045,243.473386 135.262802,243.473386 135.197307,243.440573 C136.081493,244.490583 136.801942,245.737469 136.801942,246.590601 C136.801942,246.951542 136.670951,247.214044 136.474465,247.410921 C136.670951,247.574985 136.769194,247.837487 136.769194,248.132803 C136.769194,248.165615 136.769194,248.198428 136.769194,248.231241 L136.703699,249.642191 C136.703699,249.904693 136.638203,251.282831 136.310727,251.74221 C136.245232,251.840648 136.146989,251.939087 136.048746,252.004712 C135.950503,252.070338 135.819512,252.10315 135.655774,252.168776 C135.85226,252.660968 135.655774,253.087534 135.557531,253.284411 C135.426541,253.612539 135.066316,254.498484 134.804335,255.253179 C134.509606,256.073498 133.985644,257.156321 133.461682,257.681325 C133.428934,257.681325 133.428934,257.714138 133.396186,257.746951 C133.494429,257.845389 133.559925,258.009453 133.62542,258.140704 C133.821906,258.731335 133.527177,259.321965 133.1997,259.84697 C132.937719,260.339161 132.577495,260.831353 132.08628,261.093856 C133.232448,262.176678 133.559925,262.636057 133.559925,263.522002 C133.559925,264.014194 133.363439,264.440761 133.06871,264.768889 C133.461682,265.097016 133.658168,265.589208 133.789158,265.917336 C134.214878,266.967346 134.214878,267.525163 133.723663,268.148606 C134.902578,268.378296 135.623026,268.772049 136.343475,269.592369 C137.948109,271.397073 137.555138,272.447082 136.048746,274.054909 C135.426541,274.743978 135.000821,275.367421 134.902578,275.531485 C134.902578,275.531485 134.902578,275.531485 134.902578,275.531485 C134.509606,276.679932 132.741233,276.876809 131.693309,276.876809 L131.693309,276.876809 C131.693309,276.975247 131.693309,277.139311 131.693309,277.270563 L131.693309,277.729942 L131.988037,277.729942 C132.610243,277.729942 133.62542,277.729942 134.018392,278.583074 C134.411363,279.436207 133.690915,280.28934 133.232448,280.87997 C131.791552,282.586235 130.97286,283.340929 129.335478,283.340929 C128.74602,283.340929 128.516787,283.439368 126.355442,285.70345 C124.16135,288.000346 124.063107,288.262848 124.063107,288.886291 C124.063107,290.461305 123.60464,290.920684 122.163743,291.544128 C120.755594,292.200383 120.460865,292.200383 120.362622,292.200383 C120.002398,292.200383 119.83866,292.069132 119.249202,291.609753 C119.150959,291.773817 119.052716,291.937881 118.954473,292.069132 C118.72524,292.430073 118.365016,292.856639 118.004792,293.283206 C116.4984,295.055096 116.269166,295.514475 116.007185,297.023864 C115.810699,298.106686 115.253989,299.09107 114.27156,300.009828 C113.682102,300.567646 112.568682,301.781719 111.815486,302.667664 C111.029543,303.619235 109.130179,305.522377 107.656535,306.867702 C106.084648,308.344277 105.298704,309.098972 104.643751,309.361474 C104.709247,309.623976 104.741994,309.919292 104.578256,310.345858 C104.512761,310.542735 104.349022,311.067739 103.988798,312.01931 C103.759565,312.675566 103.497584,313.43026 103.235602,314.217767 C102.482406,316.449037 102.15493,317.925613 102.15493,319.074061 C102.15493,319.861568 102.15493,320.845952 101.729211,321.370956 C102.318668,321.895961 102.416911,322.552217 102.449659,322.94597 L102.449659,322.978783 C102.449659,324.881925 105.986405,332.724183 108.671712,336.267964 C110.50558,338.663298 111.258776,340.435189 111.979224,343.814907 C112.142963,344.536788 112.830663,346.341492 113.583859,347.85088 C113.878588,348.408698 114.173317,349.032141 114.500793,349.655584 C115.024756,350.705593 115.581466,351.788415 115.94169,352.477484 C116.989615,354.54469 117.022362,355.004069 117.120605,359.400983 C117.1861,363.108829 117.087858,364.454153 116.596643,365.340099 C116.465652,365.602601 116.170923,366.8823 116.007185,368.326063 C115.974437,368.621378 115.712456,371.082337 115.155746,371.93547 C114.238812,373.379233 111.357019,375.249562 109.457655,375.905818 C108.868198,376.135508 108.27874,376.299572 107.820273,376.463635 C107.59104,376.529261 107.394554,376.594887 107.329058,376.627699 C107.296311,376.627699 107.296311,376.627699 107.263563,376.660512 C107.03433,376.726138 106.870591,376.758951 106.739601,376.758951 C106.313881,376.758951 105.953657,376.496448 105.789919,376.135508 C105.658928,375.840192 105.626181,375.380813 106.150143,374.855809 C106.641358,374.363617 107.820273,373.969863 108.180497,373.838612 C109.785132,373.34642 111.651748,372.066721 112.73242,371.082337 C112.306701,371.147963 111.880981,371.213589 111.48801,371.34484 C111.324271,371.377653 111.193281,371.410465 110.996795,371.410465 C109.457655,371.410465 106.837844,369.408885 105.069471,367.407305 C103.988798,366.160419 102.940874,365.307286 102.678892,365.143222 C101.860201,364.782281 100.976015,363.666646 100.452052,362.747888 C99.9935852,361.927568 99.1093987,360.943184 98.5854363,360.582244 C97.5047639,359.794737 96.9153062,358.941604 96.2603533,357.235339 C95.8673815,356.119704 95.3106715,355.233758 94.6884662,354.675941 C94.2627467,354.282187 93.2475696,353.297804 93.214822,352.411858 C93.1820743,352.149356 92.9200932,351.033721 92.4616261,349.557145 C91.9704114,347.916506 91.5774396,345.652423 91.446449,343.486779 C91.1844678,338.892988 91.1189725,338.696111 88.1716842,336.038275 C86.6652924,334.69295 84.9951623,332.986685 84.5039476,332.231991 C84.1437234,331.706986 83.4887705,331.116356 83.1285464,330.952292 C82.8665652,330.821041 82.7028269,330.788228 82.506341,330.788228 C81.8186404,330.788228 80.5414821,331.378858 78.1181562,332.592931 C76.8082503,333.249187 74.9416343,334.036694 74.0574478,334.233571 C74.0574478,334.233571 74.0574478,334.233571 74.0247002,334.233571 C73.762719,334.299197 73.4352425,334.332009 73.1732613,334.332009 C72.0925889,334.332009 71.6013742,333.642941 71.0774118,332.888247 C70.7171877,332.363242 70.12773,331.903863 69.6365153,331.739799 C68.8505717,331.510109 67.4096752,330.755415 66.3944981,330.131972 L64.7571157,329.147588 L61.7115844,329.344465 C59.8449685,329.442903 58.305829,329.606967 58.0111002,329.672593 C57.847362,329.738218 57.6836237,329.738218 57.5198855,329.738218 C57.3888949,329.738218 57.2251566,329.705406 57.0286707,329.63978 C56.9959231,329.672593 56.9631755,329.738218 56.9304278,329.771031 C56.7339419,330.000721 56.4719607,330.164785 56.1444842,330.164785 L53.7866536,330.164785 C52.1820188,330.131972 51.0358511,330.033534 50.5446364,329.278839 C50.4463935,329.278839 50.3154029,329.311652 50.1844123,329.344465 L49.0382446,329.574154 C48.9727493,329.574154 48.907254,329.606967 48.8417587,329.606967 C48.6452728,329.606967 48.4487869,329.541342 48.252301,329.41009 C48.1540581,329.442903 48.0558151,329.475716 47.9575722,329.475716 L47.2043763,329.508529 C47.2043763,329.508529 47.2043763,329.508529 47.1716286,329.508529 C44.158845,329.574154 42.947182,329.967908 42.7179485,330.131972 C42.6852008,330.197598 42.6197055,330.23041 42.5869579,330.296036 C43.1436679,330.755415 43.3401538,331.313232 43.3401538,332.396055 C43.3401538,333.446064 43.0126773,334.364822 42.4232197,334.889827 C42.1284908,335.152329 42.0629955,335.382019 42.0957432,335.480457 C42.1284908,335.644521 42.3249767,335.74296 42.4232197,335.775772 C43.7003779,336.300777 45.6324892,338.203919 45.6324892,339.516431 C45.6324892,340.336751 44.9120409,340.960194 44.0278544,340.960194 C43.7658732,340.960194 43.3729015,341.025819 43.1764156,341.058632 C43.0126773,341.091445 42.8161914,341.124258 42.6197055,341.124258 C42.1612385,341.124258 41.6372761,341.025819 41.2115567,340.894568 C40.622099,340.730504 39.6396696,340.303938 38.7554831,339.97581 L38.5589972,339.910184 C37.9695395,339.680495 37.5765677,339.516431 37.3800818,339.516431 C37.2490912,339.516431 37.085353,339.582056 36.7251289,339.74612 C35.3824753,340.336751 34.4327935,340.56644 32.3041964,340.828942 C32.0422152,340.861755 31.780234,340.894568 31.5182528,340.894568 C29.4224033,340.894568 27.3920491,339.811746 25.6564238,337.777353 C24.9359755,336.92422 23.7243125,336.005462 23.0693596,335.677334 L22.1524254,335.217955 L21.9231919,335.414832 C21.169996,336.136713 20.0565759,336.497654 18.74667,336.497654 C17.2402782,336.497654 15.5701481,336.005462 13.9655134,335.119516 C13.6707846,334.955452 12.3936263,334.758576 10.6907486,334.758576 C9.57732853,334.758576 8.88962792,334.857014 8.66039438,334.955452 C8.39841319,335.217955 8.07093671,335.447644 7.64521729,335.447644 C7.35048845,335.447644 7.12125492,335.349206 6.92476903,335.152329 C6.66278784,335.546083 6.17157312,335.874211 5.41837721,335.874211 C4.56693836,335.874211 3.02779889,336.563279 1.84888356,337.810165 C0.473482334,339.286741 -2.86677778,341.321134 -7.12397205,343.322715 C-9.64554096,344.503975 -11.1191851,345.422733 -11.3811663,345.685236 C-11.3811663,345.718049 -11.413914,345.718049 -11.413914,345.750861 C-11.5121569,345.8493 -11.7086428,346.013364 -12.4945863,346.636807 C-12.7238199,346.833684 -13.0185487,347.063373 -13.2805299,347.293063 C-13.2805299,347.293063 -13.2805299,347.293063 -13.3132776,347.293063 C-15.3108841,348.868077 -16.2278182,349.885273 -18.0944342,352.575922 C-19.4370878,354.479064 -19.4370878,354.479064 -19.3715925,356.415019 C-19.3388448,357.629092 -19.1751066,358.941604 -19.044116,359.36817 C-18.5856489,360.811933 -19.2406019,364.519779 -19.4698354,365.340099 C-19.4698354,365.372911 -19.4698354,365.47135 -19.4698354,365.504163 C-19.5680784,366.947926 -20.3867696,367.177615 -20.8779843,367.177615 C-21.369199,367.177615 -21.8931614,366.947926 -22.6791049,366.390108 C-24.0872538,365.372911 -24.4147303,365.274473 -25.462655,365.274473 C-26.9362992,365.274473 -27.8204857,364.979158 -29.2941299,363.994774 C-30.1783164,363.404144 -31.422727,362.780701 -32.07768,362.583824 C-32.8636235,362.321322 -33.8788006,361.796317 -34.30452,361.271312 C-34.5010059,361.00881 -34.8612301,360.582244 -35.0904636,360.352554 C-35.6799213,359.761924 -36.6296031,356.972837 -36.4331172,356.119704 C-36.4331172,356.119704 -36.4331172,356.086891 -36.4331172,356.086891 C-36.4658648,355.857202 -36.5313601,355.529074 -36.5968554,355.004069 L-36.5968554,354.971256 C-36.6296031,354.741567 -36.6623507,354.675941 -36.6950984,354.610315 C-36.8915842,354.216562 -37.0225748,353.822808 -37.1535654,352.247794 C-37.284556,350.804031 -37.7102755,350.180588 -38.4307237,349.163392 C-38.7582002,348.736825 -39.0856767,348.244634 -39.4786485,347.621191 C-41.7382362,343.847719 -43.3101233,339.024239 -43.6048521,337.646102 C-43.6048521,337.646102 -43.6048521,337.646102 -43.6048521,337.613289 C-43.899581,336.071087 -45.4059728,333.544502 -46.9778599,332.428867 C-47.7965511,331.87105 -47.7310558,331.116356 -47.7310558,330.821041 C-47.7310558,330.656977 -47.7310558,330.656977 -47.7310558,330.624164 C-48.0585323,329.967908 -49.3029429,329.213214 -50.0561388,329.081963 C-50.0561388,329.081963 -50.0561388,329.081963 -50.0888865,329.081963 C-50.6455965,328.983524 -52.086493,328.688209 -53.1671654,328.45852 C-53.8221184,328.327268 -54.4443237,328.22883 -55.0010337,328.22883 C-55.7869772,328.22883 -57.1623785,328.392894 -57.6863408,329.377278 C-57.9810697,329.967908 -58.4395368,330.263223 -58.7670132,330.4601 C-58.9634991,330.821041 -59.3892185,331.378858 -60.4371433,332.494493 C-60.6991245,332.756995 -60.7646198,332.953872 -60.8628627,333.150749 C-61.1248439,333.642941 -61.4523204,334.200758 -62.5002451,334.200758 L-62.5329928,334.200758 C-64.4978517,334.167945 -65.0873093,333.708566 -67.5433829,331.510109 C-70.7199048,328.655396 -72.3900349,326.063186 -72.5210255,323.733477 C-72.5537731,323.044409 -73.1759784,319.500627 -73.4707073,318.745933 C-73.6344455,318.352179 -74.8788561,317.236544 -75.3700709,316.842791 C-75.730295,316.514663 -75.9267809,316.350599 -76.0577715,316.219348 C-76.0577715,316.219348 -76.0905191,316.186535 -76.0905191,316.186535 C-76.1887621,316.055284 -76.5162385,315.694343 -76.4179956,315.169338 C-76.6144815,314.939649 -77.0074533,314.513083 -77.7279015,313.758388 C-78.5793404,312.905256 -78.9723122,312.052123 -79.267041,311.395867 C-79.4962745,310.936488 -80.1512275,310.345858 -80.3477134,310.214607 C-80.9699187,309.886479 -81.1664046,309.164597 -81.3301428,308.37709 C-81.3956381,308.180214 -81.4283858,307.950524 -81.4611334,307.819273 C-81.6248717,307.327081 -81.9850958,306.703638 -82.3125723,306.408323 C-82.3125723,306.408323 -82.3125723,306.408323 -82.3453199,306.37551 C-82.4763105,306.244259 -82.6073011,306.113008 -82.803787,305.981756 C-83.0330205,305.78488 -83.2622541,305.588003 -83.45874,305.325501 C-83.6879735,305.489564 -83.917207,305.522377 -84.1464406,305.522377 C-84.4084218,305.522377 -84.6049077,305.456752 -84.8341412,305.358313 C-85.1943653,305.227062 -85.7183277,305.062998 -86.7007571,305.030185 C-87.5849436,304.997373 -88.4363825,304.800496 -89.1895784,304.636432 C-89.7462884,304.505181 -90.2375031,304.406742 -90.6959702,304.37393 C-91.9403808,304.275491 -93.5777633,303.980176 -94.0362303,303.848925 C-94.0362303,303.848925 -94.0362303,303.848925 -94.068978,303.848925 C-94.5601927,303.717674 -95.0186598,303.520797 -95.3461363,303.389546 C-95.4443792,303.356733 -95.5426221,303.291107 -95.6736127,303.258295 C-95.739108,303.520797 -95.8046033,303.848925 -95.8700986,304.209866 C-96.0665845,305.358313 -96.3613134,307.294268 -98.2279293,307.294268 C-99.5050876,307.294268 -101.895666,306.933327 -102.8126,305.620816 C-102.943591,305.423939 -103.041834,305.227062 -103.107329,305.030185 C-103.598544,305.489564 -104.220749,305.686441 -105.03944,305.686441 C-105.759888,305.686441 -106.611327,305.522377 -107.888486,305.259875 C-109.460373,304.898934 -111.425232,304.406742 -112.440409,304.14424 C-112.898876,304.012989 -113.422838,303.750486 -113.914053,303.520797 C-114.307025,303.32392 -114.92923,303.028605 -115.125716,303.028605 C-116.402874,303.028605 -117.15607,302.405162 -118.531471,301.223901 C-118.727957,301.059837 -118.924443,300.895773 -119.120929,300.73171 C-120.299844,299.780139 -121.544255,298.730129 -121.937227,298.369188 C-122.199208,298.139499 -123.640104,297.056677 -125.441225,295.875416 L-126.161673,295.383224 C-131.368549,291.872255 -137.033892,288.000346 -138.474789,286.720647 C-138.769518,286.458145 -138.933256,286.130017 -138.933256,285.769076 C-138.933256,285.440948 -138.835013,285.178446 -138.671275,284.915943 C-138.867761,284.883131 -139.064247,284.817505 -139.260732,284.784692 C-140.734377,284.456564 -141.553068,284.2925 -141.847797,283.570619 C-141.978787,283.242491 -141.978787,282.88155 -141.782301,282.553422 C-141.38933,281.897166 -138.867761,280.87997 -138.638527,280.814344 C-138.311051,280.683093 -137.656098,280.420591 -137.459612,280.256527 C-137.459612,280.190901 -137.459612,280.125276 -137.459612,279.928399 C-137.459612,279.501833 -137.62335,279.173705 -137.787088,279.009641 C-138.409294,278.451823 -138.704022,277.894006 -138.73677,277.23775 C-138.769518,276.220553 -138.049069,275.334608 -137.328621,274.612726 C-136.739164,274.022096 -136.018715,273.0049 -135.691239,272.381456 C-135.331015,271.725201 -134.643314,270.642378 -133.660885,270.576753 C-133.529894,270.511127 -133.16967,270.281438 -132.776698,269.920497 L-132.350979,269.493931 L-132.776698,268.673611 C-133.529894,267.262661 -133.660885,266.245464 -133.660885,263.915756 C-133.660885,263.161062 -133.628137,262.406367 -133.595389,261.815737 C-133.595389,261.651673 -133.562642,261.487609 -133.562642,261.290732 L-133.595389,261.290732 C-134.381333,261.290732 -134.905295,260.601664 -135.658491,259.125088 C-135.920472,258.632896 -136.280696,257.97664 -136.673668,257.221946 C-137.197631,256.20475 -137.787088,255.089115 -138.278303,254.137544 C-138.671275,253.382849 -140.734377,249.51094 -142.240768,246.590601 C-143.550674,244.064016 -144.72959,241.963997 -144.827833,241.767121 C-144.893328,241.668682 -145.024319,241.471806 -147.185663,237.403019 C-148.266336,235.270188 -149.674485,232.677977 -150.198447,231.693593 C-150.198447,231.693593 -150.198447,231.693593 -150.198447,231.660781 C-150.427681,231.267027 -150.722409,230.676397 -151.082633,230.052954 C-151.606596,229.101383 -152.196054,227.985748 -152.687268,227.06699 C-152.981997,226.509172 -153.342221,225.820103 -153.702445,225.131035 C-154.324651,223.916961 -155.012351,222.670075 -155.438071,221.816943 C-155.569061,221.587253 -155.667304,221.390376 -155.765547,221.1935 C-157.763154,217.518467 -157.632163,217.124713 -153.964427,206.755871 L-153.276726,204.819916 C-152.228801,201.833952 -151.180876,198.913613 -150.329438,196.583905 C-148.986784,192.941685 -148.888541,192.843247 -148.692055,192.64637 C-148.462822,192.41668 -148.168093,192.318242 -147.775121,192.318242 C-146.890935,192.318242 -144.72959,192.974498 -135.331015,196.485467 C-134.184847,196.912033 -132.61296,197.46985 -130.975577,198.027668 C-131.139316,197.174535 -130.746344,196.091713 -129.9604,193.926069 C-129.796662,193.499502 -129.632924,193.007311 -129.436438,192.482306 C-128.617747,190.251036 -127.897299,187.724451 -127.766308,186.936944 C-127.569822,185.558807 -127.17685,184.672861 -126.292664,183.72129 C-126.292664,183.72129 -126.292664,183.72129 -126.259916,183.688477 C-125.899692,183.294724 -125.735954,183.097847 -125.670458,182.966596 C-125.604963,182.736906 -125.670458,182.244714 -125.735954,181.522833 C-125.768701,181.227518 -125.834197,180.800952 -125.866944,180.407198 C-125.899692,180.013445 -125.965187,179.652504 -125.965187,179.455627 C-126.096178,178.07749 -125.277487,177.454047 -124.327805,176.961855 C-124.327805,176.961855 -124.327805,176.961855 -124.327805,176.961855 C-123.410871,176.502476 -122.199208,175.189964 -122.002722,174.763398 C-121.937227,174.238393 -121.380517,173.483699 -120.398087,172.532128 L-119.481153,171.61337 L-119.874125,169.513351 C-120.070611,168.397716 -120.201601,167.413332 -120.267097,166.461761 C-120.332592,166.494574 -120.398087,166.494574 -120.463582,166.494574 C-120.561825,166.494574 -120.692816,166.461761 -120.791059,166.428948 L-125.637711,164.657057 C-130.287877,162.983605 -132.481969,162.524226 -136.935649,162.196098 C-140.472395,161.966408 -142.50275,161.474217 -145.351795,160.161705 C-146.596206,159.571075 -148.561065,158.914819 -149.674485,158.685129 C-150.493176,158.521065 -152.196054,158.061686 -152.752764,157.40543 C-152.752764,157.40543 -152.785511,157.372617 -152.785511,157.372617 C-153.276726,156.716362 -153.407716,155.239786 -153.407716,154.649156 L-153.407716,154.616343 C-153.407716,153.435082 -153.407716,153.369457 -154.553884,152.155383 C-155.438071,151.203812 -156.060276,150.810059 -157.009958,150.580369 L-158.51635,150.186616 C-159.007564,150.055365 -159.335041,149.563173 -159.236798,149.038168 L-158.974817,147.791282 C-158.64734,146.281893 -157.140948,136.897435 -156.715229,133.714594 C-156.355005,130.827068 -155.7328,130.400502 -155.470818,130.269251 C-155.241585,130.137999 -154.979604,130.072374 -154.717622,130.072374 C-153.866184,130.072374 -152.916502,130.663004 -150.689662,132.533333 C-149.641737,133.419279 -146.989177,134.666165 -145.515533,135.092731 C-145.482786,133.878658 -144.565851,130.991132 -143.910899,130.039561 C-143.714413,129.777059 -143.419684,129.612995 -143.05946,129.612995 C-142.895721,129.612995 -142.600993,129.612995 -140.734377,130.367689 C-139.784695,130.761442 -133.235165,133.288027 -126.06343,136.011489 C-122.755918,137.258375 -119.513901,138.472449 -116.992332,139.456833 C-112.997119,140.999034 -112.997119,140.999034 -112.800633,141.195911 C-112.735137,141.261536 -112.669642,141.359975 -112.604147,141.4256 C-112.473156,141.392787 -112.342166,141.359975 -112.211175,141.359975 C-111.556222,141.359975 -110.082578,141.819354 -109.656859,141.950605 C-108.674429,142.278733 -107.986728,142.541235 -107.626504,142.869363 C-107.495514,142.803737 -107.331775,142.770925 -107.168037,142.770925 C-107.069794,142.770925 -106.971551,142.803737 -106.873308,142.803737 L-102.910843,144.083436 C-99.275854,145.231884 -83.8844594,149.53036 -81.690367,149.989739 C-80.9699187,150.12099 -78.3828545,150.810059 -76.8764627,151.236625 C-73.6344455,152.089758 -52.4467171,156.946051 -48.1567752,157.831997 C-47.0761028,158.061686 -46.6176358,158.192937 -46.3556546,158.291376 C-46.126421,158.357001 -45.3732251,158.45544 -44.2598051,158.586691 C-42.2621985,158.81638 -41.7382362,158.849193 -41.4435073,159.242947 C-41.3125168,159.210134 -41.1815262,159.177321 -41.0177879,159.177321 C-40.8540497,159.177321 -40.6248161,159.144508 -40.3300873,159.144508 C-38.9219384,159.144508 -36.3676219,159.308572 -35.1887065,159.538262 C-34.8939777,159.603887 -33.5185765,159.735139 -32.4051564,159.86639 C-31.979437,159.932015 -31.5209699,159.964828 -31.0625029,159.997641 C-30.2438117,160.063266 -29.5561111,160.161705 -29.2613822,160.194518 C-29.0321487,160.22733 -28.5081863,160.292956 -27.9514763,160.358582 C-27.4930092,160.424207 -27.0017945,160.45702 -26.5105798,160.522646 C-25.4299074,160.621084 -24.0217585,160.785148 -23.3668055,160.883586 C-21.4019467,161.146089 -13.8044923,162.032034 -12.1016146,162.196098 C-11.1846804,162.294536 -9.94026979,162.425788 -9.31806447,162.491413 C-8.69585916,162.557039 -7.32045793,162.721103 -6.33802849,162.852354 C-4.89713197,163.049231 -4.27492665,163.27892 -3.94745017,163.50861 C-3.91470252,163.475797 -3.91470252,163.442984 -3.88195487,163.442984 C-3.68546899,163.27892 -3.45623545,163.180482 -3.19425426,163.180482 L-3.12875897,163.180482 L-0.869171242,163.311733 C2.50383652,163.50861 4.33770482,163.607048 5.32013427,163.607048 C5.87684428,163.607048 6.07333017,163.574235 6.13882547,163.541423 C6.13882547,163.541423 6.13882547,163.541423 6.17157312,163.50861 C6.17157312,163.50861 6.17157312,163.475797 6.20432077,163.475797 C6.30256371,163.377359 6.40080666,163.147669 6.40080666,163.049231 C6.40080666,162.786728 6.40080666,162.524226 6.4990496,162.261724 C6.59729254,161.999221 6.72828314,161.802345 6.92476903,161.671093 C7.12125492,161.539842 7.35048845,161.441404 7.61246964,161.441404 C7.97269377,161.441404 8.30017025,161.572655 8.82413262,161.86797 C9.74106677,162.360162 10.0357956,163.574235 10.1995338,164.821121 C10.4287674,166.691451 10.7562439,166.953953 12.0006545,167.183643 C12.5901122,167.282081 13.7035322,167.577396 14.2602422,168.069588 C14.3584852,168.102401 14.9479428,168.364903 17.2075306,168.397716 C20.2203142,168.463341 20.6787813,168.528967 22.0541825,169.808666 C22.5781449,170.268045 23.0366119,170.56336 23.2330978,170.628986 C23.7570602,170.694611 24.5757514,171.088365 25.6236761,171.810246 C26.6388532,172.499315 26.8680868,172.597753 28.1452451,172.597753 C28.3089833,172.597753 28.4727215,172.597753 28.6364598,172.597753 C28.7674504,172.597753 28.9311886,172.597753 29.0949268,172.597753 C31.2890193,172.597753 35.1532418,173.02432 36.3649047,173.516512 C36.3649047,173.516512 36.3649047,173.516512 36.3976524,173.516512 C36.6596336,173.61495 37.2163436,173.877452 37.3145865,174.500895 C37.4455771,175.157151 36.9871101,175.583718 36.3976524,176.141535 C35.8409424,176.66654 34.8912606,177.191544 34.1708123,177.191544 C33.1883829,177.191544 31.4855052,178.208741 30.8632998,179.127499 C30.4375804,179.849381 29.5861416,180.768139 28.8329457,181.194705 C28.5709645,181.358769 28.3744786,181.522833 28.2762356,181.588459 C28.0797498,182.015025 27.6212827,182.343153 27.0645727,182.408778 C26.9990774,182.441591 26.9008344,182.572842 26.8025915,182.704094 C26.376872,183.393162 25.1652091,184.410359 24.5757514,184.869738 C24.5430038,184.902551 24.5102561,184.935363 24.4447608,184.968176 C26.0493956,184.574423 29.1604221,183.557226 29.7498798,183.229098 C30.011861,182.999409 30.3720851,182.704094 30.8632998,182.704094 C31.1907763,182.704094 31.4855052,182.835345 31.7147387,183.097847 C32.1077105,183.524413 32.1077105,184.147856 32.0422152,184.607236 C32.0422152,184.640048 32.0422152,184.672861 32.0422152,184.672861 C32.0749628,184.672861 32.1077105,184.705674 32.1404581,184.705674 C32.1404581,184.705674 32.1732058,184.705674 32.1732058,184.705674 C32.7299158,184.902551 33.2866258,185.263491 33.7778405,185.722871 C33.8433358,185.36193 34.105317,185.033802 34.5310364,184.607236 C34.9895035,184.147856 35.8081947,183.655665 36.528643,183.655665 C37.4455771,183.655665 40.0981366,182.704094 41.1133137,181.916587 C42.8816867,180.571262 46.2219468,178.274367 47.5973481,178.274367 C47.8593293,178.274367 48.0558151,178.339992 48.252301,178.43843 C48.5797775,178.635307 48.7762634,178.963435 48.7762634,179.324376 C48.8090111,179.947819 48.3177963,180.440011 47.8920769,180.735326 C47.4336098,181.063454 47.0406381,181.752523 46.9096475,182.113463 C47.0733857,182.179089 47.4663575,182.244714 48.2195534,182.277527 C49.2347305,182.31034 50.9048605,183.754103 51.232337,184.049418 C52.1820188,184.902551 52.5094953,185.13224 53.1317006,185.13224 C53.8848965,185.13224 55.1620548,184.804112 57.0286707,184.279108 C59.1572679,183.688477 61.1548744,183.393162 62.8250045,183.393162 C64.920854,183.393162 66.2307599,183.852541 66.8202176,184.7713 C66.9184605,184.7713 67.0167034,184.738487 67.1149464,184.738487 C67.1149464,184.738487 67.1149464,184.738487 67.1149464,184.738487 C68.5230953,184.738487 71.437636,186.280688 72.1908319,187.691638 C72.6492989,188.577583 72.9440278,189.299465 72.6492989,189.988534 C72.3873177,190.644789 71.7323648,190.841666 71.4703836,190.907292 C70.9464212,191.071356 70.4879542,191.202607 69.9967394,191.301045 C70.225973,191.465109 70.4879542,191.694799 70.782683,191.990114 C71.5031312,192.679183 72.5183083,193.269813 72.9767754,193.368251 C72.9767754,193.368251 73.0095231,193.368251 73.0095231,193.368251 C76.087802,194.221384 76.8737456,196.255777 77.201222,199.307367 C77.5286985,202.457395 77.4959509,203.34334 76.5135214,204.75429 C75.989559,205.508985 75.8258208,205.935551 75.7603255,206.591807 C75.7275779,207.182437 75.3018584,207.576191 74.7451484,207.707442 C74.7451484,207.773067 74.7451484,207.838693 74.7451484,207.904318 C74.7451484,208.134008 74.8106437,208.363698 74.8433914,208.494949 C75.3018584,208.134008 76.1532973,207.313688 76.9064932,206.591807 L78.6093709,204.951167 C78.8058568,204.787103 79.0350903,204.688665 79.2970715,204.688665 L79.3298192,204.688665 C79.5918003,204.688665 79.8537815,204.819916 80.0175198,205.016793 L81.1309398,206.230866 C82.3426028,207.543378 83.161294,209.44652 83.4887705,211.710602 C83.4887705,211.710602 83.4887705,211.743415 83.4887705,211.743415 C83.5542658,212.169982 83.718004,212.891863 83.8489946,213.384055 C84.4057046,215.155946 83.4560228,217.715344 81.4911639,219.618486 C80.836211,220.274741 80.4104916,220.832559 80.279501,221.029436 C80.181258,221.685691 79.6900433,222.506011 79.624548,222.60445 C79.624548,222.60445 79.624548,222.637262 79.5918003,222.637262 C79.4608098,222.834139 79.2315762,223.621646 79.1988286,224.409153 L79.1660809,225.852916 C79.4280621,225.918542 79.9847721,226.115419 81.4911639,226.804487 C82.5390887,227.296679 83.5215181,227.559181 84.274714,227.559181 C84.7004335,227.559181 84.9951623,227.460743 85.1916482,227.329492 C85.1916482,227.329492 85.2243958,227.296679 85.2243958,227.296679 C85.6828629,226.935738 86.7635353,226.443546 87.5167312,226.148231 C88.2371795,225.885729 89.0558707,225.42635 89.3505995,225.19666 C90.5950101,224.081025 94.0007656,221.423189 95.2779238,221.423189 C95.2779238,221.423189 95.2779238,221.423189 95.2779238,221.423189 C95.4089144,221.423189 95.539905,221.456002 95.6708956,221.488815 C95.8673815,221.062248 96.194858,220.734121 96.6860727,220.37318 C97.1445398,220.077865 97.8977357,219.585673 98.2579598,219.32317 C98.6509316,219.027855 98.9784081,218.798166 99.4368751,218.798166 C99.6661087,218.798166 99.8298469,218.830979 99.9935852,218.929417 C100.386557,217.945033 101.499977,216.599709 103.759565,214.171562 C104.119789,213.777808 104.349022,213.482493 104.512761,213.285617 C104.38177,212.990301 104.152536,212.465297 103.890555,211.907479 C103.170107,210.463716 102.71164,209.544958 103.170107,208.823077 C103.432088,208.39651 103.857808,208.199634 104.480013,208.199634 C104.578256,208.199634 104.872985,208.101195 105.036723,207.937131 C105.036723,207.937131 105.036723,207.937131 105.036723,207.937131 C105.626181,207.477752 106.575862,207.280875 110.800309,207.248063 C115.745204,207.182437 115.974437,207.083999 117.284343,205.968364 C118.659745,204.787103 118.954473,203.802719 118.496006,201.899577 L118.037539,199.996435 C117.972044,199.70112 118.037539,199.372992 118.234025,199.11049 L120.133389,196.87922 C121.148566,195.69796 122.327481,194.221384 122.687705,193.696379 C123.17892,193.007311 124.390583,191.858863 125.307517,191.071356 C125.307517,191.071356 125.307517,191.071356 125.340265,191.071356 L127.07589,189.693218 C127.239628,189.561967 127.468862,189.463529 127.698096,189.463529 L127.730843,189.463529 L130.448898,189.529154 C130.710879,189.529154 130.940113,189.529154 131.202094,189.529154 C132.512,189.529154 133.363439,189.463529 133.559925,189.397903 C133.821906,189.299465 134.051139,189.266652 134.247625,189.266652 C134.542354,189.266652 134.804335,189.332278 135.000821,189.463529 C135.131812,189.201027 135.361045,189.00415 135.655774,188.938524 L138.734053,188.249456 C140.436931,187.855702 142.53278,187.461949 143.384219,187.330697 C143.384219,187.330697 143.384219,187.330697 143.416967,187.330697 L144.923358,187.133821 C144.956106,187.133821 144.988854,187.133821 145.054349,187.133821 C145.087097,186.576003 145.31633,186.149437 145.676554,185.591619 C145.676554,185.591619 145.676554,185.591619 145.676554,185.558807 C146.135021,184.902551 146.691731,184.213482 147.477675,184.213482 C147.575918,184.213482 147.674161,184.213482 147.772404,184.246295 C147.837899,183.852541 148.034385,183.524413 148.329114,183.294724 C148.722086,182.736906 149.704515,179.947819 149.868253,178.536869 C149.933749,177.618111 150.19573,176.043097 150.32672,175.189964 C150.490459,174.271206 150.686945,172.630566 150.850683,171.514931 C150.948926,170.300858 151.505636,168.168026 151.931355,166.724263 L152.782794,164.066427 C152.913785,163.705486 153.241261,163.442984 153.601485,163.377359 L155.828325,163.147669 C157.007241,163.016418 157.825932,162.819541 158.055165,162.753915 C158.480885,162.491413 159.10309,162.392975 159.52881,162.392975 C159.594305,162.392975 159.692548,162.392975 159.758043,162.392975 C159.889034,162.392975 160.052772,162.425788 160.21651,162.425788 C160.511239,162.4586 160.805968,162.4586 161.002454,162.491413 C161.690154,162.589852 162.803574,163.475797 163.131051,163.738299 C164.244471,164.68987 164.571947,165.378939 164.571947,166.724263 C164.5392,169.841479 166.962526,175.058713 167.846712,175.452466 C168.468918,175.714969 169.156618,176.239973 169.254861,176.896229 C169.320356,177.060293 169.615085,177.486859 170.008057,177.979051 C170.008057,177.979051 170.008057,177.979051 170.008057,177.979051 C170.564767,178.66812 171.055982,178.963435 172.103906,179.225938 C173.315569,179.521253 174.494485,179.915006 174.920204,180.866577 C175.509662,181.325956 175.444167,181.916587 175.11669,182.605655 Z" id="Path" fill="#FFFFFF" fill-rule="nonzero" mask="url(#mask-2)"></path>
            </g>
        </g>
    </g>
</svg>