<?xml version="1.0" encoding="UTF-8"?>
<svg width="143px" height="340px" viewBox="0 0 143 340" version="1.1" xmlns="http://www.w3.org/2000/svg" xmlns:xlink="http://www.w3.org/1999/xlink">
    <title>EAST COAST</title>
    <defs>
        <rect id="path-1" x="0" y="0" width="143" height="398"></rect>
    </defs>
    <g id="Page-1" stroke="none" stroke-width="1" fill="none" fill-rule="evenodd" opacity="0.763625372">
        <g id="Low-Res-TV" transform="translate(-488.000000, -190.000000)">
            <g id="EAST-COAST" transform="translate(488.000000, 153.000000)">
                <mask id="mask-2" fill="white">
                    <use xlink:href="#path-1"></use>
                </mask>
                <g id="Mask"></g>
                <path d="M142.376465,135.102226 C142.4421,137.232698 140.899672,139.428722 139.160338,139.592605 C139.029068,139.592605 138.897797,139.592605 138.799344,139.592605 C137.946086,139.592605 137.453822,139.26484 137.092828,138.445428 C137.092828,138.445428 137.092828,138.412651 137.06001,138.412651 C137.06001,138.445428 137.027193,138.478204 137.027193,138.510981 C136.863105,138.773193 136.436476,139.625381 135.68167,139.625381 C134.697142,139.625381 134.139242,138.412651 133.811066,135.429991 C133.712613,134.51225 133.581343,133.889497 133.48289,133.430626 C133.384437,134.446697 132.957808,135.036674 132.006097,135.921639 C130.955933,136.904933 130.890298,137.101592 130.594939,139.133734 C130.135492,142.640818 129.085328,143.722442 126.16456,143.787995 C126.03329,143.787995 125.902019,143.787995 125.803566,143.787995 C124.950308,143.787995 123.998597,143.689665 123.736056,142.968583 C123.440697,142.2475 124.031415,141.493641 125.048761,140.543123 C125.902019,139.756487 126.000472,139.494275 126.000472,138.642087 L126.000472,138.445428 C125.114396,138.871522 124.162685,139.133734 123.473515,139.133734 C123.079704,139.133734 122.784345,139.068181 122.554622,138.871522 C122.095175,138.937075 120.388659,139.985923 119.010319,140.805335 C117.992972,141.428088 116.680267,142.018065 116.08955,142.149171 C116.056733,142.149171 116.056733,142.149171 116.056733,142.149171 C115.761374,142.181947 115.26911,142.280277 114.842481,142.34583 C114.547122,142.378606 114.284581,142.444159 114.054858,142.476936 C113.562593,142.542489 111.724807,143.165242 109.755749,143.951877 C109.19785,144.181313 108.63995,144.410748 108.147686,144.607407 C107.195975,145.000725 106.277081,145.361266 106.145811,145.426819 C106.080176,145.459596 106.01454,145.492372 105.948905,145.492372 C105.916087,145.492372 105.88327,145.492372 105.817635,145.492372 C105.128465,145.492372 104.472112,144.771289 104.242389,144.476301 C103.12659,143.099689 103.159407,141.362535 104.275206,139.854817 C104.898741,139.035405 105.062829,138.117663 104.931559,137.691569 C104.898741,137.560463 104.833106,137.527686 104.833106,137.527686 C104.340842,137.363804 103.979848,137.068816 103.848577,136.675498 C103.618854,136.085521 103.81576,135.331662 104.50493,134.184485 C105.030012,133.365073 105.095647,133.135637 104.898741,130.611848 C104.570565,125.990364 104.669018,120.516691 105.1941,115.2069 L105.1941,115.108571 C105.226917,114.6497 105.358188,113.273088 105.522276,111.896475 C105.653547,110.487087 105.88327,109.471016 106.244264,108.618827 C106.178628,108.651603 106.080176,108.68438 105.981723,108.68438 L105.948905,108.68438 C105.784817,108.68438 105.587911,108.58605 105.489458,108.454944 C105.719182,108.815486 105.719182,108.913815 105.719182,109.044921 C105.719182,109.33991 105.719182,109.569345 103.389131,111.306499 C100.599633,113.43697 98.8274812,115.403559 98.6305755,116.550736 C98.5321226,117.271819 97.7773173,119.172855 96.9240591,120.844456 C96.1036186,122.450503 95.3488133,124.122104 95.1847252,124.548198 C94.6596432,126.088693 88.5555656,128.973024 85.7004325,129.792436 C84.9784448,129.989095 83.7641928,130.349636 82.4843056,130.742954 C81.4669593,131.037942 80.4167954,131.332931 79.497902,131.595143 C75.0018879,132.906202 61.3497572,136.83938 59.9057819,138.838746 C59.6432409,139.199287 59.2494294,140.182582 59.0853413,141.001994 C58.9212532,141.886959 58.4946241,143.624112 58.0679951,144.869619 C57.5429131,146.606773 57.2475545,147.557291 55.9676673,147.557291 C54.8846858,147.557291 51.8326469,150.73661 50.6840302,153.850376 C50.355854,154.800894 49.6338663,156.177506 49.0759667,157.095248 C50.2902187,155.4892 52.1280055,153.325952 53.0797166,152.440987 C53.7032514,151.85101 54.950321,150.703833 55.8692144,149.884421 C56.8209254,148.999456 58.4946241,147.786726 59.5776057,147.09842 C60.5949519,146.475667 62.5968269,145.164607 63.975167,144.214089 C65.7473185,142.968583 67.2241115,142.280277 68.7993574,141.886959 C69.7510684,141.657523 70.4074208,141.493641 70.998138,141.493641 C71.6873081,141.493641 72.2780253,141.657523 73.1969187,141.952512 C74.8706174,142.476936 75.4941522,142.837477 76.0848694,143.984654 C77.5288447,146.705102 77.2991214,148.638915 75.2316112,151.162704 C74.4439883,152.113222 73.8532711,152.768752 73.2297363,153.227622 C74.2470826,152.768752 75.3300641,152.473763 76.0848694,152.473763 C77.3647566,152.473763 77.4303919,153.358728 77.4303919,153.522611 C77.4303919,154.047035 76.9381275,154.932 76.8396747,155.095882 C76.2489575,156.14473 76.380228,158.635742 76.9053099,159.324049 C77.2991214,159.848472 77.7257505,160.766214 77.8898386,161.45452 C77.9554738,161.782285 78.28365,162.372262 78.9071848,163.093344 C78.8415496,162.536144 79.0712729,161.880614 79.4650844,161.061202 C79.8260782,160.307343 80.5152483,158.996284 81.2700536,158.996284 C81.4341417,158.996284 81.8935884,158.996284 83.6329224,160.569555 C84.1908219,161.126755 84.4861805,161.356191 84.6502686,161.45452 C85.1753506,161.028426 86.2255145,160.930096 87.0131374,160.930096 C87.9320308,160.930096 88.7196537,160.79899 88.8837418,160.700661 C89.8354529,160.209014 92.2311392,159.520708 93.117215,159.520708 C93.4782089,159.520708 93.7407498,159.619037 93.8720203,159.848472 C94.0689261,160.110688 94.1673789,160.536779 93.642297,161.651179 C93.642297,161.651179 93.642297,161.683956 93.6094794,161.683956 C93.4125736,162.044497 93.1828503,162.962238 93.1500326,163.716098 L93.1500326,163.748874 C93.0843974,164.568286 92.8874917,165.223816 92.5593155,165.617134 C93.1828503,165.453251 93.6751146,165.256592 93.9376556,165.059933 C94.6268256,164.601063 95.2503604,164.338851 95.7754424,164.338851 C95.9395305,164.338851 96.1036186,164.371627 96.2677067,164.43718 C96.2677067,164.43718 96.2677067,164.43718 96.3005243,164.43718 C96.4646124,164.502733 97.1866001,164.633839 98.1054935,164.666616 C98.6305755,164.699392 99.1556574,164.764945 99.6151041,164.896051 C99.3525631,164.601063 99.0572046,164.306074 98.7946636,164.011086 C97.9414054,163.093344 96.759971,161.880614 97.5147763,161.028426 C97.6460468,160.79899 98.1054935,159.651813 98.761846,157.783554 C100.763721,151.687128 101.649797,151.687128 102.043608,151.687128 C103.192225,151.687128 104.012665,153.653717 104.045483,154.932 L104.045483,154.964776 C104.045483,156.931365 104.439295,157.029695 104.800288,157.128024 C106.178628,157.488566 107.983598,159.12739 107.983598,160.34012 C107.983598,160.995649 107.327245,162.241156 106.867799,162.929462 C106.080176,164.109415 105.456641,164.797722 104.537747,164.797722 C104.340842,164.797722 103.94703,165.027157 103.586036,165.518804 C103.12659,166.141557 102.732778,166.633205 102.174879,166.698758 C102.240514,166.797087 102.306149,166.928193 102.338967,167.026523 C102.929684,168.272029 102.306149,168.894782 100.468362,170.697489 C99.3853808,171.779113 98.1711288,172.991843 97.9085878,173.286831 C97.9085878,173.286831 97.9085878,173.286831 97.8757702,173.286831 C96.7927887,174.434008 93.7407498,176.859468 92.8218564,177.088903 C92.6577683,177.154456 92.0670511,177.67888 91.5419692,178.596622 C90.8856168,179.711022 90.4589877,180.432105 89.474459,180.432105 C89.2775533,180.432105 89.1134652,180.399328 88.9165595,180.366552 C88.7524713,180.333775 88.6212009,180.333775 88.522748,180.333775 C88.4242951,180.333775 88.3914775,180.333775 88.3914775,180.333775 C88.3914775,180.333775 88.3258423,180.366552 88.1945718,180.628764 C87.997666,181.087634 87.8992132,181.415399 87.8992132,181.513729 C87.8992132,181.644835 87.8992132,181.939823 86.8818669,184.463612 C86.094244,186.364648 85.2738034,187.544602 83.6329224,189.216203 C81.3356888,191.57611 81.2700536,191.57611 80.974695,191.57611 C80.9090598,191.57611 80.8106069,191.57611 79.2025434,191.182792 C77.0365804,190.691144 75.9207813,189.445638 75.0675231,186.528531 C74.640894,185.119142 74.5752588,184.2014 74.8377997,183.447541 C74.8377997,183.447541 74.8377997,183.414765 74.8377997,183.414765 C75.3956993,181.9726 77.6272976,178.727728 79.0384553,177.187233 C79.7276254,176.433374 80.4824307,175.548409 80.6793364,175.25342 C80.8434245,175.056761 81.0403302,174.827326 81.3028712,174.663443 C80.9418774,174.59789 80.6465188,174.368455 80.4824307,174.007914 C80.3511602,173.712925 80.3183426,173.319608 80.4167954,172.893513 C78.6774615,175.286197 75.6910579,178.23608 74.3127178,178.23608 C73.8860887,178.23608 73.7876359,178.268857 73.5579125,178.760504 C73.5579125,178.760504 73.5579125,178.793281 73.5250949,178.793281 C72.9343777,180.00601 71.3591318,180.792646 69.521345,180.792646 C68.9634455,180.792646 68.4383635,180.727093 67.9132816,180.595987 C66.9615705,180.366552 65.9442243,179.252151 65.2878718,177.777209 C65.2878718,177.777209 65.2878718,177.777209 65.2878718,177.744433 C65.1566013,177.416668 64.7627899,177.088903 64.6315194,177.056127 C62.6952797,176.597256 60.6934048,170.468053 60.6934048,167.452617 C60.6934048,166.469322 60.5293167,166.108781 60.1355052,165.74824 C58.9868885,164.666616 57.4116426,163.847204 56.5255668,163.847204 L55.4754029,163.847204 C55.3441325,163.847204 55.2456796,163.814427 55.1472267,163.748874 C55.1144091,164.043862 54.8846858,164.306074 54.5893272,164.338851 L53.3094399,164.53551 C52.8828108,164.601063 52.3249113,164.633839 51.8654646,164.633839 C51.4716531,164.633839 51.1762945,164.601063 50.9465712,164.568286 C50.8481183,164.53551 50.7496654,164.53551 50.6840302,164.53551 C50.5527597,164.53551 50.4543068,164.53551 50.1917659,164.896051 C49.6338663,165.64991 48.2883438,170.009183 48.0258028,172.074101 C47.9601676,172.729631 47.7960795,173.876808 47.664809,174.860102 L47.5335385,175.679514 L47.4679033,176.269491 C47.3038151,177.318339 47.139727,178.531069 47.1069094,179.186598 C46.8115508,181.907047 45.7613869,184.234177 44.3174116,185.250248 C43.759512,185.643566 42.9390715,186.430201 42.54526,186.987402 C42.1186309,187.642931 41.331008,188.364014 40.6746556,188.462343 C40.3136617,188.527896 37.7538872,189.085097 34.7018484,189.773403 C31.7810801,190.428933 28.5321355,190.953356 27.4819716,190.953356 C25.8082729,190.953356 25.3160086,190.82225 24.6596562,189.70785 C24.2986623,189.117873 24.0033037,188.134579 23.9048509,187.380719 C23.8720333,187.216837 23.8392156,186.921849 23.806398,186.790743 C23.7735804,186.790743 23.7079451,186.757966 23.6423099,186.757966 C23.7407628,186.889072 23.806398,187.020178 23.806398,187.184061 C23.8720333,187.708484 24.0361214,188.462343 24.2330271,189.085097 C24.2330271,189.085097 24.2330271,189.117873 24.2330271,189.117873 C24.5283857,190.166721 23.9376685,190.789474 23.0187751,191.57611 C21.0169002,193.280487 19.3103838,195.11597 16.9475151,198.033077 C14.5518287,201.048514 14.0595644,201.146843 13.9282939,201.146843 C13.8954763,201.146843 13.8954763,201.146843 13.8626586,201.146843 C13.6329353,201.212396 13.0094005,201.704043 12.8124947,202.031808 C12.8453124,202.228467 12.8124947,202.457902 12.7140419,202.654561 C12.1889599,203.670632 9.43227971,204.358939 7.72576338,204.391715 C3.72201354,204.522821 -1.49598831,206.849951 -2.51333458,208.488776 C-3.26813988,209.734282 -3.33377513,210.094823 -3.3009575,210.193153 C-3.3009575,210.193153 -3.26813988,210.291482 -2.77587556,210.488141 C-2.3820641,210.652024 -1.88979977,210.78313 -1.56162355,210.78313 C-1.46317069,210.78313 -1.43035307,210.78313 -1.43035307,210.78313 C-1.29908258,210.750353 -1.16781209,210.717577 -1.03654161,210.717577 C-0.248918687,210.717577 0.177710395,211.405883 0.505886612,212.126965 C0.801245208,212.782495 1.06378618,213.405248 0.702792343,213.929672 C0.308980882,214.519649 -0.544277282,214.585202 -1.85698215,214.585202 C-2.97278129,214.585202 -6.22172583,215.797932 -7.17343686,216.519014 C-7.10780162,216.551791 -7.074984,216.617344 -6.97653113,216.682897 L-6.15609059,217.30565 C-5.95918486,217.469532 -5.860732,217.698968 -5.89354962,217.96118 C-5.92636724,218.223392 -6.12327297,218.387274 -6.38581394,218.452827 L-7.27188973,218.682262 C-7.50161308,218.747815 -7.79697168,218.780592 -8.12514789,218.780592 C-8.68304746,218.780592 -9.37221752,218.715039 -9.96293471,218.551156 C-10.8490105,218.321721 -11.4069101,218.223392 -11.8663568,218.223392 C-13.2446969,218.223392 -14.2292255,219.07558 -17.0187234,221.959911 C-19.1846864,224.221488 -19.8082212,224.745912 -21.0881085,224.745912 C-21.7116433,224.745912 -22.6961719,224.811465 -23.2212539,224.877018 L-24.2714178,224.975347 C-24.3042354,224.975347 -24.3042354,224.975347 -24.337053,224.975347 C-24.5667764,224.975347 -24.7636821,224.877018 -24.8949526,224.680359 C-25.0262231,224.4837 -25.0262231,224.221488 -24.9277702,223.992053 L-24.4026883,223.074311 C-23.9104239,222.189346 -23.2868891,221.796028 -22.2039076,221.632146 C-21.5475552,221.533816 -20.9240204,221.337158 -20.8255675,221.238828 C-20.8255675,221.238828 -20.8255675,221.238828 -20.7927499,221.238828 C-20.5302089,220.976616 -20.3004855,219.73111 -20.431756,219.305016 C-20.7271146,219.108357 -21.1865613,218.583933 -20.6614794,217.666191 C-20.5302089,217.403979 -20.3004855,216.65012 -20.2020327,216.027367 C-20.2020327,216.027367 -20.2020327,215.994591 -20.2020327,215.994591 C-20.0379446,215.240731 -19.6441331,214.290213 -19.1190512,213.929672 C-18.0688873,213.208589 -17.2156291,211.471436 -17.2812643,210.652024 C-17.3468996,209.963717 -17.4125348,208.193787 -17.4453525,206.817175 C-17.4781701,204.227833 -17.3797172,203.801738 -16.2311005,201.73682 L-15.2137542,199.934113 L-15.6732009,198.918042 C-15.9685595,198.295289 -16.4936414,197.508653 -16.8218176,197.180888 C-17.4125348,196.656465 -17.9376168,195.7715 -17.6750758,195.11597 C-17.5438053,194.755429 -17.2156291,194.55877 -16.8218176,194.55877 C-16.5920943,194.55877 -16.2967357,194.55877 -14.1964079,196.722018 C-12.5227092,198.426395 -10.8490105,199.508019 -9.20812941,199.96689 C-9.14249417,199.999666 -9.07685892,199.999666 -8.97840606,199.999666 C-8.5845946,199.999666 -8.32205362,199.639125 -8.22360076,199.409689 C-7.86260692,198.688607 -7.79697168,197.475877 -8.45332411,196.558135 C-9.30658227,195.312629 -12.8508854,191.510557 -13.671326,190.887803 C-13.8682317,190.756697 -14.885578,190.428933 -16.1326476,190.297827 C-17.3797172,190.166721 -19.217504,189.773403 -20.2020327,189.511191 C-21.4491023,189.15065 -23.385342,189.019544 -26.6671041,189.019544 C-31.1631183,189.019544 -31.8522884,189.019544 -32.5086408,188.069026 C-32.6727289,187.83959 -33.5588047,187.184061 -34.4776981,186.692413 C-35.9216735,185.938554 -36.5452083,185.446907 -36.6108435,184.365283 C-36.6436611,184.103071 -36.9390197,183.414765 -37.3984664,182.923118 C-38.0220013,182.300364 -38.3829951,181.87427 -38.2517246,181.349846 C-38.1532717,180.890976 -37.7266427,180.727093 -37.5625546,180.66154 C-37.4969193,180.628764 -37.4641017,180.628764 -37.4641017,180.628764 C-37.4641017,180.628764 -37.3984664,180.366552 -37.9891836,179.514363 C-38.3501775,178.989939 -38.9737123,177.908315 -39.3675237,177.02335 C-39.8597881,175.90895 -39.9254233,175.876173 -40.7786815,175.777844 C-42.0913863,175.581185 -45.7013247,173.876808 -46.718671,172.92629 C-47.1781177,172.500195 -47.4078411,171.549677 -47.4406587,170.795818 C-47.4734763,170.173065 -47.6375644,169.222547 -47.7360173,168.7309 L-47.8672878,168.304805 L-50.0004332,168.435911 C-50.6567856,168.468688 -51.1818676,168.501464 -51.6084966,168.501464 C-52.8883839,168.501464 -53.5447363,168.239252 -54.8902588,167.583723 L-56.4655046,166.797087 L-57.4828509,167.452617 C-57.646939,167.550946 -57.9422976,167.747605 -58.1392034,167.878711 C-57.9751152,168.042594 -57.7782095,168.337582 -57.8110271,168.7309 C-57.8766624,169.320876 -58.4345619,169.746971 -60.0098078,170.730265 C-61.2568774,171.549677 -62.7008528,172.729631 -63.2587523,173.319608 C-64.0791929,174.204573 -64.6042748,174.69622 -65.9826149,174.69622 C-66.8030555,174.69622 -67.9188546,174.532338 -70.052,174.171796 C-71.2990697,173.942361 -73.3993974,173.745702 -74.7449199,173.712925 C-76.5498891,173.647372 -79.1424812,173.057396 -79.6675632,171.942995 C-79.7331984,171.942995 -79.8316513,171.910219 -79.9629218,171.910219 C-80.8818152,171.910219 -81.9319791,171.090807 -82.4898786,170.566383 C-83.0805958,170.009183 -83.3103192,169.812524 -83.671313,169.714194 C-84.1307597,169.583088 -84.885565,169.583088 -86.2967228,169.583088 C-88.7580444,169.583088 -89.742573,169.419206 -90.2348374,168.927559 C-90.3332902,168.829229 -90.9240074,168.567017 -91.6131775,168.435911 C-93.8447758,168.042594 -94.1401343,167.41984 -94.3698577,164.99438 C-94.5339458,163.290003 -94.5667634,163.290003 -95.2887511,162.962238 C-96.076374,162.568921 -96.4373679,162.273932 -96.5686384,161.716732 C-96.601456,162.01172 -96.6342736,162.273932 -96.6342736,162.437815 L-96.8311793,164.011086 C-96.8639969,164.338851 -97.1593555,164.601063 -97.4875318,164.601063 L-97.5203494,164.601063 L-100.834929,164.502733 C-102.574263,164.469957 -105.23249,164.338851 -107.332818,164.207745 C-109.006517,164.109415 -111.270933,163.912756 -112.288279,163.781651 C-115.17623,163.421109 -116.259211,163.290003 -118.195451,163.093344 C-118.195451,163.093344 -118.195451,163.093344 -118.228269,163.093344 C-118.753351,163.027791 -119.31125,162.962238 -119.803515,162.896685 C-120.262961,162.831133 -120.623955,162.798356 -120.853678,162.76558 C-121.608484,162.66725 -124.102623,162.372262 -127.876649,161.978944 L-129.845707,161.782285 C-130.173883,161.749509 -130.436424,161.45452 -130.436424,161.126755 L-130.403606,160.176237 C-130.534877,160.962873 -130.797418,161.749509 -131.552223,161.749509 C-131.781946,161.749509 -132.01167,161.651179 -132.241393,161.487297 C-132.569569,161.421744 -133.488463,161.323414 -134.735532,161.192308 L-135.687243,161.093979 C-136.83586,160.995649 -137.853206,160.89732 -138.2142,160.831767 C-138.640829,160.766214 -139.953534,160.602332 -141.134969,160.504002 C-142.349221,160.405673 -143.661925,160.24179 -144.121372,160.176237 C-144.548001,160.110688 -145.860706,159.946802 -147.042141,159.848472 C-148.354845,159.750143 -153.310306,158.734072 -157.314056,157.81633 C-160.43173,157.095248 -163.254046,156.472494 -164.763656,156.14473 C-165.452826,155.980847 -165.748185,155.915294 -165.846638,155.915294 C-166.437355,155.784188 -166.896802,155.685859 -167.389066,155.554753 C-168.143871,155.39087 -168.931494,155.226988 -170.080111,154.964776 C-170.539558,154.866447 -171.031822,154.735341 -171.458451,154.669788 C-172.114803,154.538682 -172.639885,154.407576 -172.836791,154.374799 C-173.033697,154.342023 -173.493144,154.243694 -174.083861,154.112588 C-174.674578,153.981482 -175.363748,153.817599 -176.052918,153.686493 C-177.857887,153.293175 -178.547057,153.06374 -178.842416,152.539316 C-178.875234,152.473763 -178.908051,152.40821 -178.940869,152.309881 C-179.039322,152.572093 -179.236227,152.899858 -179.662856,152.899858 C-179.859762,152.899858 -179.991033,152.834305 -180.056668,152.768752 C-180.056668,152.768752 -180.089486,152.768752 -180.089486,152.735975 C-180.352027,152.637646 -181.40219,152.375434 -182.550807,152.047669 C-183.20716,151.883787 -183.929147,151.687128 -184.651135,151.490469 C-186.193563,151.097151 -187.571903,150.73661 -188.818973,150.408845 C-194.693327,148.86835 -197.646913,148.081714 -199.222159,147.491738 C-200.337958,147.065643 -200.830222,146.705102 -201.158399,146.246231 C-201.158399,146.279008 -201.191216,146.311784 -201.191216,146.344561 C-201.322487,146.606773 -201.617845,146.770655 -201.946022,146.770655 C-202.077292,146.770655 -202.208563,146.737879 -202.405468,146.705102 C-202.405468,146.705102 -202.405468,146.705102 -202.438286,146.705102 C-202.602374,146.639549 -204.604249,146.016796 -207.131206,145.23016 C-209.428439,144.509078 -212.250755,143.624112 -214.712076,142.870253 C-216.517046,142.313053 -235.715354,135.135003 -243.624401,132.021237 C-244.871471,131.52959 -246.479534,130.939613 -247.070251,130.710178 C-248.61268,130.152977 -248.973673,129.563001 -248.973673,127.79307 C-248.973673,126.973658 -249.203397,126.67867 -249.43312,126.482011 C-251.566266,124.712081 -252.255436,123.859892 -252.255436,123.007704 C-252.255436,122.974927 -252.255436,122.942151 -252.255436,122.909374 C-253.043059,122.679939 -253.797864,121.696644 -254.257311,120.61502 C-254.093222,121.794974 -253.765046,122.319397 -252.649247,123.827116 C-250.68019,126.416458 -250.450466,126.908105 -250.155108,129.595777 C-250.023837,130.677401 -249.728479,132.021237 -249.498755,132.611214 C-249.498755,132.611214 -249.498755,132.64399 -249.498755,132.64399 C-249.039309,134.020602 -249.137762,134.51225 -249.465938,134.774462 C-249.728479,135.036674 -250.187925,135.135003 -250.877096,135.135003 C-251.992895,135.135003 -253.699411,134.807238 -254.585487,134.250038 C-256.718632,132.873426 -260.131665,128.612483 -260.131665,126.842552 C-260.131665,126.350905 -260.131665,126.318129 -260.656747,126.12147 C-261.838181,125.695375 -262.724257,124.285987 -263.249339,121.991633 C-263.249339,121.991633 -263.249339,121.958856 -263.249339,121.958856 C-263.314974,121.499985 -263.741603,120.61502 -264.102597,120.090597 C-264.102597,120.090597 -264.102597,120.090597 -264.102597,120.05782 C-264.529226,119.40229 -265.119943,118.18956 -265.480937,117.337372 C-265.776296,116.616289 -266.596736,115.010241 -267.351542,113.731959 C-268.237617,112.191464 -268.926787,110.487087 -269.156511,109.274357 C-269.386234,108.159956 -269.780046,106.81612 -269.976951,106.291696 C-270.469216,105.078967 -270.436398,104.652872 -269.254964,103.669578 C-268.828335,103.309036 -267.876624,102.686283 -267.220271,102.686283 C-266.596736,102.686283 -265.546572,103.145154 -260.952105,108.454944 C-260.492659,108.979368 -260.033212,109.503792 -259.672218,109.929886 C-259.672218,109.700451 -259.639401,109.405463 -259.606583,109.077698 C-259.540948,108.651603 -259.540948,108.389392 -259.540948,108.225509 C-259.869124,108.159956 -260.230118,107.996074 -260.427023,107.701085 C-260.591112,107.569979 -261.149011,107.176662 -261.903816,106.750567 C-263.150886,106.029485 -263.807238,105.373955 -263.807238,104.882308 C-263.807238,104.751202 -263.872874,104.423437 -263.905691,104.194001 C-263.905691,104.128449 -263.938509,104.030119 -263.938509,103.964566 C-264.135415,103.014048 -264.135415,102.391295 -264.102597,98.8514345 C-264.069779,95.8687744 -264.036962,95.508233 -262.82271,94.492162 C-262.625804,94.3282796 -262.26481,94.0005147 -262.231993,93.9021853 C-262.231993,93.8694088 -262.231993,93.7383029 -262.396081,93.3449851 C-262.625804,92.7222318 -262.789892,91.6078314 -262.789892,90.7884193 C-262.789892,89.9690071 -263.052433,89.3462539 -263.971327,87.9696416 C-265.087126,86.3963703 -265.415302,85.7080641 -265.218396,84.4625577 C-265.087126,83.6759221 -264.627679,82.790957 -264.135415,82.3976392 C-263.774421,82.1026508 -263.64315,82.0043214 -264.75895,79.8082969 C-265.382484,78.5627905 -265.480937,77.7106019 -265.480937,73.9413061 C-265.480937,69.8770221 -265.480937,69.4509278 -264.430773,68.4020802 C-263.905691,67.8776565 -262.691439,67.1565738 -261.608458,66.763256 C-259.37686,65.9110674 -257.801614,64.4033491 -257.801614,63.583937 C-257.801614,62.1089952 -257.046808,60.4373945 -255.701286,58.9624527 C-254.946481,58.1102641 -254.848028,57.9791581 -254.848028,56.2420044 C-254.848028,54.5376272 -254.913663,54.4720743 -255.602833,53.8493211 C-256.817085,52.7676971 -258.851778,48.9328484 -259.442495,46.6712709 C-259.803489,45.2618821 -259.737853,44.4752465 -258.917413,41.197598 C-258.162608,38.0510555 -258.096972,37.4610787 -258.392331,35.920584 C-258.589237,34.83896 -258.81896,32.544606 -258.95023,30.8402288 C-259.048683,29.1358516 -259.212771,27.4642509 -259.278407,27.1037096 C-259.311224,27.0053801 -259.311224,26.8414977 -259.344042,26.6776153 C-259.409677,26.2187445 -259.540948,25.6287678 -259.606583,25.104344 C-259.705036,24.4815908 -260.1973,22.1872369 -260.7552,19.7945535 C-261.280282,17.4674231 -261.805364,15.3369516 -261.903816,14.9764103 C-261.903816,14.9764103 -261.903816,14.9764103 -261.903816,14.9436338 C-261.936634,14.7797514 -262.231993,14.4519865 -262.888345,14.1569982 C-263.708786,13.8292333 -264.496409,13.5014685 -264.824585,13.5014685 C-264.923038,13.5014685 -264.988673,13.5014685 -265.316849,13.9931157 C-265.841931,14.8780808 -266.629554,15.4025046 -268.237617,15.9924813 C-269.287781,16.3530226 -270.764574,16.9429994 -271.453744,17.3035407 C-271.453744,17.3035407 -271.453744,17.3035407 -271.486562,17.3035407 C-271.749103,17.4346466 -272.011644,17.5329761 -272.20855,17.6313055 C-272.864902,17.9262939 -272.963355,17.9918469 -273.127443,17.9918469 C-273.324349,17.9918469 -273.521255,17.8935174 -273.652525,17.729635 C-273.882248,17.4346466 -273.816613,17.2379877 -273.58689,16.0908108 C-273.58689,16.0908108 -273.58689,16.0580343 -273.58689,16.0580343 C-273.160261,14.5175395 -273.488437,10.8137967 -273.980701,10.0599376 C-274.669871,9.04386655 -274.735507,6.61840669 -274.243242,5.70066512 C-273.980701,5.17624136 -273.58689,5.11068839 -273.357166,5.11068839 C-273.291531,5.11068839 -273.258714,5.11068839 -273.193078,5.11068839 C-273.160261,5.11068839 -273.160261,5.11068839 -273.127443,5.11068839 C-272.569543,5.27457082 -265.645025,9.76494921 -265.57939,9.7977257 C-255.012116,16.6807875 -243.821307,23.4982963 -238.373582,26.3498504 C-235.846625,27.6609098 -233.319668,29.0047457 -233.057127,29.1686281 C-232.236686,29.7258284 -222.227312,34.8061835 -218.38765,36.5761137 C-215.959146,37.6905141 -210.872415,39.7882091 -207.098388,41.2303745 C-199.812876,44.0819286 -199.714423,44.1802581 -199.550335,44.311364 C-199.353429,44.5080229 -199.287794,44.7374583 -199.287794,44.9996702 C-199.189341,44.7374583 -198.9268,44.5735759 -198.664259,44.5735759 C-198.598624,44.5735759 -198.532989,44.5735759 -198.467354,44.6063524 L-191.214659,47.0318123 C-187.243727,48.3756481 -181.205285,50.2439077 -177.759434,51.2599788 C-175.790377,51.817179 -172.935244,52.6693676 -170.178564,53.4887797 C-168.078236,54.1115329 -166.010726,54.7015097 -164.337027,55.1931569 C-157.018698,57.2908519 -156.887427,57.4219579 -156.756157,57.5530638 C-156.559251,57.7497227 -156.526433,58.0119346 -156.526433,58.2085935 C-156.329527,57.8808287 -156.034169,57.6841698 -155.640357,57.6841698 C-155.541905,57.6841698 -155.410634,57.7169462 -155.312181,57.7169462 C-154.819917,57.8480522 -152.555501,58.3396995 -150.389538,58.7330173 C-150.389538,58.7330173 -150.35672,58.7330173 -150.35672,58.7330173 C-150.192632,58.7657938 -149.962909,58.7985702 -149.733185,58.8641232 C-149.405009,58.9296762 -149.142468,58.9624527 -148.912745,59.0280056 C-147.534405,59.322994 -134.177633,61.9123363 -133.39001,62.0434422 C-132.996198,62.1089952 -131.552223,62.3712071 -129.714436,62.7317484 L-128.598637,62.9611838 C-126.170133,63.4528311 -124.036988,63.8133724 -123.413453,63.8789254 C-122.232019,64.0100313 -121.739754,64.1739137 -121.608484,64.9277729 L-121.575666,64.665561 C-121.542848,64.3377961 -121.24749,64.0755843 -120.919314,64.0755843 C-120.886496,64.0755843 -120.886496,64.0755843 -120.853678,64.0755843 L-119.376885,64.2066902 C-119.376885,64.2066902 -119.344068,64.2066902 -119.344068,64.2066902 C-118.556445,64.3377961 -117.014017,64.5016786 -115.8654,64.600008 C-114.716783,64.6983375 -112.485185,64.9605494 -111.238115,65.0916553 C-110.023863,65.2227612 -107.792265,65.4849731 -106.676466,65.5833026 C-105.626302,65.681632 -104.379232,65.812738 -103.952603,65.8782909 C-103.624427,65.9438439 -102.278905,66.1077263 -101.064653,66.2388323 C-99.981671,66.3371617 -98.8986895,66.5010441 -98.4720604,66.5338206 L-98.3079723,66.5665971 C-98.2751547,66.5665971 -98.2423371,66.5665971 -98.2423371,66.5993736 C-98.1110666,66.6321501 -97.3234437,66.7304795 -96.6670912,66.7960325 C-96.2732798,66.828809 -95.8138331,66.8943619 -95.387204,66.9599149 C-94.9277573,67.0254679 -94.4683106,67.0582444 -94.0744991,67.1237973 C-93.0243352,67.2549033 -92.7289766,67.2876798 -92.5977061,67.3204562 C-92.4008004,67.3532327 -91.3506365,67.3860092 -90.7271017,67.4187857 L-88.9877677,67.4515622 C-88.790862,67.4515622 -88.6267739,67.5498916 -88.4955034,67.6809976 C-88.3642329,67.8121035 -88.2985977,68.0087624 -88.3314153,68.2054213 L-88.5939563,70.4342223 C-89.1190382,74.6951653 -88.8893149,76.5306484 -88.6924091,76.9239662 C-88.528321,77.2845076 -87.1827985,77.5794959 -85.9357289,77.8417078 C-82.4898786,78.5627905 -81.2099914,79.2838731 -80.8818152,81.8076625 C-80.6520918,83.6103691 -80.4551861,84.5281107 -79.7988337,87.6418767 C-78.8799403,92.0339257 -78.7814874,92.6239024 -79.1096636,93.5088675 C-79.1096636,93.541644 -79.1424812,93.5744204 -79.1424812,93.5744204 C-79.0440284,93.5744204 -78.9127579,93.6071969 -78.6830345,93.6071969 C-77.4359649,93.6071969 -75.5981781,93.3122086 -75.171549,93.1155497 C-74.9746433,92.8861143 -74.4167437,92.5583494 -72.480504,92.4927965 C-72.3164159,92.4927965 -72.1195102,92.4927965 -71.9882397,92.4927965 C-70.7411701,92.4927965 -70.0191824,92.6239024 -69.5597357,93.2794321 C-69.3300123,93.6071969 -68.837748,93.8038558 -66.7046026,94.1316207 C-66.671785,94.1316207 -62.9305761,94.7543739 -62.9305761,96.0982098 L-62.9305761,96.1309863 C-62.7993056,95.9998803 -62.6352175,95.9015509 -62.4383118,95.9015509 C-62.3398589,95.9015509 -62.2085884,95.9343273 -62.1101356,95.9998803 L-61.0271541,96.6226335 C-60.075443,97.1470573 -57.3843981,99.3103053 -57.1546747,100.391929 C-57.0890395,100.523035 -56.7936809,100.916353 -56.2357813,101.473553 C-55.5466112,102.161859 -54.8902588,102.456848 -53.5119187,102.71906 C-52.0023081,103.014048 -50.9849618,103.472919 -50.2301565,104.194001 C-49.409716,104.947861 -48.7533635,105.210072 -47.3750234,105.275625 C-46.5874005,105.308402 -44.9793371,106.619461 -44.4870727,107.045556 L-42.8790093,108.454944 L-36.9718374,108.651603 C-31.5897474,108.815486 -30.5067659,108.946592 -29.1612434,109.602121 L-27.8157209,110.290428 C-27.5859976,110.421534 -27.4219094,110.650969 -27.4547271,110.913181 L-27.6844504,113.764735 C-27.8813562,115.993536 -28.0782619,116.780172 -28.24235,117.07516 C-28.2095324,117.173489 -28.1438971,117.435701 -27.9469914,117.796243 C-27.5859976,118.386219 -27.1593685,119.598949 -27.028098,120.516691 C-26.6671041,123.13881 -26.6014689,123.302692 -26.3717456,123.827116 C-26.1092046,124.35154 -26.0435693,125.46594 -26.1092046,126.285352 C-26.2076574,127.3342 -26.076387,127.760294 -25.3215817,128.940247 C-24.074512,130.87406 -20.7271146,134.872791 -20.0379446,135.429991 C-18.7252397,135.757756 -16.7233648,138.740416 -16.1654652,140.280911 L-15.7060185,141.657523 L-14.1964079,141.526417 L-12.1617154,141.362535 L-12.0960801,141.362535 C-11.8663568,141.362535 -11.669451,141.493641 -11.5381805,141.6903 C-11.6366334,140.969217 -11.7022687,140.510346 -11.7350863,140.412017 C-11.8335391,140.018699 -11.8991744,139.559828 -11.6366334,139.199287 C-11.3740924,138.805969 -10.9146457,138.70764 -10.3567462,138.60931 C-10.1926581,138.576534 -10.0613876,138.543757 -9.99575233,138.510981 C-9.99575233,138.445428 -10.02857,138.314322 -10.0613876,138.15044 C-10.2582933,137.167145 -10.0942052,136.446062 -9.27376465,135.298885 C-8.78150033,134.545026 -8.45332411,133.692838 -8.45332411,133.463402 C-8.45332411,133.20119 -8.91277081,131.824578 -9.73321136,130.152977 C-10.4880167,128.579706 -11.242822,126.711446 -11.4397277,125.924811 C-11.6366334,125.236505 -11.9976273,124.384316 -12.2601682,124.056551 C-12.7196149,123.433798 -12.9165207,122.548833 -12.883703,121.237773 C-12.883703,121.237773 -12.883703,121.237773 -12.883703,121.204997 C-12.8180678,119.795608 -13.5400555,118.124007 -14.5245841,117.599584 C-15.1153013,117.271819 -15.4762952,116.550736 -15.4762952,115.829654 C-15.4762952,115.534665 -15.7060185,114.911912 -16.0013771,114.518594 C-16.1982828,114.289159 -16.789,113.469747 -16.789,112.978099 C-16.789,111.765369 -13.408785,109.602121 -13.0477911,109.372686 C-12.194533,108.848262 -11.0459162,107.864968 -10.5208343,107.242215 C-9.96293471,106.586685 -8.84713557,105.308402 -8.02669503,104.357884 C-7.074984,103.309036 -6.22172583,101.899648 -5.49973816,100.031388 C-4.41675664,97.4092692 -4.38393902,96.9503984 -4.41675664,94.5904915 C-4.44957426,92.6566789 -4.67929761,91.2800665 -5.33565005,89.3134774 C-5.82791437,87.8057592 -6.3201787,86.1997114 -6.45144919,85.7080641 C-6.45144919,85.7080641 -6.45144919,85.6752876 -6.45144919,85.6752876 C-6.71399016,84.4953342 -9.40503514,81.4471211 -11.5053629,80.2999442 C-13.7697788,79.0872142 -16.2967357,76.9895192 -16.4608238,75.219589 C-16.4936414,74.5640594 -16.2639181,73.4168824 -15.9029242,72.6630232 C-15.6075656,72.0074936 -15.3450247,71.2536344 -15.2793894,71.024199 C-15.1809366,70.4342223 -14.5245841,69.8114691 -14.3276784,69.6148102 C-14.3276784,69.6148102 -14.3276784,69.5820337 -14.2948608,69.5820337 C-13.9995022,69.3525983 -13.8354141,69.1559394 -13.8354141,68.0087624 C-13.8354141,66.7304795 -13.5728731,65.9110674 -13.0149735,65.2883142 C-12.8180678,65.0588788 -12.7196149,64.9605494 -12.7196149,64.8949964 C-12.6867973,64.731114 -12.883703,64.2066902 -13.0149735,63.9117018 C-13.2775145,63.1578427 -13.5400555,62.1745482 -13.671326,61.6501244 C-13.8354141,60.7323828 -14.6558546,59.1263351 -15.574748,57.9136052 C-16.3951886,56.8319812 -16.4608238,56.209228 -16.4608238,52.83325 C-16.4608238,50.0144724 -16.6249119,49.1950602 -16.7561824,48.9984013 C-17.1499939,48.572307 -17.8063463,47.1629182 -18.2329754,46.0485177 L-19.1518688,43.7869403 C-19.217504,43.6230579 -19.217504,43.4263989 -19.1190512,43.22974 L-18.265793,41.5253628 C-17.3797172,39.7554327 -17.1171762,39.4604443 -15.3778423,39.2310089 C-14.360496,39.099903 -13.3759674,39.03435 -12.5227092,39.03435 C-11.1443691,39.03435 -9.99575233,39.1982324 -9.10967654,39.5259973 C-7.99387741,39.9193151 -6.48426681,40.181527 -5.27001481,40.181527 C-4.51520951,40.181527 -4.15421567,40.0831975 -4.02294518,40.050421 C-3.62913372,39.8865386 -2.74305794,39.2310089 -2.05388788,38.5427027 C-1.6272588,38.1166084 -0.51145966,37.0677609 0.0464399087,37.0677609 C0.965333316,37.0677609 7.82421625,40.8370567 9.43227971,41.9186806 C11.0731608,42.9675282 11.7295132,43.5902814 11.6310604,44.6391289 C11.5982427,44.9013408 11.7623309,45.4913175 12.0248718,45.9174118 C12.3202304,46.3762826 12.4186833,46.5073885 15.5035397,46.8679298 C17.2756913,47.0973652 19.6057424,47.490683 20.5902711,47.8184479 L22.1983346,48.3428716 C22.4936931,48.4412011 22.6905989,48.7361895 22.6577813,49.0311778 L22.4280579,50.8338845 C22.1983346,52.4399322 22.4280579,53.4560032 23.9376685,57.6841698 C24.1345742,58.2741465 24.2986623,59.1591116 24.2986623,59.7818648 L24.2986623,59.8146413 C24.2658447,60.1424061 24.5283857,60.6340534 24.8893795,61.0601477 C25.4144615,61.5845714 26.1036315,62.6334189 26.497443,63.5511605 L26.9568897,64.600008 L28.0726888,64.4689021 C28.4993179,64.4033491 28.7946765,64.3705726 29.0900351,64.3705726 C30.140199,64.3705726 30.6980986,64.8622199 31.9451682,65.8782909 C32.8968792,66.697703 33.9798607,67.3532327 34.308037,67.4515622 C34.6690308,67.5498916 35.1612951,67.7465505 35.4566537,68.0743154 C35.6863771,67.910433 36.0473709,67.6154446 36.6709057,67.0254679 C37.6554344,66.0749498 38.0164282,65.4849731 38.1476987,64.6327845 C38.2789692,63.7805959 38.5743278,62.8628543 39.4932212,62.4695365 C39.6901269,62.4039836 40.0511208,61.9451128 40.3136617,61.1257007 C40.8059261,59.6179824 40.7074732,56.4386633 40.2480265,55.6520277 C40.1495736,55.4881453 39.7557622,54.6687332 39.9526679,54.1115329 C39.9854855,53.980427 40.0839384,53.4232268 40.1823912,52.964356 C40.2480265,52.7021441 40.2808441,52.4071557 40.3464793,52.1121674 C40.6090203,50.6044491 41.3638256,49.0639543 42.4468071,49.0639543 C42.6108952,49.0639543 42.807801,49.0967308 42.9718891,49.1950602 C43.0047067,49.1950602 43.0375243,49.2278367 43.0703419,49.2606132 C42.54526,47.1956947 42.7093481,47.0645887 42.9390715,46.8351533 C43.0703419,46.7040474 43.2672477,46.6384944 43.4641534,46.6384944 C43.6610591,46.6384944 44.1861411,46.6384944 46.3521041,48.6050835 C47.3694504,49.4900486 48.6821553,50.801108 49.4041429,51.7844025 C50.093313,52.7349206 50.7496654,53.3248973 50.9465712,53.4560032 C51.6029236,53.5215562 52.2920936,54.2426389 52.6202699,54.6687332 C52.6202699,54.6687332 52.6202699,54.6687332 52.6530875,54.7015097 C52.9484461,55.127604 53.7032514,55.8486866 54.2283333,56.143675 C55.0815915,56.6680987 55.7707615,57.5858403 56.2958435,58.7657938 C56.6896549,59.6835353 56.9850135,59.9457472 57.0506488,60.0113002 C57.7726365,60.0768531 58.4946241,60.9618182 58.7899827,61.420689 C59.2494294,62.1089952 59.544788,62.3056541 60.3980462,62.43676 C61.7763863,62.6661954 62.235833,63.0267368 62.9250031,64.3705726 C63.3188145,65.1244318 63.8110789,66.4027147 63.9095317,67.2876798 C63.975167,67.7137741 64.0079846,67.9759859 64.1064375,68.0743154 C64.2377079,68.2054213 64.6315194,68.3365273 65.1566013,68.4676332 C66.0098595,68.6970686 67.092841,69.1887159 67.5522877,69.7131396 C68.3399107,70.5653282 68.2086402,71.0569755 67.7491935,72.5646938 C67.3881996,73.8429767 67.4210172,74.0396356 67.6507406,74.4657299 C67.9132816,74.9573772 68.2414578,75.7767893 68.3399107,76.2356601 C68.4383635,76.5962014 68.832175,76.8256368 71.6216728,77.8417078 C73.5907301,78.530014 75.2644288,79.0216613 75.5597874,79.0544378 C76.3474103,79.0544378 77.5288447,80.2343912 77.8570209,80.5949325 L78.9071848,81.7421095 L81.5654122,81.8732154 C83.1734757,81.9387684 85.142533,82.2337568 85.9301559,82.5287451 C86.2911497,82.6598511 86.6193259,82.7581805 86.8818669,82.7581805 C87.3413136,82.7581805 87.7679427,82.5287451 88.3258423,82.0043214 C88.5883832,81.7421095 88.9493771,81.6110036 89.3760062,81.6110036 C89.8354529,81.6110036 90.4918053,81.7421095 91.7388749,82.1026508 C94.3642847,82.8237335 94.6268256,83.1514983 94.7252785,83.3481572 C94.9878195,83.7742515 95.0534547,84.3314518 94.856549,84.888652 C94.6924609,85.4458523 94.331467,85.9374995 93.8392027,86.2652644 C94.0689261,86.2324879 94.2658318,86.1997114 94.5283728,86.1997114 C95.7426248,86.1997114 96.2677067,86.4946998 97.0553296,87.5763238 C97.3506882,88.0024181 97.547594,88.2318535 97.6460468,88.2318535 C97.7116821,88.2318535 97.8101349,88.199077 97.9414054,88.1663005 C98.5977579,88.0024181 99.2869279,87.9040886 99.9432803,87.9040886 C100.993444,87.9040886 101.912338,88.133524 102.503055,88.5923948 C102.864049,88.8873831 104.045483,89.6412423 105.161282,90.231219 C105.88327,90.6245368 106.57244,91.0178546 106.933434,91.2145136 C107.097522,91.312843 107.195975,91.3456195 107.228792,91.378396 C107.852327,91.7061608 107.589786,92.3616905 107.228792,93.1483261 C106.802163,94.0988442 107.39288,95.8032214 108.607132,97.0159513 C109.624479,98.0320224 111.26536,100.555812 111.26536,101.604659 C111.26536,102.194636 110.182378,103.964566 109.132214,105.406731 C109.165032,105.373955 109.19785,105.341178 109.263485,105.308402 C110.215196,104.587319 110.773095,104.226778 111.298177,104.226778 C111.593536,104.226778 111.888895,104.325107 112.151436,104.554543 C113.628229,105.800049 113.857952,107.340544 113.726681,111.273722 C113.693864,111.929252 113.595411,115.043018 113.33287,115.698548 C113.300052,115.829654 113.168782,116.41963 113.037511,117.534031 C113.135964,117.402925 113.168782,117.337372 113.2016,117.304595 C113.267235,116.97683 113.562593,116.354077 114.973751,116.354077 C115.498833,116.354077 116.023915,116.452407 116.516179,116.616289 C118.091425,117.173489 118.222696,117.599584 118.091425,119.435067 L118.058608,119.828385 L119.010319,119.828385 C119.732306,119.828385 120.257388,119.730055 120.421476,119.697279 C120.815288,119.336737 121.701364,119.041749 122.423351,118.84509 C123.210974,118.648431 124.589314,118.124007 125.541025,117.697913 C126.459919,117.271819 127.378812,117.042383 128.23207,117.042383 C129.052511,117.042383 129.840134,117.239042 130.594939,117.63236 C131.054386,117.861796 131.41538,118.386219 131.612285,119.107302 C131.809191,119.795608 131.842009,120.811679 131.382562,121.499985 C131.316927,121.598315 131.316927,121.631091 131.284109,121.663868 C131.316927,121.696644 131.382562,121.794974 131.54665,121.92608 C131.54665,121.92608 131.54665,121.92608 131.579468,121.92608 C131.842009,122.188292 131.973279,122.253845 132.268638,122.253845 C132.498361,122.253845 132.79372,122.221068 133.285984,122.122739 C134.040789,121.991633 134.500236,121.958856 134.86123,121.958856 C136.272388,121.958856 136.469293,122.876598 136.469293,123.663233 C136.469293,124.744857 135.747306,126.088693 134.565871,127.170317 C134.762777,127.498082 134.86123,127.989729 134.86123,128.4486 C134.86123,128.710812 134.894047,128.973024 134.894047,129.202459 C135.090953,128.874694 135.353494,128.54693 135.5504,128.284718 C136.633381,127.006435 137.125646,127.006435 137.289734,127.006435 C138.077357,127.006435 138.569621,128.120835 138.766527,128.776365 C138.930615,129.333565 139.061885,129.497448 139.094703,129.563001 C139.193156,129.530224 139.422879,129.464671 140.013596,129.038577 C140.210502,128.907471 140.899672,128.415824 141.490389,128.415824 C141.785748,128.415824 141.982654,128.54693 142.081107,128.645259 C142.474918,129.038577 142.573371,130.611848 142.606189,131.52959 C142.278012,132.906202 142.343648,134.41392 142.376465,135.102226 Z" id="Path" fill="#FFDBD0" fill-rule="nonzero" mask="url(#mask-2)"></path>
                <path d="M85.3722563,133.779331 C88.3914775,134.828179 88.8509242,134.959285 88.8509242,136.499779 C88.8509242,138.400815 87.997666,138.466368 84.4861805,138.761357 C82.0248589,138.958016 80.6137012,139.056345 79.7276254,139.056345 C79.3009963,139.056345 78.9400025,139.023569 78.5790086,138.990792 C77.9882914,138.892463 77.1678509,138.531921 76.6755866,138.204157 C76.6755866,138.204157 76.6427689,138.204157 76.6427689,138.17138 C76.3145927,137.941945 75.2644288,137.548627 74.2142649,137.286415 C73.1969187,137.089756 71.8185785,136.663662 71.5560376,135.647591 C71.3919495,134.992061 71.7201257,134.336531 72.5405662,133.615449 C73.4922773,132.828813 74.3455354,132.664931 76.0192341,132.632154 C76.7084042,132.599378 77.331939,132.599378 77.8570209,132.599378 C81.0403302,132.632154 82.6483937,132.894366 85.3722563,133.779331 Z" id="Path" fill="#FFFFFF" fill-rule="nonzero" mask="url(#mask-2)"></path>
                <path d="M72.1166901,182.605655 C72.1166901,182.605655 72.0839425,182.605655 72.1166901,182.605655 C71.0687654,184.574423 69.2348971,186.215062 67.5320194,186.707254 C66.6150852,186.969757 65.5671605,187.757264 63.5040586,189.726031 C61.8994239,191.268233 59.8690697,193.072936 58.9848832,193.729192 C58.2316873,194.319822 57.0200243,195.46827 56.3650713,196.28859 C55.6118754,197.207348 54.4657077,198.585485 53.7780071,199.405805 C53.2867924,199.996435 52.4681012,200.948006 52.3698583,201.046445 C52.3371106,201.079258 52.2716153,201.11207 52.2388677,201.144883 C52.4353535,201.538637 52.5335965,201.998016 52.5335965,202.391769 C52.5335965,202.687084 52.5008488,202.949587 52.4353535,203.146464 C52.9920636,203.212089 53.5160259,203.408966 53.9089977,203.901158 C54.4984554,204.688665 54.3019695,205.738674 53.974493,206.788684 C53.8435024,207.21525 53.7125118,207.707442 53.7125118,207.904318 C53.7125118,207.937131 53.7125118,207.969944 53.9089977,208.232446 C54.1709789,208.560574 54.8586795,209.151205 55.4153895,209.479333 C55.4153895,209.479333 55.4481372,209.479333 55.4481372,209.512145 C56.5615572,210.201214 56.954529,210.562155 57.0855196,210.890283 C57.2820055,211.021534 57.6422296,211.185598 57.9697061,211.316849 C57.9042108,211.152785 57.8059678,210.955908 57.6422296,210.85747 C57.3475008,210.660593 56.7252955,210.168401 56.954529,209.413707 C57.2165102,208.659013 58.0024537,208.659013 58.3954255,208.659013 C59.279612,208.659013 60.0983032,209.380894 60.6222656,210.102776 C61.5391997,211.382475 61.6374427,211.841854 60.7205085,213.121553 C60.7205085,213.121553 60.6877609,213.154365 60.6877609,213.154365 C60.5567703,213.318429 60.3602844,213.515306 60.1310509,213.67937 C60.8514991,213.777808 61.146228,214.204375 61.2444709,214.466877 C61.4082091,214.860631 61.4409568,215.484074 60.6877609,216.238768 C60.4585274,216.468457 60.0655556,216.862211 59.4433503,216.862211 C59.1158738,216.862211 58.8211449,216.763773 58.4609208,216.599709 C57.8387155,216.370019 57.511239,215.779389 57.6422296,215.155946 C57.6422296,215.09032 57.6749773,214.991882 57.7077249,214.926256 C57.511239,214.991882 57.2820055,215.09032 57.0855196,215.155946 C57.3802484,215.385635 57.609482,215.746576 57.6749773,216.107517 C57.8059678,216.698147 57.609482,217.0919 57.4457437,217.32159 C57.0527719,217.813782 56.4633143,217.879408 55.9720996,217.879408 C55.4808848,217.879408 54.8914272,217.813782 54.4984554,217.32159 C54.3347171,217.124713 54.2037265,216.829398 54.2037265,216.402832 C53.974493,216.468457 53.7452595,216.50127 53.5160259,216.50127 C53.1230542,216.50127 52.76283,216.402832 52.4353535,216.205955 C52.4353535,216.468457 52.3698583,216.73096 52.20612,216.960649 C52.20612,216.993462 52.1733724,216.993462 52.1733724,217.026275 C51.8131482,217.616905 49.5535605,219.487234 48.6366264,219.487234 C48.4401405,219.487234 48.2764022,219.454422 48.1454116,219.388796 C48.014421,219.716924 47.6214493,219.979426 46.8355057,220.274741 C47.2284775,220.405993 47.4249634,220.668495 47.555954,220.865372 C47.7524399,221.226312 48.0799163,222.145071 46.7372628,223.326331 C46.2787957,223.720085 45.3618615,224.573217 44.7069086,225.19666 C44.6741609,225.229473 44.6741609,225.229473 44.6414133,225.262286 C43.3970026,226.24667 39.0088178,228.379501 37.6006689,228.379501 C37.4369307,228.379501 37.3059401,228.346688 37.1749495,228.313876 C37.3059401,228.904506 37.502426,229.626387 37.8299025,230.381082 C38.1901266,231.234214 38.3866125,232.349849 38.2883695,233.038918 C38.2228742,233.53111 38.0918836,234.384242 37.9936407,234.94206 C37.7316595,236.779576 35.177343,241.963997 33.96568,242.751505 C33.867437,242.81713 33.8019417,242.849943 33.7364464,242.915568 C33.310727,243.210884 32.9832505,243.473386 32.4265405,243.473386 C32.3610452,243.473386 32.2628023,243.473386 32.197307,243.440573 C33.0814935,244.490583 33.8019417,245.737469 33.8019417,246.590601 C33.8019417,246.951542 33.6709511,247.214044 33.4744652,247.410921 C33.6709511,247.574985 33.7691941,247.837487 33.7691941,248.132803 C33.7691941,248.165615 33.7691941,248.198428 33.7691941,248.231241 L33.7036988,249.642191 C33.7036988,249.904693 33.6382035,251.282831 33.310727,251.74221 C33.2452317,251.840648 33.1469888,251.939087 33.0487458,252.004712 C32.9505029,252.070338 32.8195123,252.10315 32.655774,252.168776 C32.8522599,252.660968 32.655774,253.087534 32.5575311,253.284411 C32.4265405,253.612539 32.0663164,254.498484 31.8043352,255.253179 C31.5096064,256.073498 30.985644,257.156321 30.4616816,257.681325 C30.428934,257.681325 30.428934,257.714138 30.3961863,257.746951 C30.4944293,257.845389 30.5599246,258.009453 30.6254199,258.140704 C30.8219057,258.731335 30.5271769,259.321965 30.1997004,259.84697 C29.9377192,260.339161 29.5774951,260.831353 29.0862804,261.093856 C30.2324481,262.176678 30.5599246,262.636057 30.5599246,263.522002 C30.5599246,264.014194 30.3634387,264.440761 30.0687098,264.768889 C30.4616816,265.097016 30.6581675,265.589208 30.7891581,265.917336 C31.2148775,266.967346 31.2148775,267.525163 30.7236628,268.148606 C31.9025781,268.378296 32.6230264,268.772049 33.3434747,269.592369 C34.9481094,271.397073 34.5551376,272.447082 33.0487458,274.054909 C32.4265405,274.743978 32.0008211,275.367421 31.9025781,275.531485 C31.9025781,275.531485 31.9025781,275.531485 31.9025781,275.531485 C31.5096064,276.679932 29.7412334,276.876809 28.6933086,276.876809 L28.6933086,276.876809 C28.6933086,276.975247 28.6933086,277.139311 28.6933086,277.270563 L28.6933086,277.729942 L28.9880374,277.729942 C29.6102428,277.729942 30.6254199,277.729942 31.0183916,278.583074 C31.4113634,279.436207 30.6909152,280.28934 30.2324481,280.87997 C28.7915516,282.586235 27.9728604,283.340929 26.3354779,283.340929 C25.7460203,283.340929 25.5167867,283.439368 23.355442,285.70345 C21.1613495,288.000346 21.0631066,288.262848 21.0631066,288.886291 C21.0631066,290.461305 20.6046395,290.920684 19.163743,291.544128 C17.7555941,292.200383 17.4608653,292.200383 17.3626223,292.200383 C17.0023982,292.200383 16.83866,292.069132 16.2492023,291.609753 C16.1509594,291.773817 16.0527164,291.937881 15.9544735,292.069132 C15.7252399,292.430073 15.3650158,292.856639 15.0047917,293.283206 C13.4983999,295.055096 13.2691663,295.514475 13.0071851,297.023864 C12.8106992,298.106686 12.2539892,299.09107 11.2715598,300.009828 C10.6821021,300.567646 9.56868207,301.781719 8.81548616,302.667664 C8.02954261,303.619235 6.13017901,305.522377 4.65653484,306.867702 C3.08464773,308.344277 2.29870418,309.098972 1.64375121,309.361474 C1.70924651,309.623976 1.74199416,309.919292 1.57825592,310.345858 C1.51276062,310.542735 1.34902238,311.067739 0.988798248,312.01931 C0.75956471,312.675566 0.497583525,313.43026 0.235602339,314.217767 C-0.517593569,316.449037 -0.845070051,317.925613 -0.845070051,319.074061 C-0.845070051,319.861568 -0.845070051,320.845952 -1.27078948,321.370956 C-0.68133181,321.895961 -0.583088865,322.552217 -0.550341217,322.94597 L-0.550341217,322.978783 C-0.550341217,324.881925 2.98640479,332.724183 5.67171194,336.267964 C7.50558024,338.663298 8.25877614,340.435189 8.9792244,343.814907 C9.14296265,344.536788 9.83066326,346.341492 10.5838592,347.85088 C10.878588,348.408698 11.1733168,349.032141 11.5007933,349.655584 C12.0247557,350.705593 12.5814657,351.788415 12.9416898,352.477484 C13.9896146,354.54469 14.0223622,355.004069 14.1206052,359.400983 C14.1861005,363.108829 14.0878575,364.454153 13.5966428,365.340099 C13.4656522,365.602601 13.1709234,366.8823 13.0071851,368.326063 C12.9744375,368.621378 12.7124563,371.082337 12.1557463,371.93547 C11.2388121,373.379233 8.35701909,375.249562 6.45765549,375.905818 C5.86819783,376.135508 5.27874016,376.299572 4.82027309,376.463635 C4.59103955,376.529261 4.39455366,376.594887 4.32905836,376.627699 C4.29631071,376.627699 4.29631071,376.627699 4.26356307,376.660512 C4.03432953,376.726138 3.87059129,376.758951 3.7396007,376.758951 C3.31388127,376.758951 2.95365714,376.496448 2.7899189,376.135508 C2.65892831,375.840192 2.62618066,375.380813 3.15014303,374.855809 C3.64135775,374.363617 4.82027309,373.969863 5.18049722,373.838612 C6.78513198,373.34642 8.65174792,372.066721 9.73242031,371.082337 C9.30670089,371.147963 8.88098146,371.213589 8.48800968,371.34484 C8.32427144,371.377653 8.19328085,371.410465 7.99679496,371.410465 C6.45765549,371.410465 3.83784364,369.408885 2.06947064,367.407305 C0.988798248,366.160419 -0.0591264943,365.307286 -0.32110768,365.143222 C-1.13979888,364.782281 -2.02398539,363.666646 -2.54794776,362.747888 C-3.00641483,361.927568 -3.89060133,360.943184 -4.4145637,360.582244 C-5.49523609,359.794737 -6.08469376,358.941604 -6.73964672,357.235339 C-7.1326185,356.119704 -7.68932852,355.233758 -8.31153384,354.675941 C-8.73725326,354.282187 -9.75243036,353.297804 -9.78517801,352.411858 C-9.81792565,352.149356 -10.0799068,351.033721 -10.5383739,349.557145 C-11.0295886,347.916506 -11.4225604,345.652423 -11.553551,343.486779 C-11.8155322,338.892988 -11.8810275,338.696111 -14.8283158,336.038275 C-16.3347076,334.69295 -18.0048377,332.986685 -18.4960524,332.231991 C-18.8562766,331.706986 -19.5112295,331.116356 -19.8714536,330.952292 C-20.1334348,330.821041 -20.2971731,330.788228 -20.493659,330.788228 C-21.1813596,330.788228 -22.4585179,331.378858 -24.8818438,332.592931 C-26.1917497,333.249187 -28.0583657,334.036694 -28.9425522,334.233571 C-28.9425522,334.233571 -28.9425522,334.233571 -28.9752998,334.233571 C-29.237281,334.299197 -29.5647575,334.332009 -29.8267387,334.332009 C-30.9074111,334.332009 -31.3986258,333.642941 -31.9225882,332.888247 C-32.2828123,332.363242 -32.87227,331.903863 -33.3634847,331.739799 C-34.1494283,331.510109 -35.5903248,330.755415 -36.6055019,330.131972 L-38.2428843,329.147588 L-41.2884156,329.344465 C-43.1550315,329.442903 -44.694171,329.606967 -44.9888998,329.672593 C-45.152638,329.738218 -45.3163763,329.738218 -45.4801145,329.738218 C-45.6111051,329.738218 -45.7748434,329.705406 -45.9713293,329.63978 C-46.0040769,329.672593 -46.0368245,329.738218 -46.0695722,329.771031 C-46.2660581,330.000721 -46.5280393,330.164785 -46.8555158,330.164785 L-49.2133464,330.164785 C-50.8179812,330.131972 -51.9641489,330.033534 -52.4553636,329.278839 C-52.5536065,329.278839 -52.6845971,329.311652 -52.8155877,329.344465 L-53.9617554,329.574154 C-54.0272507,329.574154 -54.092746,329.606967 -54.1582413,329.606967 C-54.3547272,329.606967 -54.5512131,329.541342 -54.747699,329.41009 C-54.8459419,329.442903 -54.9441849,329.475716 -55.0424278,329.475716 L-55.7956237,329.508529 C-55.7956237,329.508529 -55.7956237,329.508529 -55.8283714,329.508529 C-58.841155,329.574154 -60.052818,329.967908 -60.2820515,330.131972 C-60.3147992,330.197598 -60.3802945,330.23041 -60.4130421,330.296036 C-59.8563321,330.755415 -59.6598462,331.313232 -59.6598462,332.396055 C-59.6598462,333.446064 -59.9873227,334.364822 -60.5767803,334.889827 C-60.8715092,335.152329 -60.9370045,335.382019 -60.9042568,335.480457 C-60.8715092,335.644521 -60.6750233,335.74296 -60.5767803,335.775772 C-59.2996221,336.300777 -57.3675108,338.203919 -57.3675108,339.516431 C-57.3675108,340.336751 -58.0879591,340.960194 -58.9721456,340.960194 C-59.2341268,340.960194 -59.6270985,341.025819 -59.8235844,341.058632 C-59.9873227,341.091445 -60.1838086,341.124258 -60.3802945,341.124258 C-60.8387615,341.124258 -61.3627239,341.025819 -61.7884433,340.894568 C-62.377901,340.730504 -63.3603304,340.303938 -64.2445169,339.97581 L-64.4410028,339.910184 C-65.0304605,339.680495 -65.4234323,339.516431 -65.6199182,339.516431 C-65.7509088,339.516431 -65.914647,339.582056 -66.2748711,339.74612 C-67.6175247,340.336751 -68.5672065,340.56644 -70.6958036,340.828942 C-70.9577848,340.861755 -71.219766,340.894568 -71.4817472,340.894568 C-73.5775967,340.894568 -75.6079509,339.811746 -77.3435762,337.777353 C-78.0640245,336.92422 -79.2756875,336.005462 -79.9306404,335.677334 L-80.8475746,335.217955 L-81.0768081,335.414832 C-81.830004,336.136713 -82.9434241,336.497654 -84.25333,336.497654 C-85.7597218,336.497654 -87.4298519,336.005462 -89.0344866,335.119516 C-89.3292154,334.955452 -90.6063737,334.758576 -92.3092514,334.758576 C-93.4226715,334.758576 -94.1103721,334.857014 -94.3396056,334.955452 C-94.6015868,335.217955 -94.9290633,335.447644 -95.3547827,335.447644 C-95.6495115,335.447644 -95.8787451,335.349206 -96.075231,335.152329 C-96.3372122,335.546083 -96.8284269,335.874211 -97.5816228,335.874211 C-98.4330616,335.874211 -99.9722011,336.563279 -101.151116,337.810165 C-102.526518,339.286741 -105.866778,341.321134 -110.123972,343.322715 C-112.645541,344.503975 -114.119185,345.422733 -114.381166,345.685236 C-114.381166,345.718049 -114.413914,345.718049 -114.413914,345.750861 C-114.512157,345.8493 -114.708643,346.013364 -115.494586,346.636807 C-115.72382,346.833684 -116.018549,347.063373 -116.28053,347.293063 C-116.28053,347.293063 -116.28053,347.293063 -116.313278,347.293063 C-118.310884,348.868077 -119.227818,349.885273 -121.094434,352.575922 C-122.437088,354.479064 -122.437088,354.479064 -122.371592,356.415019 C-122.338845,357.629092 -122.175107,358.941604 -122.044116,359.36817 C-121.585649,360.811933 -122.240602,364.519779 -122.469835,365.340099 C-122.469835,365.372911 -122.469835,365.47135 -122.469835,365.504163 C-122.568078,366.947926 -123.38677,367.177615 -123.877984,367.177615 C-124.369199,367.177615 -124.893161,366.947926 -125.679105,366.390108 C-127.087254,365.372911 -127.41473,365.274473 -128.462655,365.274473 C-129.936299,365.274473 -130.820486,364.979158 -132.29413,363.994774 C-133.178316,363.404144 -134.422727,362.780701 -135.07768,362.583824 C-135.863624,362.321322 -136.878801,361.796317 -137.30452,361.271312 C-137.501006,361.00881 -137.86123,360.582244 -138.090464,360.352554 C-138.679921,359.761924 -139.629603,356.972837 -139.433117,356.119704 C-139.433117,356.119704 -139.433117,356.086891 -139.433117,356.086891 C-139.465865,355.857202 -139.53136,355.529074 -139.596855,355.004069 L-139.596855,354.971256 C-139.629603,354.741567 -139.662351,354.675941 -139.695098,354.610315 C-139.891584,354.216562 -140.022575,353.822808 -140.153565,352.247794 C-140.284556,350.804031 -140.710275,350.180588 -141.430724,349.163392 C-141.7582,348.736825 -142.085677,348.244634 -142.478648,347.621191 C-144.738236,343.847719 -146.310123,339.024239 -146.604852,337.646102 C-146.604852,337.646102 -146.604852,337.646102 -146.604852,337.613289 C-146.899581,336.071087 -148.405973,333.544502 -149.97786,332.428867 C-150.796551,331.87105 -150.731056,331.116356 -150.731056,330.821041 C-150.731056,330.656977 -150.731056,330.656977 -150.731056,330.624164 C-151.058532,329.967908 -152.302943,329.213214 -153.056139,329.081963 C-153.056139,329.081963 -153.056139,329.081963 -153.088886,329.081963 C-153.645596,328.983524 -155.086493,328.688209 -156.167165,328.45852 C-156.822118,328.327268 -157.444324,328.22883 -158.001034,328.22883 C-158.786977,328.22883 -160.162378,328.392894 -160.686341,329.377278 C-160.98107,329.967908 -161.439537,330.263223 -161.767013,330.4601 C-161.963499,330.821041 -162.389219,331.378858 -163.437143,332.494493 C-163.699124,332.756995 -163.76462,332.953872 -163.862863,333.150749 C-164.124844,333.642941 -164.45232,334.200758 -165.500245,334.200758 L-165.532993,334.200758 C-167.497852,334.167945 -168.087309,333.708566 -170.543383,331.510109 C-173.719905,328.655396 -175.390035,326.063186 -175.521025,323.733477 C-175.553773,323.044409 -176.175978,319.500627 -176.470707,318.745933 C-176.634446,318.352179 -177.878856,317.236544 -178.370071,316.842791 C-178.730295,316.514663 -178.926781,316.350599 -179.057771,316.219348 C-179.057771,316.219348 -179.090519,316.186535 -179.090519,316.186535 C-179.188762,316.055284 -179.516239,315.694343 -179.417996,315.169338 C-179.614481,314.939649 -180.007453,314.513083 -180.727902,313.758388 C-181.57934,312.905256 -181.972312,312.052123 -182.267041,311.395867 C-182.496275,310.936488 -183.151227,310.345858 -183.347713,310.214607 C-183.969919,309.886479 -184.166405,309.164597 -184.330143,308.37709 C-184.395638,308.180214 -184.428386,307.950524 -184.461133,307.819273 C-184.624872,307.327081 -184.985096,306.703638 -185.312572,306.408323 C-185.312572,306.408323 -185.312572,306.408323 -185.34532,306.37551 C-185.476311,306.244259 -185.607301,306.113008 -185.803787,305.981756 C-186.033021,305.78488 -186.262254,305.588003 -186.45874,305.325501 C-186.687974,305.489564 -186.917207,305.522377 -187.146441,305.522377 C-187.408422,305.522377 -187.604908,305.456752 -187.834141,305.358313 C-188.194365,305.227062 -188.718328,305.062998 -189.700757,305.030185 C-190.584944,304.997373 -191.436382,304.800496 -192.189578,304.636432 C-192.746288,304.505181 -193.237503,304.406742 -193.69597,304.37393 C-194.940381,304.275491 -196.577763,303.980176 -197.03623,303.848925 C-197.03623,303.848925 -197.03623,303.848925 -197.068978,303.848925 C-197.560193,303.717674 -198.01866,303.520797 -198.346136,303.389546 C-198.444379,303.356733 -198.542622,303.291107 -198.673613,303.258295 C-198.739108,303.520797 -198.804603,303.848925 -198.870099,304.209866 C-199.066585,305.358313 -199.361313,307.294268 -201.227929,307.294268 C-202.505088,307.294268 -204.895666,306.933327 -205.8126,305.620816 C-205.943591,305.423939 -206.041834,305.227062 -206.107329,305.030185 C-206.598544,305.489564 -207.220749,305.686441 -208.03944,305.686441 C-208.759888,305.686441 -209.611327,305.522377 -210.888486,305.259875 C-212.460373,304.898934 -214.425232,304.406742 -215.440409,304.14424 C-215.898876,304.012989 -216.422838,303.750486 -216.914053,303.520797 C-217.307025,303.32392 -217.92923,303.028605 -218.125716,303.028605 C-219.402874,303.028605 -220.15607,302.405162 -221.531471,301.223901 C-221.727957,301.059837 -221.924443,300.895773 -222.120929,300.73171 C-223.299844,299.780139 -224.544255,298.730129 -224.937227,298.369188 C-225.199208,298.139499 -226.640104,297.056677 -228.441225,295.875416 L-229.161673,295.383224 C-234.368549,291.872255 -240.033892,288.000346 -241.474789,286.720647 C-241.769518,286.458145 -241.933256,286.130017 -241.933256,285.769076 C-241.933256,285.440948 -241.835013,285.178446 -241.671275,284.915943 C-241.867761,284.883131 -242.064247,284.817505 -242.260732,284.784692 C-243.734377,284.456564 -244.553068,284.2925 -244.847797,283.570619 C-244.978787,283.242491 -244.978787,282.88155 -244.782301,282.553422 C-244.38933,281.897166 -241.867761,280.87997 -241.638527,280.814344 C-241.311051,280.683093 -240.656098,280.420591 -240.459612,280.256527 C-240.459612,280.190901 -240.459612,280.125276 -240.459612,279.928399 C-240.459612,279.501833 -240.62335,279.173705 -240.787088,279.009641 C-241.409294,278.451823 -241.704022,277.894006 -241.73677,277.23775 C-241.769518,276.220553 -241.049069,275.334608 -240.328621,274.612726 C-239.739164,274.022096 -239.018715,273.0049 -238.691239,272.381456 C-238.331015,271.725201 -237.643314,270.642378 -236.660885,270.576753 C-236.529894,270.511127 -236.16967,270.281438 -235.776698,269.920497 L-235.350979,269.493931 L-235.776698,268.673611 C-236.529894,267.262661 -236.660885,266.245464 -236.660885,263.915756 C-236.660885,263.161062 -236.628137,262.406367 -236.595389,261.815737 C-236.595389,261.651673 -236.562642,261.487609 -236.562642,261.290732 L-236.595389,261.290732 C-237.381333,261.290732 -237.905295,260.601664 -238.658491,259.125088 C-238.920472,258.632896 -239.280696,257.97664 -239.673668,257.221946 C-240.197631,256.20475 -240.787088,255.089115 -241.278303,254.137544 C-241.671275,253.382849 -243.734377,249.51094 -245.240768,246.590601 C-246.550674,244.064016 -247.72959,241.963997 -247.827833,241.767121 C-247.893328,241.668682 -248.024319,241.471806 -250.185663,237.403019 C-251.266336,235.270188 -252.674485,232.677977 -253.198447,231.693593 C-253.198447,231.693593 -253.198447,231.693593 -253.198447,231.660781 C-253.427681,231.267027 -253.722409,230.676397 -254.082633,230.052954 C-254.606596,229.101383 -255.196054,227.985748 -255.687268,227.06699 C-255.981997,226.509172 -256.342221,225.820103 -256.702445,225.131035 C-257.324651,223.916961 -258.012351,222.670075 -258.438071,221.816943 C-258.569061,221.587253 -258.667304,221.390376 -258.765547,221.1935 C-260.763154,217.518467 -260.632163,217.124713 -256.964427,206.755871 L-256.276726,204.819916 C-255.228801,201.833952 -254.180876,198.913613 -253.329438,196.583905 C-251.986784,192.941685 -251.888541,192.843247 -251.692055,192.64637 C-251.462822,192.41668 -251.168093,192.318242 -250.775121,192.318242 C-249.890935,192.318242 -247.72959,192.974498 -238.331015,196.485467 C-237.184847,196.912033 -235.61296,197.46985 -233.975577,198.027668 C-234.139316,197.174535 -233.746344,196.091713 -232.9604,193.926069 C-232.796662,193.499502 -232.632924,193.007311 -232.436438,192.482306 C-231.617747,190.251036 -230.897299,187.724451 -230.766308,186.936944 C-230.569822,185.558807 -230.17685,184.672861 -229.292664,183.72129 C-229.292664,183.72129 -229.292664,183.72129 -229.259916,183.688477 C-228.899692,183.294724 -228.735954,183.097847 -228.670458,182.966596 C-228.604963,182.736906 -228.670458,182.244714 -228.735954,181.522833 C-228.768701,181.227518 -228.834197,180.800952 -228.866944,180.407198 C-228.899692,180.013445 -228.965187,179.652504 -228.965187,179.455627 C-229.096178,178.07749 -228.277487,177.454047 -227.327805,176.961855 C-227.327805,176.961855 -227.327805,176.961855 -227.327805,176.961855 C-226.410871,176.502476 -225.199208,175.189964 -225.002722,174.763398 C-224.937227,174.238393 -224.380517,173.483699 -223.398087,172.532128 L-222.481153,171.61337 L-222.874125,169.513351 C-223.070611,168.397716 -223.201601,167.413332 -223.267097,166.461761 C-223.332592,166.494574 -223.398087,166.494574 -223.463582,166.494574 C-223.561825,166.494574 -223.692816,166.461761 -223.791059,166.428948 L-228.637711,164.657057 C-233.287877,162.983605 -235.481969,162.524226 -239.935649,162.196098 C-243.472395,161.966408 -245.50275,161.474217 -248.351795,160.161705 C-249.596206,159.571075 -251.561065,158.914819 -252.674485,158.685129 C-253.493176,158.521065 -255.196054,158.061686 -255.752764,157.40543 C-255.752764,157.40543 -255.785511,157.372617 -255.785511,157.372617 C-256.276726,156.716362 -256.407716,155.239786 -256.407716,154.649156 L-256.407716,154.616343 C-256.407716,153.435082 -256.407716,153.369457 -257.553884,152.155383 C-258.438071,151.203812 -259.060276,150.810059 -260.009958,150.580369 L-261.51635,150.186616 C-262.007564,150.055365 -262.335041,149.563173 -262.236798,149.038168 L-261.974817,147.791282 C-261.64734,146.281893 -260.140948,136.897435 -259.715229,133.714594 C-259.355005,130.827068 -258.7328,130.400502 -258.470818,130.269251 C-258.241585,130.137999 -257.979604,130.072374 -257.717622,130.072374 C-256.866184,130.072374 -255.916502,130.663004 -253.689662,132.533333 C-252.641737,133.419279 -249.989177,134.666165 -248.515533,135.092731 C-248.482786,133.878658 -247.565851,130.991132 -246.910899,130.039561 C-246.714413,129.777059 -246.419684,129.612995 -246.05946,129.612995 C-245.895721,129.612995 -245.600993,129.612995 -243.734377,130.367689 C-242.784695,130.761442 -236.235165,133.288027 -229.06343,136.011489 C-225.755918,137.258375 -222.513901,138.472449 -219.992332,139.456833 C-215.997119,140.999034 -215.997119,140.999034 -215.800633,141.195911 C-215.735137,141.261536 -215.669642,141.359975 -215.604147,141.4256 C-215.473156,141.392787 -215.342166,141.359975 -215.211175,141.359975 C-214.556222,141.359975 -213.082578,141.819354 -212.656859,141.950605 C-211.674429,142.278733 -210.986728,142.541235 -210.626504,142.869363 C-210.495514,142.803737 -210.331775,142.770925 -210.168037,142.770925 C-210.069794,142.770925 -209.971551,142.803737 -209.873308,142.803737 L-205.910843,144.083436 C-202.275854,145.231884 -186.884459,149.53036 -184.690367,149.989739 C-183.969919,150.12099 -181.382854,150.810059 -179.876463,151.236625 C-176.634446,152.089758 -155.446717,156.946051 -151.156775,157.831997 C-150.076103,158.061686 -149.617636,158.192937 -149.355655,158.291376 C-149.126421,158.357001 -148.373225,158.45544 -147.259805,158.586691 C-145.262199,158.81638 -144.738236,158.849193 -144.443507,159.242947 C-144.312517,159.210134 -144.181526,159.177321 -144.017788,159.177321 C-143.85405,159.177321 -143.624816,159.144508 -143.330087,159.144508 C-141.921938,159.144508 -139.367622,159.308572 -138.188707,159.538262 C-137.893978,159.603887 -136.518576,159.735139 -135.405156,159.86639 C-134.979437,159.932015 -134.52097,159.964828 -134.062503,159.997641 C-133.243812,160.063266 -132.556111,160.161705 -132.261382,160.194518 C-132.032149,160.22733 -131.508186,160.292956 -130.951476,160.358582 C-130.493009,160.424207 -130.001794,160.45702 -129.51058,160.522646 C-128.429907,160.621084 -127.021759,160.785148 -126.366806,160.883586 C-124.401947,161.146089 -116.804492,162.032034 -115.101615,162.196098 C-114.18468,162.294536 -112.94027,162.425788 -112.318064,162.491413 C-111.695859,162.557039 -110.320458,162.721103 -109.338028,162.852354 C-107.897132,163.049231 -107.274927,163.27892 -106.94745,163.50861 C-106.914703,163.475797 -106.914703,163.442984 -106.881955,163.442984 C-106.685469,163.27892 -106.456235,163.180482 -106.194254,163.180482 L-106.128759,163.180482 L-103.869171,163.311733 C-100.496163,163.50861 -98.6622952,163.607048 -97.6798657,163.607048 C-97.1231557,163.607048 -96.9266698,163.574235 -96.8611745,163.541423 C-96.8611745,163.541423 -96.8611745,163.541423 -96.8284269,163.50861 C-96.8284269,163.50861 -96.8284269,163.475797 -96.7956792,163.475797 C-96.6974363,163.377359 -96.5991933,163.147669 -96.5991933,163.049231 C-96.5991933,162.786728 -96.5991933,162.524226 -96.5009504,162.261724 C-96.4027075,161.999221 -96.2717169,161.802345 -96.075231,161.671093 C-95.8787451,161.539842 -95.6495115,161.441404 -95.3875304,161.441404 C-95.0273062,161.441404 -94.6998297,161.572655 -94.1758674,161.86797 C-93.2589332,162.360162 -92.9642044,163.574235 -92.8004662,164.821121 C-92.5712326,166.691451 -92.2437561,166.953953 -90.9993455,167.183643 C-90.4098878,167.282081 -89.2964678,167.577396 -88.7397578,168.069588 C-88.6415148,168.102401 -88.0520572,168.364903 -85.7924694,168.397716 C-82.7796858,168.463341 -82.3212187,168.528967 -80.9458175,169.808666 C-80.4218551,170.268045 -79.9633881,170.56336 -79.7669022,170.628986 C-79.2429398,170.694611 -78.4242486,171.088365 -77.3763239,171.810246 C-76.3611468,172.499315 -76.1319132,172.597753 -74.8547549,172.597753 C-74.6910167,172.597753 -74.5272785,172.597753 -74.3635402,172.597753 C-74.2325496,172.597753 -74.0688114,172.597753 -73.9050732,172.597753 C-71.7109807,172.597753 -67.8467582,173.02432 -66.6350953,173.516512 C-66.6350953,173.516512 -66.6350953,173.516512 -66.6023476,173.516512 C-66.3403664,173.61495 -65.7836564,173.877452 -65.6854135,174.500895 C-65.5544229,175.157151 -66.0128899,175.583718 -66.6023476,176.141535 C-67.1590576,176.66654 -68.1087394,177.191544 -68.8291877,177.191544 C-69.8116171,177.191544 -71.5144948,178.208741 -72.1367002,179.127499 C-72.5624196,179.849381 -73.4138584,180.768139 -74.1670543,181.194705 C-74.4290355,181.358769 -74.6255214,181.522833 -74.7237644,181.588459 C-74.9202502,182.015025 -75.3787173,182.343153 -75.9354273,182.408778 C-76.0009226,182.441591 -76.0991656,182.572842 -76.1974085,182.704094 C-76.623128,183.393162 -77.8347909,184.410359 -78.4242486,184.869738 C-78.4569962,184.902551 -78.4897439,184.935363 -78.5552392,184.968176 C-76.9506044,184.574423 -73.8395779,183.557226 -73.2501202,183.229098 C-72.988139,182.999409 -72.6279149,182.704094 -72.1367002,182.704094 C-71.8092237,182.704094 -71.5144948,182.835345 -71.2852613,183.097847 C-70.8922895,183.524413 -70.8922895,184.147856 -70.9577848,184.607236 C-70.9577848,184.640048 -70.9577848,184.672861 -70.9577848,184.672861 C-70.9250372,184.672861 -70.8922895,184.705674 -70.8595419,184.705674 C-70.8595419,184.705674 -70.8267942,184.705674 -70.8267942,184.705674 C-70.2700842,184.902551 -69.7133742,185.263491 -69.2221595,185.722871 C-69.1566642,185.36193 -68.894683,185.033802 -68.4689636,184.607236 C-68.0104965,184.147856 -67.1918053,183.655665 -66.471357,183.655665 C-65.5544229,183.655665 -62.9018634,182.704094 -61.8866863,181.916587 C-60.1183133,180.571262 -56.7780532,178.274367 -55.4026519,178.274367 C-55.1406707,178.274367 -54.9441849,178.339992 -54.747699,178.43843 C-54.4202225,178.635307 -54.2237366,178.963435 -54.2237366,179.324376 C-54.1909889,179.947819 -54.6822037,180.440011 -55.1079231,180.735326 C-55.5663902,181.063454 -55.9593619,181.752523 -56.0903525,182.113463 C-55.9266143,182.179089 -55.5336425,182.244714 -54.7804466,182.277527 C-53.7652695,182.31034 -52.0951395,183.754103 -51.767663,184.049418 C-50.8179812,184.902551 -50.4905047,185.13224 -49.8682994,185.13224 C-49.1151035,185.13224 -47.8379452,184.804112 -45.9713293,184.279108 C-43.8427321,183.688477 -41.8451256,183.393162 -40.1749955,183.393162 C-38.079146,183.393162 -36.7692401,183.852541 -36.1797824,184.7713 C-36.0815395,184.7713 -35.9832966,184.738487 -35.8850536,184.738487 C-35.8850536,184.738487 -35.8850536,184.738487 -35.8850536,184.738487 C-34.4769047,184.738487 -31.562364,186.280688 -30.8091681,187.691638 C-30.3507011,188.577583 -30.0559722,189.299465 -30.3507011,189.988534 C-30.6126823,190.644789 -31.2676352,190.841666 -31.5296164,190.907292 C-32.0535788,191.071356 -32.5120458,191.202607 -33.0032606,191.301045 C-32.774027,191.465109 -32.5120458,191.694799 -32.217317,191.990114 C-31.4968688,192.679183 -30.4816917,193.269813 -30.0232246,193.368251 C-30.0232246,193.368251 -29.9904769,193.368251 -29.9904769,193.368251 C-26.912198,194.221384 -26.1262544,196.255777 -25.798778,199.307367 C-25.4713015,202.457395 -25.5040491,203.34334 -26.4864786,204.75429 C-27.010441,205.508985 -27.1741792,205.935551 -27.2396745,206.591807 C-27.2724221,207.182437 -27.6981416,207.576191 -28.2548516,207.707442 C-28.2548516,207.773067 -28.2548516,207.838693 -28.2548516,207.904318 C-28.2548516,208.134008 -28.1893563,208.363698 -28.1566086,208.494949 C-27.6981416,208.134008 -26.8467027,207.313688 -26.0935068,206.591807 L-24.3906291,204.951167 C-24.1941432,204.787103 -23.9649097,204.688665 -23.7029285,204.688665 L-23.6701808,204.688665 C-23.4081997,204.688665 -23.1462185,204.819916 -22.9824802,205.016793 L-21.8690602,206.230866 C-20.6573972,207.543378 -19.838706,209.44652 -19.5112295,211.710602 C-19.5112295,211.710602 -19.5112295,211.743415 -19.5112295,211.743415 C-19.4457342,212.169982 -19.281996,212.891863 -19.1510054,213.384055 C-18.5942954,215.155946 -19.5439772,217.715344 -21.5088361,219.618486 C-22.163789,220.274741 -22.5895084,220.832559 -22.720499,221.029436 C-22.818742,221.685691 -23.3099567,222.506011 -23.375452,222.60445 C-23.375452,222.60445 -23.375452,222.637262 -23.4081997,222.637262 C-23.5391902,222.834139 -23.7684238,223.621646 -23.8011714,224.409153 L-23.8339191,225.852916 C-23.5719379,225.918542 -23.0152279,226.115419 -21.5088361,226.804487 C-20.4609113,227.296679 -19.4784819,227.559181 -18.725286,227.559181 C-18.2995665,227.559181 -18.0048377,227.460743 -17.8083518,227.329492 C-17.8083518,227.329492 -17.7756042,227.296679 -17.7756042,227.296679 C-17.3171371,226.935738 -16.2364647,226.443546 -15.4832688,226.148231 C-14.7628205,225.885729 -13.9441293,225.42635 -13.6494005,225.19666 C-12.4049899,224.081025 -8.99923445,221.423189 -7.72207617,221.423189 C-7.72207617,221.423189 -7.72207617,221.423189 -7.72207617,221.423189 C-7.59108558,221.423189 -7.46009498,221.456002 -7.32910439,221.488815 C-7.1326185,221.062248 -6.80514202,220.734121 -6.3139273,220.37318 C-5.85546022,220.077865 -5.10226431,219.585673 -4.74204018,219.32317 C-4.34906841,219.027855 -4.02159192,218.798166 -3.56312485,218.798166 C-3.33389131,218.798166 -3.17015307,218.830979 -3.00641483,218.929417 C-2.61344305,217.945033 -1.50002301,216.599709 0.75956471,214.171562 C1.11978884,213.777808 1.34902238,213.482493 1.51276062,213.285617 C1.38177003,212.990301 1.15253649,212.465297 0.890555303,211.907479 C0.170107043,210.463716 -0.288360032,209.544958 0.170107043,208.823077 C0.432088229,208.39651 0.857807655,208.199634 1.48001297,208.199634 C1.57825592,208.199634 1.87298475,208.101195 2.03672299,207.937131 C2.03672299,207.937131 2.03672299,207.937131 2.03672299,207.937131 C2.62618066,207.477752 3.57586245,207.280875 7.80030907,207.248063 C12.7452039,207.182437 12.9744375,207.083999 14.2843434,205.968364 C15.6597446,204.787103 15.9544735,203.802719 15.4960064,201.899577 L15.0375393,199.996435 C14.972044,199.70112 15.0375393,199.372992 15.2340252,199.11049 L17.1333888,196.87922 C18.1485659,195.69796 19.3274812,194.221384 19.6877054,193.696379 C20.1789201,193.007311 21.3905831,191.858863 22.3075172,191.071356 C22.3075172,191.071356 22.3075172,191.071356 22.3402649,191.071356 L24.0758902,189.693218 C24.2396285,189.561967 24.468862,189.463529 24.6980955,189.463529 L24.7308432,189.463529 L27.448898,189.529154 C27.7108792,189.529154 27.9401127,189.529154 28.2020939,189.529154 C29.5119998,189.529154 30.3634387,189.463529 30.5599246,189.397903 C30.8219057,189.299465 31.0511393,189.266652 31.2476252,189.266652 C31.542354,189.266652 31.8043352,189.332278 32.0008211,189.463529 C32.1318117,189.201027 32.3610452,189.00415 32.655774,188.938524 L35.734053,188.249456 C37.4369307,187.855702 39.5327802,187.461949 40.384219,187.330697 C40.384219,187.330697 40.384219,187.330697 40.4169667,187.330697 L41.9233585,187.133821 C41.9561061,187.133821 41.9888538,187.133821 42.0543491,187.133821 C42.0870967,186.576003 42.3163303,186.149437 42.6765544,185.591619 C42.6765544,185.591619 42.6765544,185.591619 42.6765544,185.558807 C43.1350215,184.902551 43.6917315,184.213482 44.477675,184.213482 C44.575918,184.213482 44.6741609,184.213482 44.7724039,184.246295 C44.8378992,183.852541 45.0343851,183.524413 45.3291139,183.294724 C45.7220857,182.736906 46.7045151,179.947819 46.8682534,178.536869 C46.9337487,177.618111 47.1957298,176.043097 47.3267204,175.189964 C47.4904587,174.271206 47.6869446,172.630566 47.8506828,171.514931 C47.9489257,170.300858 48.5056358,168.168026 48.9313552,166.724263 L49.782794,164.066427 C49.9137846,163.705486 50.2412611,163.442984 50.6014852,163.377359 L52.8283253,163.147669 C54.0072407,163.016418 54.8259319,162.819541 55.0551654,162.753915 C55.4808848,162.491413 56.1030901,162.392975 56.5288096,162.392975 C56.5943049,162.392975 56.6925478,162.392975 56.7580431,162.392975 C56.8890337,162.392975 57.0527719,162.425788 57.2165102,162.425788 C57.511239,162.4586 57.8059678,162.4586 58.0024537,162.491413 C58.6901544,162.589852 59.8035744,163.475797 60.1310509,163.738299 C61.2444709,164.68987 61.5719474,165.378939 61.5719474,166.724263 C61.5391997,169.841479 63.9625257,175.058713 64.8467122,175.452466 C65.4689175,175.714969 66.1566181,176.239973 66.2548611,176.896229 C66.3203564,177.060293 66.6150852,177.486859 67.008057,177.979051 C67.008057,177.979051 67.008057,177.979051 67.008057,177.979051 C67.564767,178.66812 68.0559817,178.963435 69.1039065,179.225938 C70.3155695,179.521253 71.4944848,179.915006 71.9202042,180.866577 C72.5096619,181.325956 72.4441666,181.916587 72.1166901,182.605655 Z" id="Path" fill="#FFFFFF" fill-rule="nonzero" mask="url(#mask-2)"></path>
                <circle id="DC2" stroke="#FFFFFF" stroke-width="1.5" fill="#D3D3D3" fill-rule="nonzero" mask="url(#mask-2)" cx="18" cy="246.31768" r="2"></circle>
            </g>
        </g>
    </g>
</svg>