<?xml version="1.0" encoding="UTF-8"?>
<svg width="58px" height="313px" viewBox="0 0 58 313" version="1.1" xmlns="http://www.w3.org/2000/svg" xmlns:xlink="http://www.w3.org/1999/xlink">
    <title>MOUNTAIN?</title>
    <defs>
        <rect id="path-1" x="0" y="0" width="58" height="398"></rect>
    </defs>
    <g id="Page-1" stroke="none" stroke-width="1" fill="none" fill-rule="evenodd" opacity="0.763625372">
        <g id="Low-Res-TV" transform="translate(-249.000000, -208.000000)">
            <g id="MOUNTAIN?" transform="translate(249.000000, 153.000000)">
                <mask id="mask-2" fill="white">
                    <use xlink:href="#path-1"></use>
                </mask>
                <g id="Mask"></g>
                <path d="M306.376465,135.102226 C306.4421,137.232698 304.899672,139.428722 303.160338,139.592605 C303.029068,139.592605 302.897797,139.592605 302.799344,139.592605 C301.946086,139.592605 301.453822,139.26484 301.092828,138.445428 C301.092828,138.445428 301.092828,138.412651 301.06001,138.412651 C301.06001,138.445428 301.027193,138.478204 301.027193,138.510981 C300.863105,138.773193 300.436476,139.625381 299.68167,139.625381 C298.697142,139.625381 298.139242,138.412651 297.811066,135.429991 C297.712613,134.51225 297.581343,133.889497 297.48289,133.430626 C297.384437,134.446697 296.957808,135.036674 296.006097,135.921639 C294.955933,136.904933 294.890298,137.101592 294.594939,139.133734 C294.135492,142.640818 293.085328,143.722442 290.16456,143.787995 C290.03329,143.787995 289.902019,143.787995 289.803566,143.787995 C288.950308,143.787995 287.998597,143.689665 287.736056,142.968583 C287.440697,142.2475 288.031415,141.493641 289.048761,140.543123 C289.902019,139.756487 290.000472,139.494275 290.000472,138.642087 L290.000472,138.445428 C289.114396,138.871522 288.162685,139.133734 287.473515,139.133734 C287.079704,139.133734 286.784345,139.068181 286.554622,138.871522 C286.095175,138.937075 284.388659,139.985923 283.010319,140.805335 C281.992972,141.428088 280.680267,142.018065 280.08955,142.149171 C280.056733,142.149171 280.056733,142.149171 280.056733,142.149171 C279.761374,142.181947 279.26911,142.280277 278.842481,142.34583 C278.547122,142.378606 278.284581,142.444159 278.054858,142.476936 C277.562593,142.542489 275.724807,143.165242 273.755749,143.951877 C273.19785,144.181313 272.63995,144.410748 272.147686,144.607407 C271.195975,145.000725 270.277081,145.361266 270.145811,145.426819 C270.080176,145.459596 270.01454,145.492372 269.948905,145.492372 C269.916087,145.492372 269.88327,145.492372 269.817635,145.492372 C269.128465,145.492372 268.472112,144.771289 268.242389,144.476301 C267.12659,143.099689 267.159407,141.362535 268.275206,139.854817 C268.898741,139.035405 269.062829,138.117663 268.931559,137.691569 C268.898741,137.560463 268.833106,137.527686 268.833106,137.527686 C268.340842,137.363804 267.979848,137.068816 267.848577,136.675498 C267.618854,136.085521 267.81576,135.331662 268.50493,134.184485 C269.030012,133.365073 269.095647,133.135637 268.898741,130.611848 C268.570565,125.990364 268.669018,120.516691 269.1941,115.2069 L269.1941,115.108571 C269.226917,114.6497 269.358188,113.273088 269.522276,111.896475 C269.653547,110.487087 269.88327,109.471016 270.244264,108.618827 C270.178628,108.651603 270.080176,108.68438 269.981723,108.68438 L269.948905,108.68438 C269.784817,108.68438 269.587911,108.58605 269.489458,108.454944 C269.719182,108.815486 269.719182,108.913815 269.719182,109.044921 C269.719182,109.33991 269.719182,109.569345 267.389131,111.306499 C264.599633,113.43697 262.827481,115.403559 262.630575,116.550736 C262.532123,117.271819 261.777317,119.172855 260.924059,120.844456 C260.103619,122.450503 259.348813,124.122104 259.184725,124.548198 C258.659643,126.088693 252.555566,128.973024 249.700433,129.792436 C248.978445,129.989095 247.764193,130.349636 246.484306,130.742954 C245.466959,131.037942 244.416795,131.332931 243.497902,131.595143 C239.001888,132.906202 225.349757,136.83938 223.905782,138.838746 C223.643241,139.199287 223.249429,140.182582 223.085341,141.001994 C222.921253,141.886959 222.494624,143.624112 222.067995,144.869619 C221.542913,146.606773 221.247555,147.557291 219.967667,147.557291 C218.884686,147.557291 215.832647,150.73661 214.68403,153.850376 C214.355854,154.800894 213.633866,156.177506 213.075967,157.095248 C214.290219,155.4892 216.128006,153.325952 217.079717,152.440987 C217.703251,151.85101 218.950321,150.703833 219.869214,149.884421 C220.820925,148.999456 222.494624,147.786726 223.577606,147.09842 C224.594952,146.475667 226.596827,145.164607 227.975167,144.214089 C229.747319,142.968583 231.224112,142.280277 232.799357,141.886959 C233.751068,141.657523 234.407421,141.493641 234.998138,141.493641 C235.687308,141.493641 236.278025,141.657523 237.196919,141.952512 C238.870617,142.476936 239.494152,142.837477 240.084869,143.984654 C241.528845,146.705102 241.299121,148.638915 239.231611,151.162704 C238.443988,152.113222 237.853271,152.768752 237.229736,153.227622 C238.247083,152.768752 239.330064,152.473763 240.084869,152.473763 C241.364757,152.473763 241.430392,153.358728 241.430392,153.522611 C241.430392,154.047035 240.938128,154.932 240.839675,155.095882 C240.248957,156.14473 240.380228,158.635742 240.90531,159.324049 C241.299121,159.848472 241.72575,160.766214 241.889839,161.45452 C241.955474,161.782285 242.28365,162.372262 242.907185,163.093344 C242.84155,162.536144 243.071273,161.880614 243.465084,161.061202 C243.826078,160.307343 244.515248,158.996284 245.270054,158.996284 C245.434142,158.996284 245.893588,158.996284 247.632922,160.569555 C248.190822,161.126755 248.486181,161.356191 248.650269,161.45452 C249.175351,161.028426 250.225514,160.930096 251.013137,160.930096 C251.932031,160.930096 252.719654,160.79899 252.883742,160.700661 C253.835453,160.209014 256.231139,159.520708 257.117215,159.520708 C257.478209,159.520708 257.74075,159.619037 257.87202,159.848472 C258.068926,160.110688 258.167379,160.536779 257.642297,161.651179 C257.642297,161.651179 257.642297,161.683956 257.609479,161.683956 C257.412574,162.044497 257.18285,162.962238 257.150033,163.716098 L257.150033,163.748874 C257.084397,164.568286 256.887492,165.223816 256.559315,165.617134 C257.18285,165.453251 257.675115,165.256592 257.937656,165.059933 C258.626826,164.601063 259.25036,164.338851 259.775442,164.338851 C259.93953,164.338851 260.103619,164.371627 260.267707,164.43718 C260.267707,164.43718 260.267707,164.43718 260.300524,164.43718 C260.464612,164.502733 261.1866,164.633839 262.105494,164.666616 C262.630575,164.699392 263.155657,164.764945 263.615104,164.896051 C263.352563,164.601063 263.057205,164.306074 262.794664,164.011086 C261.941405,163.093344 260.759971,161.880614 261.514776,161.028426 C261.646047,160.79899 262.105494,159.651813 262.761846,157.783554 C264.763721,151.687128 265.649797,151.687128 266.043608,151.687128 C267.192225,151.687128 268.012665,153.653717 268.045483,154.932 L268.045483,154.964776 C268.045483,156.931365 268.439295,157.029695 268.800288,157.128024 C270.178628,157.488566 271.983598,159.12739 271.983598,160.34012 C271.983598,160.995649 271.327245,162.241156 270.867799,162.929462 C270.080176,164.109415 269.456641,164.797722 268.537747,164.797722 C268.340842,164.797722 267.94703,165.027157 267.586036,165.518804 C267.12659,166.141557 266.732778,166.633205 266.174879,166.698758 C266.240514,166.797087 266.306149,166.928193 266.338967,167.026523 C266.929684,168.272029 266.306149,168.894782 264.468362,170.697489 C263.385381,171.779113 262.171129,172.991843 261.908588,173.286831 C261.908588,173.286831 261.908588,173.286831 261.87577,173.286831 C260.792789,174.434008 257.74075,176.859468 256.821856,177.088903 C256.657768,177.154456 256.067051,177.67888 255.541969,178.596622 C254.885617,179.711022 254.458988,180.432105 253.474459,180.432105 C253.277553,180.432105 253.113465,180.399328 252.916559,180.366552 C252.752471,180.333775 252.621201,180.333775 252.522748,180.333775 C252.424295,180.333775 252.391478,180.333775 252.391478,180.333775 C252.391478,180.333775 252.325842,180.366552 252.194572,180.628764 C251.997666,181.087634 251.899213,181.415399 251.899213,181.513729 C251.899213,181.644835 251.899213,181.939823 250.881867,184.463612 C250.094244,186.364648 249.273803,187.544602 247.632922,189.216203 C245.335689,191.57611 245.270054,191.57611 244.974695,191.57611 C244.90906,191.57611 244.810607,191.57611 243.202543,191.182792 C241.03658,190.691144 239.920781,189.445638 239.067523,186.528531 C238.640894,185.119142 238.575259,184.2014 238.8378,183.447541 C238.8378,183.447541 238.8378,183.414765 238.8378,183.414765 C239.395699,181.9726 241.627298,178.727728 243.038455,177.187233 C243.727625,176.433374 244.482431,175.548409 244.679336,175.25342 C244.843425,175.056761 245.04033,174.827326 245.302871,174.663443 C244.941877,174.59789 244.646519,174.368455 244.482431,174.007914 C244.35116,173.712925 244.318343,173.319608 244.416795,172.893513 C242.677461,175.286197 239.691058,178.23608 238.312718,178.23608 C237.886089,178.23608 237.787636,178.268857 237.557912,178.760504 C237.557912,178.760504 237.557912,178.793281 237.525095,178.793281 C236.934378,180.00601 235.359132,180.792646 233.521345,180.792646 C232.963445,180.792646 232.438364,180.727093 231.913282,180.595987 C230.961571,180.366552 229.944224,179.252151 229.287872,177.777209 C229.287872,177.777209 229.287872,177.777209 229.287872,177.744433 C229.156601,177.416668 228.76279,177.088903 228.631519,177.056127 C226.69528,176.597256 224.693405,170.468053 224.693405,167.452617 C224.693405,166.469322 224.529317,166.108781 224.135505,165.74824 C222.986888,164.666616 221.411643,163.847204 220.525567,163.847204 L219.475403,163.847204 C219.344132,163.847204 219.24568,163.814427 219.147227,163.748874 C219.114409,164.043862 218.884686,164.306074 218.589327,164.338851 L217.30944,164.53551 C216.882811,164.601063 216.324911,164.633839 215.865465,164.633839 C215.471653,164.633839 215.176295,164.601063 214.946571,164.568286 C214.848118,164.53551 214.749665,164.53551 214.68403,164.53551 C214.55276,164.53551 214.454307,164.53551 214.191766,164.896051 C213.633866,165.64991 212.288344,170.009183 212.025803,172.074101 C211.960168,172.729631 211.796079,173.876808 211.664809,174.860102 L211.533538,175.679514 L211.467903,176.269491 C211.303815,177.318339 211.139727,178.531069 211.106909,179.186598 C210.811551,181.907047 209.761387,184.234177 208.317412,185.250248 C207.759512,185.643566 206.939071,186.430201 206.54526,186.987402 C206.118631,187.642931 205.331008,188.364014 204.674656,188.462343 C204.313662,188.527896 201.753887,189.085097 198.701848,189.773403 C195.78108,190.428933 192.532136,190.953356 191.481972,190.953356 C189.808273,190.953356 189.316009,190.82225 188.659656,189.70785 C188.298662,189.117873 188.003304,188.134579 187.904851,187.380719 C187.872033,187.216837 187.839216,186.921849 187.806398,186.790743 C187.77358,186.790743 187.707945,186.757966 187.64231,186.757966 C187.740763,186.889072 187.806398,187.020178 187.806398,187.184061 C187.872033,187.708484 188.036121,188.462343 188.233027,189.085097 C188.233027,189.085097 188.233027,189.117873 188.233027,189.117873 C188.528386,190.166721 187.937669,190.789474 187.018775,191.57611 C185.0169,193.280487 183.310384,195.11597 180.947515,198.033077 C178.551829,201.048514 178.059564,201.146843 177.928294,201.146843 C177.895476,201.146843 177.895476,201.146843 177.862659,201.146843 C177.632935,201.212396 177.0094,201.704043 176.812495,202.031808 C176.845312,202.228467 176.812495,202.457902 176.714042,202.654561 C176.18896,203.670632 173.43228,204.358939 171.725763,204.391715 C167.722014,204.522821 162.504012,206.849951 161.486665,208.488776 C160.73186,209.734282 160.666225,210.094823 160.699042,210.193153 C160.699042,210.193153 160.73186,210.291482 161.224124,210.488141 C161.617936,210.652024 162.1102,210.78313 162.438376,210.78313 C162.536829,210.78313 162.569647,210.78313 162.569647,210.78313 C162.700917,210.750353 162.832188,210.717577 162.963458,210.717577 C163.751081,210.717577 164.17771,211.405883 164.505887,212.126965 C164.801245,212.782495 165.063786,213.405248 164.702792,213.929672 C164.308981,214.519649 163.455723,214.585202 162.143018,214.585202 C161.027219,214.585202 157.778274,215.797932 156.826563,216.519014 C156.892198,216.551791 156.925016,216.617344 157.023469,216.682897 L157.843909,217.30565 C158.040815,217.469532 158.139268,217.698968 158.10645,217.96118 C158.073633,218.223392 157.876727,218.387274 157.614186,218.452827 L156.72811,218.682262 C156.498387,218.747815 156.203028,218.780592 155.874852,218.780592 C155.316953,218.780592 154.627782,218.715039 154.037065,218.551156 C153.15099,218.321721 152.59309,218.223392 152.133643,218.223392 C150.755303,218.223392 149.770774,219.07558 146.981277,221.959911 C144.815314,224.221488 144.191779,224.745912 142.911892,224.745912 C142.288357,224.745912 141.303828,224.811465 140.778746,224.877018 L139.728582,224.975347 C139.695765,224.975347 139.695765,224.975347 139.662947,224.975347 C139.433224,224.975347 139.236318,224.877018 139.105047,224.680359 C138.973777,224.4837 138.973777,224.221488 139.07223,223.992053 L139.597312,223.074311 C140.089576,222.189346 140.713111,221.796028 141.796092,221.632146 C142.452445,221.533816 143.07598,221.337158 143.174433,221.238828 C143.174433,221.238828 143.174433,221.238828 143.20725,221.238828 C143.469791,220.976616 143.699514,219.73111 143.568244,219.305016 C143.272885,219.108357 142.813439,218.583933 143.338521,217.666191 C143.469791,217.403979 143.699514,216.65012 143.797967,216.027367 C143.797967,216.027367 143.797967,215.994591 143.797967,215.994591 C143.962055,215.240731 144.355867,214.290213 144.880949,213.929672 C145.931113,213.208589 146.784371,211.471436 146.718736,210.652024 C146.6531,209.963717 146.587465,208.193787 146.554648,206.817175 C146.52183,204.227833 146.620283,203.801738 147.7689,201.73682 L148.786246,199.934113 L148.326799,198.918042 C148.031441,198.295289 147.506359,197.508653 147.178182,197.180888 C146.587465,196.656465 146.062383,195.7715 146.324924,195.11597 C146.456195,194.755429 146.784371,194.55877 147.178182,194.55877 C147.407906,194.55877 147.703264,194.55877 149.803592,196.722018 C151.477291,198.426395 153.15099,199.508019 154.791871,199.96689 C154.857506,199.999666 154.923141,199.999666 155.021594,199.999666 C155.415405,199.999666 155.677946,199.639125 155.776399,199.409689 C156.137393,198.688607 156.203028,197.475877 155.546676,196.558135 C154.693418,195.312629 151.149115,191.510557 150.328674,190.887803 C150.131768,190.756697 149.114422,190.428933 147.867352,190.297827 C146.620283,190.166721 144.782496,189.773403 143.797967,189.511191 C142.550898,189.15065 140.614658,189.019544 137.332896,189.019544 C132.836882,189.019544 132.147712,189.019544 131.491359,188.069026 C131.327271,187.83959 130.441195,187.184061 129.522302,186.692413 C128.078327,185.938554 127.454792,185.446907 127.389156,184.365283 C127.356339,184.103071 127.06098,183.414765 126.601534,182.923118 C125.977999,182.300364 125.617005,181.87427 125.748275,181.349846 C125.846728,180.890976 126.273357,180.727093 126.437445,180.66154 C126.503081,180.628764 126.535898,180.628764 126.535898,180.628764 C126.535898,180.628764 126.601534,180.366552 126.010816,179.514363 C125.649823,178.989939 125.026288,177.908315 124.632476,177.02335 C124.140212,175.90895 124.074577,175.876173 123.221319,175.777844 C121.908614,175.581185 118.298675,173.876808 117.281329,172.92629 C116.821882,172.500195 116.592159,171.549677 116.559341,170.795818 C116.526524,170.173065 116.362436,169.222547 116.263983,168.7309 L116.132712,168.304805 L113.999567,168.435911 C113.343214,168.468688 112.818132,168.501464 112.391503,168.501464 C111.111616,168.501464 110.455264,168.239252 109.109741,167.583723 L107.534495,166.797087 L106.517149,167.452617 C106.353061,167.550946 106.057702,167.747605 105.860797,167.878711 C106.024885,168.042594 106.22179,168.337582 106.188973,168.7309 C106.123338,169.320876 105.565438,169.746971 103.990192,170.730265 C102.743123,171.549677 101.299147,172.729631 100.741248,173.319608 C99.9208071,174.204573 99.3957252,174.69622 98.0173851,174.69622 C97.1969445,174.69622 96.0811454,174.532338 93.948,174.171796 C92.7009303,173.942361 90.6006026,173.745702 89.2550801,173.712925 C87.4501109,173.647372 84.8575188,173.057396 84.3324368,171.942995 C84.2668016,171.942995 84.1683487,171.910219 84.0370782,171.910219 C83.1181848,171.910219 82.0680209,171.090807 81.5101214,170.566383 C80.9194042,170.009183 80.6896808,169.812524 80.328687,169.714194 C79.8692403,169.583088 79.114435,169.583088 77.7032772,169.583088 C75.2419556,169.583088 74.257427,169.419206 73.7651626,168.927559 C73.6667098,168.829229 73.0759926,168.567017 72.3868225,168.435911 C70.1552242,168.042594 69.8598657,167.41984 69.6301423,164.99438 C69.4660542,163.290003 69.4332366,163.290003 68.7112489,162.962238 C67.923626,162.568921 67.5626321,162.273932 67.4313616,161.716732 C67.398544,162.01172 67.3657264,162.273932 67.3657264,162.437815 L67.1688207,164.011086 C67.1360031,164.338851 66.8406445,164.601063 66.5124682,164.601063 L66.4796506,164.601063 L63.1650708,164.502733 C61.4257369,164.469957 58.7675095,164.338851 56.6671817,164.207745 C54.993483,164.109415 52.7290671,163.912756 51.7117209,163.781651 C48.8237701,163.421109 47.7407886,163.290003 45.804549,163.093344 C45.804549,163.093344 45.804549,163.093344 45.7717313,163.093344 C45.2466494,163.027791 44.6887498,162.962238 44.1964855,162.896685 C43.7370388,162.831133 43.3760449,162.798356 43.1463216,162.76558 C42.3915163,162.66725 39.897377,162.372262 36.1233506,161.978944 L34.1542933,161.782285 C33.826117,161.749509 33.5635761,161.45452 33.5635761,161.126755 L33.5963937,160.176237 C33.4651232,160.962873 33.2025822,161.749509 32.4477769,161.749509 C32.2180536,161.749509 31.9883302,161.651179 31.7586069,161.487297 C31.4304307,161.421744 30.5115372,161.323414 29.2644676,161.192308 L28.3127566,161.093979 C27.1641398,160.995649 26.1467936,160.89732 25.7857997,160.831767 C25.3591706,160.766214 24.0464658,160.602332 22.8650314,160.504002 C21.6507794,160.405673 20.3380745,160.24179 19.8786278,160.176237 C19.4519987,160.110688 18.1392939,159.946802 16.9578595,159.848472 C15.6451546,159.750143 10.6896937,158.734072 6.68594389,157.81633 C3.56826983,157.095248 0.745954368,156.472494 -0.76365623,156.14473 C-1.45282629,155.980847 -1.74818488,155.915294 -1.84663775,155.915294 C-2.43735494,155.784188 -2.89680164,155.685859 -3.38906596,155.554753 C-4.14387126,155.39087 -4.93149418,155.226988 -6.08011094,154.964776 C-6.53955765,154.866447 -7.03182197,154.735341 -7.45845105,154.669788 C-8.11480349,154.538682 -8.63988544,154.407576 -8.83679117,154.374799 C-9.0336969,154.342023 -9.4931436,154.243694 -10.0838608,154.112588 C-10.674578,153.981482 -11.363748,153.817599 -12.0529181,153.686493 C-13.8578873,153.293175 -14.5470573,153.06374 -14.8424159,152.539316 C-14.8752336,152.473763 -14.9080512,152.40821 -14.9408688,152.309881 C-15.0393217,152.572093 -15.2362274,152.899858 -15.6628565,152.899858 C-15.8597622,152.899858 -15.9910327,152.834305 -16.0566679,152.768752 C-16.0566679,152.768752 -16.0894856,152.768752 -16.0894856,152.735975 C-16.3520265,152.637646 -17.4021904,152.375434 -18.5508072,152.047669 C-19.2071596,151.883787 -19.9291473,151.687128 -20.651135,151.490469 C-22.1935632,151.097151 -23.5719033,150.73661 -24.8189729,150.408845 C-30.6933272,148.86835 -33.6469132,148.081714 -35.222159,147.491738 C-36.3379581,147.065643 -36.8302225,146.705102 -37.1583987,146.246231 C-37.1583987,146.279008 -37.1912163,146.311784 -37.1912163,146.344561 C-37.3224868,146.606773 -37.6178454,146.770655 -37.9460216,146.770655 C-38.0772921,146.770655 -38.2085626,146.737879 -38.4054683,146.705102 C-38.4054683,146.705102 -38.4054683,146.705102 -38.4382859,146.705102 C-38.602374,146.639549 -40.604249,146.016796 -43.1312058,145.23016 C-45.4284394,144.509078 -48.2507548,143.624112 -50.7120764,142.870253 C-52.5170456,142.313053 -71.7153543,135.135003 -79.6244012,132.021237 C-80.8714708,131.52959 -82.4795342,130.939613 -83.0702514,130.710178 C-84.6126797,130.152977 -84.9736735,129.563001 -84.9736735,127.79307 C-84.9736735,126.973658 -85.2033968,126.67867 -85.4331202,126.482011 C-87.5662656,124.712081 -88.2554357,123.859892 -88.2554357,123.007704 C-88.2554357,122.974927 -88.2554357,122.942151 -88.2554357,122.909374 C-89.0430586,122.679939 -89.7978639,121.696644 -90.2573106,120.61502 C-90.0932225,121.794974 -89.7650463,122.319397 -88.6492471,123.827116 C-86.6801898,126.416458 -86.4504665,126.908105 -86.1551079,129.595777 C-86.0238374,130.677401 -85.7284788,132.021237 -85.4987554,132.611214 C-85.4987554,132.611214 -85.4987554,132.64399 -85.4987554,132.64399 C-85.0393087,134.020602 -85.1377616,134.51225 -85.4659378,134.774462 C-85.7284788,135.036674 -86.1879255,135.135003 -86.8770955,135.135003 C-87.9928947,135.135003 -89.699411,134.807238 -90.5854868,134.250038 C-92.7186322,132.873426 -96.1316649,128.612483 -96.1316649,126.842552 C-96.1316649,126.350905 -96.1316649,126.318129 -96.6567468,126.12147 C-97.8381812,125.695375 -98.724257,124.285987 -99.2493389,121.991633 C-99.2493389,121.991633 -99.2493389,121.958856 -99.2493389,121.958856 C-99.3149742,121.499985 -99.7416033,120.61502 -100.102597,120.090597 C-100.102597,120.090597 -100.102597,120.090597 -100.102597,120.05782 C-100.529226,119.40229 -101.119943,118.18956 -101.480937,117.337372 C-101.776296,116.616289 -102.596736,115.010241 -103.351542,113.731959 C-104.237617,112.191464 -104.926787,110.487087 -105.156511,109.274357 C-105.386234,108.159956 -105.780046,106.81612 -105.976951,106.291696 C-106.469216,105.078967 -106.436398,104.652872 -105.254964,103.669578 C-104.828335,103.309036 -103.876624,102.686283 -103.220271,102.686283 C-102.596736,102.686283 -101.546572,103.145154 -96.9521054,108.454944 C-96.4926587,108.979368 -96.033212,109.503792 -95.6722182,109.929886 C-95.6722182,109.700451 -95.6394005,109.405463 -95.6065829,109.077698 C-95.5409477,108.651603 -95.5409477,108.389392 -95.5409477,108.225509 C-95.8691239,108.159956 -96.2301177,107.996074 -96.4270235,107.701085 C-96.5911116,107.569979 -97.1490111,107.176662 -97.9038164,106.750567 C-99.1508861,106.029485 -99.8072385,105.373955 -99.8072385,104.882308 C-99.8072385,104.751202 -99.8728737,104.423437 -99.9056914,104.194001 C-99.9056914,104.128449 -99.938509,104.030119 -99.938509,103.964566 C-100.135415,103.014048 -100.135415,102.391295 -100.102597,98.8514345 C-100.069779,95.8687744 -100.036962,95.508233 -98.8227098,94.492162 C-98.6258041,94.3282796 -98.2648103,94.0005147 -98.2319927,93.9021853 C-98.2319927,93.8694088 -98.2319927,93.7383029 -98.3960808,93.3449851 C-98.6258041,92.7222318 -98.7898922,91.6078314 -98.7898922,90.7884193 C-98.7898922,89.9690071 -99.0524332,89.3462539 -99.9713266,87.9696416 C-101.087126,86.3963703 -101.415302,85.7080641 -101.218396,84.4625577 C-101.087126,83.6759221 -100.627679,82.790957 -100.135415,82.3976392 C-99.7744209,82.1026508 -99.6431504,82.0043214 -100.75895,79.8082969 C-101.382484,78.5627905 -101.480937,77.7106019 -101.480937,73.9413061 C-101.480937,69.8770221 -101.480937,69.4509278 -100.430773,68.4020802 C-99.9056914,67.8776565 -98.6914394,67.1565738 -97.6084578,66.763256 C-95.3768596,65.9110674 -93.8016137,64.4033491 -93.8016137,63.583937 C-93.8016137,62.1089952 -93.0468084,60.4373945 -91.7012859,58.9624527 C-90.9464806,58.1102641 -90.8480278,57.9791581 -90.8480278,56.2420044 C-90.8480278,54.5376272 -90.913663,54.4720743 -91.6028331,53.8493211 C-92.8170851,52.7676971 -94.8517776,48.9328484 -95.4424948,46.6712709 C-95.8034887,45.2618821 -95.7378534,44.4752465 -94.9174129,41.197598 C-94.1626076,38.0510555 -94.0969723,37.4610787 -94.3923309,35.920584 C-94.5892366,34.83896 -94.81896,32.544606 -94.9502305,30.8402288 C-95.0486834,29.1358516 -95.2127715,27.4642509 -95.2784067,27.1037096 C-95.3112243,27.0053801 -95.3112243,26.8414977 -95.3440419,26.6776153 C-95.4096772,26.2187445 -95.5409477,25.6287678 -95.6065829,25.104344 C-95.7050358,24.4815908 -96.1973001,22.1872369 -96.7551997,19.7945535 C-97.2802816,17.4674231 -97.8053636,15.3369516 -97.9038164,14.9764103 C-97.9038164,14.9764103 -97.9038164,14.9764103 -97.9038164,14.9436338 C-97.9366341,14.7797514 -98.2319927,14.4519865 -98.8883451,14.1569982 C-99.7087856,13.8292333 -100.496409,13.5014685 -100.824585,13.5014685 C-100.923038,13.5014685 -100.988673,13.5014685 -101.316849,13.9931157 C-101.841931,14.8780808 -102.629554,15.4025046 -104.237617,15.9924813 C-105.287781,16.3530226 -106.764574,16.9429994 -107.453744,17.3035407 C-107.453744,17.3035407 -107.453744,17.3035407 -107.486562,17.3035407 C-107.749103,17.4346466 -108.011644,17.5329761 -108.20855,17.6313055 C-108.864902,17.9262939 -108.963355,17.9918469 -109.127443,17.9918469 C-109.324349,17.9918469 -109.521255,17.8935174 -109.652525,17.729635 C-109.882248,17.4346466 -109.816613,17.2379877 -109.58689,16.0908108 C-109.58689,16.0908108 -109.58689,16.0580343 -109.58689,16.0580343 C-109.160261,14.5175395 -109.488437,10.8137967 -109.980701,10.0599376 C-110.669871,9.04386655 -110.735507,6.61840669 -110.243242,5.70066512 C-109.980701,5.17624136 -109.58689,5.11068839 -109.357166,5.11068839 C-109.291531,5.11068839 -109.258714,5.11068839 -109.193078,5.11068839 C-109.160261,5.11068839 -109.160261,5.11068839 -109.127443,5.11068839 C-108.569543,5.27457082 -101.645025,9.76494921 -101.57939,9.7977257 C-91.0121159,16.6807875 -79.8213069,23.4982963 -74.3735817,26.3498504 C-71.8466248,27.6609098 -69.3196679,29.0047457 -69.057127,29.1686281 C-68.2366864,29.7258284 -58.2273118,34.8061835 -54.3876501,36.5761137 C-51.9591461,37.6905141 -46.8724147,39.7882091 -43.0983882,41.2303745 C-35.8128762,44.0819286 -35.7144233,44.1802581 -35.5503352,44.311364 C-35.3534295,44.5080229 -35.2877942,44.7374583 -35.2877942,44.9996702 C-35.1893414,44.7374583 -34.9268004,44.5735759 -34.6642594,44.5735759 C-34.5986242,44.5735759 -34.532989,44.5735759 -34.4673537,44.6063524 L-27.2146593,47.0318123 C-23.2437271,48.3756481 -17.2052847,50.2439077 -13.7594344,51.2599788 C-11.7903771,51.817179 -8.93524403,52.6693676 -6.17856381,53.4887797 C-4.07823602,54.1115329 -2.01072585,54.7015097 -0.337027148,55.1931569 C6.98130249,57.2908519 7.11257298,57.4219579 7.24384346,57.5530638 C7.44074919,57.7497227 7.47356682,58.0119346 7.47356682,58.2085935 C7.67047255,57.8808287 7.96583114,57.6841698 8.3596426,57.6841698 C8.45809547,57.6841698 8.58936595,57.7169462 8.68781882,57.7169462 C9.18008314,57.8480522 11.444499,58.3396995 13.6104621,58.7330173 C13.6104621,58.7330173 13.6432797,58.7330173 13.6432797,58.7330173 C13.8073678,58.7657938 14.0370912,58.7985702 14.2668145,58.8641232 C14.5949907,58.9296762 14.8575317,58.9624527 15.087255,59.0280056 C16.4655952,59.322994 29.8223672,61.9123363 30.6099901,62.0434422 C31.0038016,62.1089952 32.4477769,62.3712071 34.2855637,62.7317484 L35.4013629,62.9611838 C37.8298669,63.4528311 39.9630123,63.8133724 40.5865471,63.8789254 C41.7679815,64.0100313 42.2602458,64.1739137 42.3915163,64.9277729 L42.4243339,64.665561 C42.4571515,64.3377961 42.7525101,64.0755843 43.0806864,64.0755843 C43.113504,64.0755843 43.113504,64.0755843 43.1463216,64.0755843 L44.6231146,64.2066902 C44.6231146,64.2066902 44.6559322,64.2066902 44.6559322,64.2066902 C45.4435551,64.3377961 46.9859833,64.5016786 48.1346001,64.600008 C49.2832169,64.6983375 51.5148151,64.9605494 52.7618848,65.0916553 C53.9761368,65.2227612 56.207735,65.4849731 57.3235342,65.5833026 C58.3736981,65.681632 59.6207677,65.812738 60.0473968,65.8782909 C60.375573,65.9438439 61.7210955,66.1077263 62.9353475,66.2388323 C64.018329,66.3371617 65.1013105,66.5010441 65.5279396,66.5338206 L65.6920277,66.5665971 C65.7248453,66.5665971 65.7576629,66.5665971 65.7576629,66.5993736 C65.8889334,66.6321501 66.6765563,66.7304795 67.3329088,66.7960325 C67.7267202,66.828809 68.1861669,66.8943619 68.612796,66.9599149 C69.0722427,67.0254679 69.5316894,67.0582444 69.9255009,67.1237973 C70.9756648,67.2549033 71.2710234,67.2876798 71.4022939,67.3204562 C71.5991996,67.3532327 72.6493635,67.3860092 73.2728983,67.4187857 L75.0122323,67.4515622 C75.209138,67.4515622 75.3732261,67.5498916 75.5044966,67.6809976 C75.6357671,67.8121035 75.7014023,68.0087624 75.6685847,68.2054213 L75.4060437,70.4342223 C74.8809618,74.6951653 75.1106851,76.5306484 75.3075909,76.9239662 C75.471679,77.2845076 76.8172015,77.5794959 78.0642711,77.8417078 C81.5101214,78.5627905 82.7900086,79.2838731 83.1181848,81.8076625 C83.3479082,83.6103691 83.5448139,84.5281107 84.2011663,87.6418767 C85.1200597,92.0339257 85.2185126,92.6239024 84.8903364,93.5088675 C84.8903364,93.541644 84.8575188,93.5744204 84.8575188,93.5744204 C84.9559716,93.5744204 85.0872421,93.6071969 85.3169655,93.6071969 C86.5640351,93.6071969 88.4018219,93.3122086 88.828451,93.1155497 C89.0253567,92.8861143 89.5832563,92.5583494 91.519496,92.4927965 C91.6835841,92.4927965 91.8804898,92.4927965 92.0117603,92.4927965 C93.2588299,92.4927965 93.9808176,92.6239024 94.4402643,93.2794321 C94.6699877,93.6071969 95.162252,93.8038558 97.2953974,94.1316207 C97.328215,94.1316207 101.069424,94.7543739 101.069424,96.0982098 L101.069424,96.1309863 C101.200694,95.9998803 101.364782,95.9015509 101.561688,95.9015509 C101.660141,95.9015509 101.791412,95.9343273 101.889864,95.9998803 L102.972846,96.6226335 C103.924557,97.1470573 106.615602,99.3103053 106.845325,100.391929 C106.910961,100.523035 107.206319,100.916353 107.764219,101.473553 C108.453389,102.161859 109.109741,102.456848 110.488081,102.71906 C111.997692,103.014048 113.015038,103.472919 113.769843,104.194001 C114.590284,104.947861 115.246636,105.210072 116.624977,105.275625 C117.412599,105.308402 119.020663,106.619461 119.512927,107.045556 L121.120991,108.454944 L127.028163,108.651603 C132.410253,108.815486 133.493234,108.946592 134.838757,109.602121 L136.184279,110.290428 C136.414002,110.421534 136.578091,110.650969 136.545273,110.913181 L136.31555,113.764735 C136.118644,115.993536 135.921738,116.780172 135.75765,117.07516 C135.790468,117.173489 135.856103,117.435701 136.053009,117.796243 C136.414002,118.386219 136.840632,119.598949 136.971902,120.516691 C137.332896,123.13881 137.398531,123.302692 137.628254,123.827116 C137.890795,124.35154 137.956431,125.46594 137.890795,126.285352 C137.792343,127.3342 137.923613,127.760294 138.678418,128.940247 C139.925488,130.87406 143.272885,134.872791 143.962055,135.429991 C145.27476,135.757756 147.276635,138.740416 147.834535,140.280911 L148.293981,141.657523 L149.803592,141.526417 L151.838285,141.362535 L151.90392,141.362535 C152.133643,141.362535 152.330549,141.493641 152.461819,141.6903 C152.363367,140.969217 152.297731,140.510346 152.264914,140.412017 C152.166461,140.018699 152.100826,139.559828 152.363367,139.199287 C152.625908,138.805969 153.085354,138.70764 153.643254,138.60931 C153.807342,138.576534 153.938612,138.543757 154.004248,138.510981 C154.004248,138.445428 153.97143,138.314322 153.938612,138.15044 C153.741707,137.167145 153.905795,136.446062 154.726235,135.298885 C155.2185,134.545026 155.546676,133.692838 155.546676,133.463402 C155.546676,133.20119 155.087229,131.824578 154.266789,130.152977 C153.511983,128.579706 152.757178,126.711446 152.560272,125.924811 C152.363367,125.236505 152.002373,124.384316 151.739832,124.056551 C151.280385,123.433798 151.083479,122.548833 151.116297,121.237773 C151.116297,121.237773 151.116297,121.237773 151.116297,121.204997 C151.181932,119.795608 150.459945,118.124007 149.475416,117.599584 C148.884699,117.271819 148.523705,116.550736 148.523705,115.829654 C148.523705,115.534665 148.293981,114.911912 147.998623,114.518594 C147.801717,114.289159 147.211,113.469747 147.211,112.978099 C147.211,111.765369 150.591215,109.602121 150.952209,109.372686 C151.805467,108.848262 152.954084,107.864968 153.479166,107.242215 C154.037065,106.586685 155.152864,105.308402 155.973305,104.357884 C156.925016,103.309036 157.778274,101.899648 158.500262,100.031388 C159.583243,97.4092692 159.616061,96.9503984 159.583243,94.5904915 C159.550426,92.6566789 159.320702,91.2800665 158.66435,89.3134774 C158.172086,87.8057592 157.679821,86.1997114 157.548551,85.7080641 C157.548551,85.7080641 157.548551,85.6752876 157.548551,85.6752876 C157.28601,84.4953342 154.594965,81.4471211 152.494637,80.2999442 C150.230221,79.0872142 147.703264,76.9895192 147.539176,75.219589 C147.506359,74.5640594 147.736082,73.4168824 148.097076,72.6630232 C148.392434,72.0074936 148.654975,71.2536344 148.720611,71.024199 C148.819063,70.4342223 149.475416,69.8114691 149.672322,69.6148102 C149.672322,69.6148102 149.672322,69.5820337 149.705139,69.5820337 C150.000498,69.3525983 150.164586,69.1559394 150.164586,68.0087624 C150.164586,66.7304795 150.427127,65.9110674 150.985026,65.2883142 C151.181932,65.0588788 151.280385,64.9605494 151.280385,64.8949964 C151.313203,64.731114 151.116297,64.2066902 150.985026,63.9117018 C150.722486,63.1578427 150.459945,62.1745482 150.328674,61.6501244 C150.164586,60.7323828 149.344145,59.1263351 148.425252,57.9136052 C147.604811,56.8319812 147.539176,56.209228 147.539176,52.83325 C147.539176,50.0144724 147.375088,49.1950602 147.243818,48.9984013 C146.850006,48.572307 146.193654,47.1629182 145.767025,46.0485177 L144.848131,43.7869403 C144.782496,43.6230579 144.782496,43.4263989 144.880949,43.22974 L145.734207,41.5253628 C146.620283,39.7554327 146.882824,39.4604443 148.622158,39.2310089 C149.639504,39.099903 150.624033,39.03435 151.477291,39.03435 C152.855631,39.03435 154.004248,39.1982324 154.890323,39.5259973 C156.006123,39.9193151 157.515733,40.181527 158.729985,40.181527 C159.48479,40.181527 159.845784,40.0831975 159.977055,40.050421 C160.370866,39.8865386 161.256942,39.2310089 161.946112,38.5427027 C162.372741,38.1166084 163.48854,37.0677609 164.04644,37.0677609 C164.965333,37.0677609 171.824216,40.8370567 173.43228,41.9186806 C175.073161,42.9675282 175.729513,43.5902814 175.63106,44.6391289 C175.598243,44.9013408 175.762331,45.4913175 176.024872,45.9174118 C176.32023,46.3762826 176.418683,46.5073885 179.50354,46.8679298 C181.275691,47.0973652 183.605742,47.490683 184.590271,47.8184479 L186.198335,48.3428716 C186.493693,48.4412011 186.690599,48.7361895 186.657781,49.0311778 L186.428058,50.8338845 C186.198335,52.4399322 186.428058,53.4560032 187.937669,57.6841698 C188.134574,58.2741465 188.298662,59.1591116 188.298662,59.7818648 L188.298662,59.8146413 C188.265845,60.1424061 188.528386,60.6340534 188.88938,61.0601477 C189.414461,61.5845714 190.103632,62.6334189 190.497443,63.5511605 L190.95689,64.600008 L192.072689,64.4689021 C192.499318,64.4033491 192.794677,64.3705726 193.090035,64.3705726 C194.140199,64.3705726 194.698099,64.8622199 195.945168,65.8782909 C196.896879,66.697703 197.979861,67.3532327 198.308037,67.4515622 C198.669031,67.5498916 199.161295,67.7465505 199.456654,68.0743154 C199.686377,67.910433 200.047371,67.6154446 200.670906,67.0254679 C201.655434,66.0749498 202.016428,65.4849731 202.147699,64.6327845 C202.278969,63.7805959 202.574328,62.8628543 203.493221,62.4695365 C203.690127,62.4039836 204.051121,61.9451128 204.313662,61.1257007 C204.805926,59.6179824 204.707473,56.4386633 204.248026,55.6520277 C204.149574,55.4881453 203.755762,54.6687332 203.952668,54.1115329 C203.985486,53.980427 204.083938,53.4232268 204.182391,52.964356 C204.248026,52.7021441 204.280844,52.4071557 204.346479,52.1121674 C204.60902,50.6044491 205.363826,49.0639543 206.446807,49.0639543 C206.610895,49.0639543 206.807801,49.0967308 206.971889,49.1950602 C207.004707,49.1950602 207.037524,49.2278367 207.070342,49.2606132 C206.54526,47.1956947 206.709348,47.0645887 206.939071,46.8351533 C207.070342,46.7040474 207.267248,46.6384944 207.464153,46.6384944 C207.661059,46.6384944 208.186141,46.6384944 210.352104,48.6050835 C211.36945,49.4900486 212.682155,50.801108 213.404143,51.7844025 C214.093313,52.7349206 214.749665,53.3248973 214.946571,53.4560032 C215.602924,53.5215562 216.292094,54.2426389 216.62027,54.6687332 C216.62027,54.6687332 216.62027,54.6687332 216.653087,54.7015097 C216.948446,55.127604 217.703251,55.8486866 218.228333,56.143675 C219.081591,56.6680987 219.770762,57.5858403 220.295843,58.7657938 C220.689655,59.6835353 220.985014,59.9457472 221.050649,60.0113002 C221.772636,60.0768531 222.494624,60.9618182 222.789983,61.420689 C223.249429,62.1089952 223.544788,62.3056541 224.398046,62.43676 C225.776386,62.6661954 226.235833,63.0267368 226.925003,64.3705726 C227.318815,65.1244318 227.811079,66.4027147 227.909532,67.2876798 C227.975167,67.7137741 228.007985,67.9759859 228.106437,68.0743154 C228.237708,68.2054213 228.631519,68.3365273 229.156601,68.4676332 C230.00986,68.6970686 231.092841,69.1887159 231.552288,69.7131396 C232.339911,70.5653282 232.20864,71.0569755 231.749193,72.5646938 C231.3882,73.8429767 231.421017,74.0396356 231.650741,74.4657299 C231.913282,74.9573772 232.241458,75.7767893 232.339911,76.2356601 C232.438364,76.5962014 232.832175,76.8256368 235.621673,77.8417078 C237.59073,78.530014 239.264429,79.0216613 239.559787,79.0544378 C240.34741,79.0544378 241.528845,80.2343912 241.857021,80.5949325 L242.907185,81.7421095 L245.565412,81.8732154 C247.173476,81.9387684 249.142533,82.2337568 249.930156,82.5287451 C250.29115,82.6598511 250.619326,82.7581805 250.881867,82.7581805 C251.341314,82.7581805 251.767943,82.5287451 252.325842,82.0043214 C252.588383,81.7421095 252.949377,81.6110036 253.376006,81.6110036 C253.835453,81.6110036 254.491805,81.7421095 255.738875,82.1026508 C258.364285,82.8237335 258.626826,83.1514983 258.725278,83.3481572 C258.987819,83.7742515 259.053455,84.3314518 258.856549,84.888652 C258.692461,85.4458523 258.331467,85.9374995 257.839203,86.2652644 C258.068926,86.2324879 258.265832,86.1997114 258.528373,86.1997114 C259.742625,86.1997114 260.267707,86.4946998 261.05533,87.5763238 C261.350688,88.0024181 261.547594,88.2318535 261.646047,88.2318535 C261.711682,88.2318535 261.810135,88.199077 261.941405,88.1663005 C262.597758,88.0024181 263.286928,87.9040886 263.94328,87.9040886 C264.993444,87.9040886 265.912338,88.133524 266.503055,88.5923948 C266.864049,88.8873831 268.045483,89.6412423 269.161282,90.231219 C269.88327,90.6245368 270.57244,91.0178546 270.933434,91.2145136 C271.097522,91.312843 271.195975,91.3456195 271.228792,91.378396 C271.852327,91.7061608 271.589786,92.3616905 271.228792,93.1483261 C270.802163,94.0988442 271.39288,95.8032214 272.607132,97.0159513 C273.624479,98.0320224 275.26536,100.555812 275.26536,101.604659 C275.26536,102.194636 274.182378,103.964566 273.132214,105.406731 C273.165032,105.373955 273.19785,105.341178 273.263485,105.308402 C274.215196,104.587319 274.773095,104.226778 275.298177,104.226778 C275.593536,104.226778 275.888895,104.325107 276.151436,104.554543 C277.628229,105.800049 277.857952,107.340544 277.726681,111.273722 C277.693864,111.929252 277.595411,115.043018 277.33287,115.698548 C277.300052,115.829654 277.168782,116.41963 277.037511,117.534031 C277.135964,117.402925 277.168782,117.337372 277.2016,117.304595 C277.267235,116.97683 277.562593,116.354077 278.973751,116.354077 C279.498833,116.354077 280.023915,116.452407 280.516179,116.616289 C282.091425,117.173489 282.222696,117.599584 282.091425,119.435067 L282.058608,119.828385 L283.010319,119.828385 C283.732306,119.828385 284.257388,119.730055 284.421476,119.697279 C284.815288,119.336737 285.701364,119.041749 286.423351,118.84509 C287.210974,118.648431 288.589314,118.124007 289.541025,117.697913 C290.459919,117.271819 291.378812,117.042383 292.23207,117.042383 C293.052511,117.042383 293.840134,117.239042 294.594939,117.63236 C295.054386,117.861796 295.41538,118.386219 295.612285,119.107302 C295.809191,119.795608 295.842009,120.811679 295.382562,121.499985 C295.316927,121.598315 295.316927,121.631091 295.284109,121.663868 C295.316927,121.696644 295.382562,121.794974 295.54665,121.92608 C295.54665,121.92608 295.54665,121.92608 295.579468,121.92608 C295.842009,122.188292 295.973279,122.253845 296.268638,122.253845 C296.498361,122.253845 296.79372,122.221068 297.285984,122.122739 C298.040789,121.991633 298.500236,121.958856 298.86123,121.958856 C300.272388,121.958856 300.469293,122.876598 300.469293,123.663233 C300.469293,124.744857 299.747306,126.088693 298.565871,127.170317 C298.762777,127.498082 298.86123,127.989729 298.86123,128.4486 C298.86123,128.710812 298.894047,128.973024 298.894047,129.202459 C299.090953,128.874694 299.353494,128.54693 299.5504,128.284718 C300.633381,127.006435 301.125646,127.006435 301.289734,127.006435 C302.077357,127.006435 302.569621,128.120835 302.766527,128.776365 C302.930615,129.333565 303.061885,129.497448 303.094703,129.563001 C303.193156,129.530224 303.422879,129.464671 304.013596,129.038577 C304.210502,128.907471 304.899672,128.415824 305.490389,128.415824 C305.785748,128.415824 305.982654,128.54693 306.081107,128.645259 C306.474918,129.038577 306.573371,130.611848 306.606189,131.52959 C306.278012,132.906202 306.343648,134.41392 306.376465,135.102226 Z" id="Path" fill="#FFDBD0" fill-rule="nonzero" mask="url(#mask-2)"></path>
                <path d="M236.11669,182.605655 C236.11669,182.605655 236.083942,182.605655 236.11669,182.605655 C235.068765,184.574423 233.234897,186.215062 231.532019,186.707254 C230.615085,186.969757 229.56716,187.757264 227.504059,189.726031 C225.899424,191.268233 223.86907,193.072936 222.984883,193.729192 C222.231687,194.319822 221.020024,195.46827 220.365071,196.28859 C219.611875,197.207348 218.465708,198.585485 217.778007,199.405805 C217.286792,199.996435 216.468101,200.948006 216.369858,201.046445 C216.337111,201.079258 216.271615,201.11207 216.238868,201.144883 C216.435354,201.538637 216.533596,201.998016 216.533596,202.391769 C216.533596,202.687084 216.500849,202.949587 216.435354,203.146464 C216.992064,203.212089 217.516026,203.408966 217.908998,203.901158 C218.498455,204.688665 218.301969,205.738674 217.974493,206.788684 C217.843502,207.21525 217.712512,207.707442 217.712512,207.904318 C217.712512,207.937131 217.712512,207.969944 217.908998,208.232446 C218.170979,208.560574 218.85868,209.151205 219.41539,209.479333 C219.41539,209.479333 219.448137,209.479333 219.448137,209.512145 C220.561557,210.201214 220.954529,210.562155 221.08552,210.890283 C221.282005,211.021534 221.64223,211.185598 221.969706,211.316849 C221.904211,211.152785 221.805968,210.955908 221.64223,210.85747 C221.347501,210.660593 220.725295,210.168401 220.954529,209.413707 C221.21651,208.659013 222.002454,208.659013 222.395426,208.659013 C223.279612,208.659013 224.098303,209.380894 224.622266,210.102776 C225.5392,211.382475 225.637443,211.841854 224.720509,213.121553 C224.720509,213.121553 224.687761,213.154365 224.687761,213.154365 C224.55677,213.318429 224.360284,213.515306 224.131051,213.67937 C224.851499,213.777808 225.146228,214.204375 225.244471,214.466877 C225.408209,214.860631 225.440957,215.484074 224.687761,216.238768 C224.458527,216.468457 224.065556,216.862211 223.44335,216.862211 C223.115874,216.862211 222.821145,216.763773 222.460921,216.599709 C221.838715,216.370019 221.511239,215.779389 221.64223,215.155946 C221.64223,215.09032 221.674977,214.991882 221.707725,214.926256 C221.511239,214.991882 221.282005,215.09032 221.08552,215.155946 C221.380248,215.385635 221.609482,215.746576 221.674977,216.107517 C221.805968,216.698147 221.609482,217.0919 221.445744,217.32159 C221.052772,217.813782 220.463314,217.879408 219.9721,217.879408 C219.480885,217.879408 218.891427,217.813782 218.498455,217.32159 C218.334717,217.124713 218.203727,216.829398 218.203727,216.402832 C217.974493,216.468457 217.745259,216.50127 217.516026,216.50127 C217.123054,216.50127 216.76283,216.402832 216.435354,216.205955 C216.435354,216.468457 216.369858,216.73096 216.20612,216.960649 C216.20612,216.993462 216.173372,216.993462 216.173372,217.026275 C215.813148,217.616905 213.553561,219.487234 212.636626,219.487234 C212.44014,219.487234 212.276402,219.454422 212.145412,219.388796 C212.014421,219.716924 211.621449,219.979426 210.835506,220.274741 C211.228477,220.405993 211.424963,220.668495 211.555954,220.865372 C211.75244,221.226312 212.079916,222.145071 210.737263,223.326331 C210.278796,223.720085 209.361862,224.573217 208.706909,225.19666 C208.674161,225.229473 208.674161,225.229473 208.641413,225.262286 C207.397003,226.24667 203.008818,228.379501 201.600669,228.379501 C201.436931,228.379501 201.30594,228.346688 201.174949,228.313876 C201.30594,228.904506 201.502426,229.626387 201.829902,230.381082 C202.190127,231.234214 202.386612,232.349849 202.28837,233.038918 C202.222874,233.53111 202.091884,234.384242 201.993641,234.94206 C201.73166,236.779576 199.177343,241.963997 197.96568,242.751505 C197.867437,242.81713 197.801942,242.849943 197.736446,242.915568 C197.310727,243.210884 196.983251,243.473386 196.426541,243.473386 C196.361045,243.473386 196.262802,243.473386 196.197307,243.440573 C197.081493,244.490583 197.801942,245.737469 197.801942,246.590601 C197.801942,246.951542 197.670951,247.214044 197.474465,247.410921 C197.670951,247.574985 197.769194,247.837487 197.769194,248.132803 C197.769194,248.165615 197.769194,248.198428 197.769194,248.231241 L197.703699,249.642191 C197.703699,249.904693 197.638203,251.282831 197.310727,251.74221 C197.245232,251.840648 197.146989,251.939087 197.048746,252.004712 C196.950503,252.070338 196.819512,252.10315 196.655774,252.168776 C196.85226,252.660968 196.655774,253.087534 196.557531,253.284411 C196.426541,253.612539 196.066316,254.498484 195.804335,255.253179 C195.509606,256.073498 194.985644,257.156321 194.461682,257.681325 C194.428934,257.681325 194.428934,257.714138 194.396186,257.746951 C194.494429,257.845389 194.559925,258.009453 194.62542,258.140704 C194.821906,258.731335 194.527177,259.321965 194.1997,259.84697 C193.937719,260.339161 193.577495,260.831353 193.08628,261.093856 C194.232448,262.176678 194.559925,262.636057 194.559925,263.522002 C194.559925,264.014194 194.363439,264.440761 194.06871,264.768889 C194.461682,265.097016 194.658168,265.589208 194.789158,265.917336 C195.214878,266.967346 195.214878,267.525163 194.723663,268.148606 C195.902578,268.378296 196.623026,268.772049 197.343475,269.592369 C198.948109,271.397073 198.555138,272.447082 197.048746,274.054909 C196.426541,274.743978 196.000821,275.367421 195.902578,275.531485 C195.902578,275.531485 195.902578,275.531485 195.902578,275.531485 C195.509606,276.679932 193.741233,276.876809 192.693309,276.876809 L192.693309,276.876809 C192.693309,276.975247 192.693309,277.139311 192.693309,277.270563 L192.693309,277.729942 L192.988037,277.729942 C193.610243,277.729942 194.62542,277.729942 195.018392,278.583074 C195.411363,279.436207 194.690915,280.28934 194.232448,280.87997 C192.791552,282.586235 191.97286,283.340929 190.335478,283.340929 C189.74602,283.340929 189.516787,283.439368 187.355442,285.70345 C185.16135,288.000346 185.063107,288.262848 185.063107,288.886291 C185.063107,290.461305 184.60464,290.920684 183.163743,291.544128 C181.755594,292.200383 181.460865,292.200383 181.362622,292.200383 C181.002398,292.200383 180.83866,292.069132 180.249202,291.609753 C180.150959,291.773817 180.052716,291.937881 179.954473,292.069132 C179.72524,292.430073 179.365016,292.856639 179.004792,293.283206 C177.4984,295.055096 177.269166,295.514475 177.007185,297.023864 C176.810699,298.106686 176.253989,299.09107 175.27156,300.009828 C174.682102,300.567646 173.568682,301.781719 172.815486,302.667664 C172.029543,303.619235 170.130179,305.522377 168.656535,306.867702 C167.084648,308.344277 166.298704,309.098972 165.643751,309.361474 C165.709247,309.623976 165.741994,309.919292 165.578256,310.345858 C165.512761,310.542735 165.349022,311.067739 164.988798,312.01931 C164.759565,312.675566 164.497584,313.43026 164.235602,314.217767 C163.482406,316.449037 163.15493,317.925613 163.15493,319.074061 C163.15493,319.861568 163.15493,320.845952 162.729211,321.370956 C163.318668,321.895961 163.416911,322.552217 163.449659,322.94597 L163.449659,322.978783 C163.449659,324.881925 166.986405,332.724183 169.671712,336.267964 C171.50558,338.663298 172.258776,340.435189 172.979224,343.814907 C173.142963,344.536788 173.830663,346.341492 174.583859,347.85088 C174.878588,348.408698 175.173317,349.032141 175.500793,349.655584 C176.024756,350.705593 176.581466,351.788415 176.94169,352.477484 C177.989615,354.54469 178.022362,355.004069 178.120605,359.400983 C178.1861,363.108829 178.087858,364.454153 177.596643,365.340099 C177.465652,365.602601 177.170923,366.8823 177.007185,368.326063 C176.974437,368.621378 176.712456,371.082337 176.155746,371.93547 C175.238812,373.379233 172.357019,375.249562 170.457655,375.905818 C169.868198,376.135508 169.27874,376.299572 168.820273,376.463635 C168.59104,376.529261 168.394554,376.594887 168.329058,376.627699 C168.296311,376.627699 168.296311,376.627699 168.263563,376.660512 C168.03433,376.726138 167.870591,376.758951 167.739601,376.758951 C167.313881,376.758951 166.953657,376.496448 166.789919,376.135508 C166.658928,375.840192 166.626181,375.380813 167.150143,374.855809 C167.641358,374.363617 168.820273,373.969863 169.180497,373.838612 C170.785132,373.34642 172.651748,372.066721 173.73242,371.082337 C173.306701,371.147963 172.880981,371.213589 172.48801,371.34484 C172.324271,371.377653 172.193281,371.410465 171.996795,371.410465 C170.457655,371.410465 167.837844,369.408885 166.069471,367.407305 C164.988798,366.160419 163.940874,365.307286 163.678892,365.143222 C162.860201,364.782281 161.976015,363.666646 161.452052,362.747888 C160.993585,361.927568 160.109399,360.943184 159.585436,360.582244 C158.504764,359.794737 157.915306,358.941604 157.260353,357.235339 C156.867381,356.119704 156.310671,355.233758 155.688466,354.675941 C155.262747,354.282187 154.24757,353.297804 154.214822,352.411858 C154.182074,352.149356 153.920093,351.033721 153.461626,349.557145 C152.970411,347.916506 152.57744,345.652423 152.446449,343.486779 C152.184468,338.892988 152.118973,338.696111 149.171684,336.038275 C147.665292,334.69295 145.995162,332.986685 145.503948,332.231991 C145.143723,331.706986 144.48877,331.116356 144.128546,330.952292 C143.866565,330.821041 143.702827,330.788228 143.506341,330.788228 C142.81864,330.788228 141.541482,331.378858 139.118156,332.592931 C137.80825,333.249187 135.941634,334.036694 135.057448,334.233571 C135.057448,334.233571 135.057448,334.233571 135.0247,334.233571 C134.762719,334.299197 134.435242,334.332009 134.173261,334.332009 C133.092589,334.332009 132.601374,333.642941 132.077412,332.888247 C131.717188,332.363242 131.12773,331.903863 130.636515,331.739799 C129.850572,331.510109 128.409675,330.755415 127.394498,330.131972 L125.757116,329.147588 L122.711584,329.344465 C120.844968,329.442903 119.305829,329.606967 119.0111,329.672593 C118.847362,329.738218 118.683624,329.738218 118.519885,329.738218 C118.388895,329.738218 118.225157,329.705406 118.028671,329.63978 C117.995923,329.672593 117.963175,329.738218 117.930428,329.771031 C117.733942,330.000721 117.471961,330.164785 117.144484,330.164785 L114.786654,330.164785 C113.182019,330.131972 112.035851,330.033534 111.544636,329.278839 C111.446393,329.278839 111.315403,329.311652 111.184412,329.344465 L110.038245,329.574154 C109.972749,329.574154 109.907254,329.606967 109.841759,329.606967 C109.645273,329.606967 109.448787,329.541342 109.252301,329.41009 C109.154058,329.442903 109.055815,329.475716 108.957572,329.475716 L108.204376,329.508529 C108.204376,329.508529 108.204376,329.508529 108.171629,329.508529 C105.158845,329.574154 103.947182,329.967908 103.717948,330.131972 C103.685201,330.197598 103.619706,330.23041 103.586958,330.296036 C104.143668,330.755415 104.340154,331.313232 104.340154,332.396055 C104.340154,333.446064 104.012677,334.364822 103.42322,334.889827 C103.128491,335.152329 103.062996,335.382019 103.095743,335.480457 C103.128491,335.644521 103.324977,335.74296 103.42322,335.775772 C104.700378,336.300777 106.632489,338.203919 106.632489,339.516431 C106.632489,340.336751 105.912041,340.960194 105.027854,340.960194 C104.765873,340.960194 104.372901,341.025819 104.176416,341.058632 C104.012677,341.091445 103.816191,341.124258 103.619706,341.124258 C103.161238,341.124258 102.637276,341.025819 102.211557,340.894568 C101.622099,340.730504 100.63967,340.303938 99.7554831,339.97581 L99.5589972,339.910184 C98.9695395,339.680495 98.5765677,339.516431 98.3800818,339.516431 C98.2490912,339.516431 98.085353,339.582056 97.7251289,339.74612 C96.3824753,340.336751 95.4327935,340.56644 93.3041964,340.828942 C93.0422152,340.861755 92.780234,340.894568 92.5182528,340.894568 C90.4224033,340.894568 88.3920491,339.811746 86.6564238,337.777353 C85.9359755,336.92422 84.7243125,336.005462 84.0693596,335.677334 L83.1524254,335.217955 L82.9231919,335.414832 C82.169996,336.136713 81.0565759,336.497654 79.74667,336.497654 C78.2402782,336.497654 76.5701481,336.005462 74.9655134,335.119516 C74.6707846,334.955452 73.3936263,334.758576 71.6907486,334.758576 C70.5773285,334.758576 69.8896279,334.857014 69.6603944,334.955452 C69.3984132,335.217955 69.0709367,335.447644 68.6452173,335.447644 C68.3504885,335.447644 68.1212549,335.349206 67.924769,335.152329 C67.6627878,335.546083 67.1715731,335.874211 66.4183772,335.874211 C65.5669384,335.874211 64.0277989,336.563279 62.8488836,337.810165 C61.4734823,339.286741 58.1332222,341.321134 53.876028,343.322715 C51.354459,344.503975 49.8808149,345.422733 49.6188337,345.685236 C49.6188337,345.718049 49.586086,345.718049 49.586086,345.750861 C49.4878431,345.8493 49.2913572,346.013364 48.5054137,346.636807 C48.2761801,346.833684 47.9814513,347.063373 47.7194701,347.293063 C47.7194701,347.293063 47.7194701,347.293063 47.6867224,347.293063 C45.6891159,348.868077 44.7721818,349.885273 42.9055658,352.575922 C41.5629122,354.479064 41.5629122,354.479064 41.6284075,356.415019 C41.6611552,357.629092 41.8248934,358.941604 41.955884,359.36817 C42.4143511,360.811933 41.7593981,364.519779 41.5301646,365.340099 C41.5301646,365.372911 41.5301646,365.47135 41.5301646,365.504163 C41.4319216,366.947926 40.6132304,367.177615 40.1220157,367.177615 C39.630801,367.177615 39.1068386,366.947926 38.3208951,366.390108 C36.9127462,365.372911 36.5852697,365.274473 35.537345,365.274473 C34.0637008,365.274473 33.1795143,364.979158 31.7058701,363.994774 C30.8216836,363.404144 29.577273,362.780701 28.92232,362.583824 C28.1363765,362.321322 27.1211994,361.796317 26.69548,361.271312 C26.4989941,361.00881 26.1387699,360.582244 25.9095364,360.352554 C25.3200787,359.761924 24.3703969,356.972837 24.5668828,356.119704 C24.5668828,356.119704 24.5668828,356.086891 24.5668828,356.086891 C24.5341352,355.857202 24.4686399,355.529074 24.4031446,355.004069 L24.4031446,354.971256 C24.3703969,354.741567 24.3376493,354.675941 24.3049016,354.610315 C24.1084158,354.216562 23.9774252,353.822808 23.8464346,352.247794 C23.715444,350.804031 23.2897245,350.180588 22.5692763,349.163392 C22.2417998,348.736825 21.9143233,348.244634 21.5213515,347.621191 C19.2617638,343.847719 17.6898767,339.024239 17.3951479,337.646102 C17.3951479,337.646102 17.3951479,337.646102 17.3951479,337.613289 C17.100419,336.071087 15.5940272,333.544502 14.0221401,332.428867 C13.2034489,331.87105 13.2689442,331.116356 13.2689442,330.821041 C13.2689442,330.656977 13.2689442,330.656977 13.2689442,330.624164 C12.9414677,329.967908 11.6970571,329.213214 10.9438612,329.081963 C10.9438612,329.081963 10.9438612,329.081963 10.9111135,329.081963 C10.3544035,328.983524 8.913507,328.688209 7.83283461,328.45852 C7.17788164,328.327268 6.55567633,328.22883 5.99896631,328.22883 C5.21302275,328.22883 3.83762153,328.392894 3.31365916,329.377278 C3.01893032,329.967908 2.56046325,330.263223 2.23298677,330.4601 C2.03650088,330.821041 1.61078145,331.378858 0.562856709,332.494493 C0.300875524,332.756995 0.235380227,332.953872 0.137137283,333.150749 C-0.124843903,333.642941 -0.452320385,334.200758 -1.50024513,334.200758 L-1.53299277,334.200758 C-3.49785167,334.167945 -4.08730933,333.708566 -6.54338295,331.510109 C-9.71990482,328.655396 -11.3900349,326.063186 -11.5210255,323.733477 C-11.5537731,323.044409 -12.1759784,319.500627 -12.4707073,318.745933 C-12.6344455,318.352179 -13.8788561,317.236544 -14.3700709,316.842791 C-14.730295,316.514663 -14.9267809,316.350599 -15.0577715,316.219348 C-15.0577715,316.219348 -15.0905191,316.186535 -15.0905191,316.186535 C-15.1887621,316.055284 -15.5162385,315.694343 -15.4179956,315.169338 C-15.6144815,314.939649 -16.0074533,314.513083 -16.7279015,313.758388 C-17.5793404,312.905256 -17.9723122,312.052123 -18.267041,311.395867 C-18.4962745,310.936488 -19.1512275,310.345858 -19.3477134,310.214607 C-19.9699187,309.886479 -20.1664046,309.164597 -20.3301428,308.37709 C-20.3956381,308.180214 -20.4283858,307.950524 -20.4611334,307.819273 C-20.6248717,307.327081 -20.9850958,306.703638 -21.3125723,306.408323 C-21.3125723,306.408323 -21.3125723,306.408323 -21.3453199,306.37551 C-21.4763105,306.244259 -21.6073011,306.113008 -21.803787,305.981756 C-22.0330205,305.78488 -22.2622541,305.588003 -22.45874,305.325501 C-22.6879735,305.489564 -22.917207,305.522377 -23.1464406,305.522377 C-23.4084218,305.522377 -23.6049077,305.456752 -23.8341412,305.358313 C-24.1943653,305.227062 -24.7183277,305.062998 -25.7007571,305.030185 C-26.5849436,304.997373 -27.4363825,304.800496 -28.1895784,304.636432 C-28.7462884,304.505181 -29.2375031,304.406742 -29.6959702,304.37393 C-30.9403808,304.275491 -32.5777633,303.980176 -33.0362303,303.848925 C-33.0362303,303.848925 -33.0362303,303.848925 -33.068978,303.848925 C-33.5601927,303.717674 -34.0186598,303.520797 -34.3461363,303.389546 C-34.4443792,303.356733 -34.5426221,303.291107 -34.6736127,303.258295 C-34.739108,303.520797 -34.8046033,303.848925 -34.8700986,304.209866 C-35.0665845,305.358313 -35.3613134,307.294268 -37.2279293,307.294268 C-38.5050876,307.294268 -40.8956659,306.933327 -41.8126,305.620816 C-41.9435906,305.423939 -42.0418336,305.227062 -42.1073289,305.030185 C-42.5985436,305.489564 -43.2207489,305.686441 -44.0394401,305.686441 C-44.7598884,305.686441 -45.6113272,305.522377 -46.8884855,305.259875 C-48.4603726,304.898934 -50.4252315,304.406742 -51.4404086,304.14424 C-51.8988757,304.012989 -52.4228381,303.750486 -52.9140528,303.520797 C-53.3070246,303.32392 -53.9292299,303.028605 -54.1257158,303.028605 C-55.402874,303.028605 -56.1560699,302.405162 -57.5314712,301.223901 C-57.7279571,301.059837 -57.9244429,300.895773 -58.1209288,300.73171 C-59.2998442,299.780139 -60.5442548,298.730129 -60.9372266,298.369188 C-61.1992078,298.139499 -62.6401043,297.056677 -64.4412249,295.875416 L-65.1616732,295.383224 C-70.3685493,291.872255 -76.0338924,288.000346 -77.4747889,286.720647 C-77.7695178,286.458145 -77.933256,286.130017 -77.933256,285.769076 C-77.933256,285.440948 -77.835013,285.178446 -77.6712748,284.915943 C-77.8677607,284.883131 -78.0642466,284.817505 -78.2607325,284.784692 C-79.7343766,284.456564 -80.5530678,284.2925 -80.8477967,283.570619 C-80.9787873,283.242491 -80.9787873,282.88155 -80.7823014,282.553422 C-80.3893296,281.897166 -77.8677607,280.87997 -77.6385272,280.814344 C-77.3110507,280.683093 -76.6560977,280.420591 -76.4596118,280.256527 C-76.4596118,280.190901 -76.4596118,280.125276 -76.4596118,279.928399 C-76.4596118,279.501833 -76.6233501,279.173705 -76.7870883,279.009641 C-77.4092936,278.451823 -77.7040225,277.894006 -77.7367701,277.23775 C-77.7695178,276.220553 -77.0490695,275.334608 -76.3286212,274.612726 C-75.7391636,274.022096 -75.0187153,273.0049 -74.6912388,272.381456 C-74.3310147,271.725201 -73.6433141,270.642378 -72.6608846,270.576753 C-72.529894,270.511127 -72.1696699,270.281438 -71.7766981,269.920497 L-71.3509787,269.493931 L-71.7766981,268.673611 C-72.529894,267.262661 -72.6608846,266.245464 -72.6608846,263.915756 C-72.6608846,263.161062 -72.628137,262.406367 -72.5953893,261.815737 C-72.5953893,261.651673 -72.5626417,261.487609 -72.5626417,261.290732 L-72.5953893,261.290732 C-73.3813329,261.290732 -73.9052953,260.601664 -74.6584912,259.125088 C-74.9204724,258.632896 -75.2806965,257.97664 -75.6736683,257.221946 C-76.1976306,256.20475 -76.7870883,255.089115 -77.278303,254.137544 C-77.6712748,253.382849 -79.7343766,249.51094 -81.2407685,246.590601 C-82.5506744,244.064016 -83.7295897,241.963997 -83.8278327,241.767121 C-83.893328,241.668682 -84.0243186,241.471806 -86.1856633,237.403019 C-87.2663357,235.270188 -88.6744846,232.677977 -89.198447,231.693593 C-89.198447,231.693593 -89.198447,231.693593 -89.198447,231.660781 C-89.4276805,231.267027 -89.7224093,230.676397 -90.0826335,230.052954 C-90.6065958,229.101383 -91.1960535,227.985748 -91.6872682,227.06699 C-91.9819971,226.509172 -92.3422212,225.820103 -92.7024453,225.131035 C-93.3246506,223.916961 -94.0123512,222.670075 -94.4380707,221.816943 C-94.5690613,221.587253 -94.6673042,221.390376 -94.7655472,221.1935 C-96.7631537,217.518467 -96.6321631,217.124713 -92.9644265,206.755871 L-92.2767259,204.819916 C-91.2288012,201.833952 -90.1808764,198.913613 -89.3294376,196.583905 C-87.986784,192.941685 -87.888541,192.843247 -87.6920552,192.64637 C-87.4628216,192.41668 -87.1680928,192.318242 -86.775121,192.318242 C-85.8909345,192.318242 -83.7295897,192.974498 -74.3310147,196.485467 C-73.184847,196.912033 -71.6129599,197.46985 -69.9755775,198.027668 C-70.1393157,197.174535 -69.7463439,196.091713 -68.9604004,193.926069 C-68.7966621,193.499502 -68.6329239,193.007311 -68.436438,192.482306 C-67.6177468,190.251036 -66.8972986,187.724451 -66.766308,186.936944 C-66.5698221,185.558807 -66.1768503,184.672861 -65.2926638,183.72129 C-65.2926638,183.72129 -65.2926638,183.72129 -65.2599161,183.688477 C-64.899692,183.294724 -64.7359538,183.097847 -64.6704585,182.966596 C-64.6049632,182.736906 -64.6704585,182.244714 -64.7359538,181.522833 C-64.7687014,181.227518 -64.8341967,180.800952 -64.8669444,180.407198 C-64.899692,180.013445 -64.9651873,179.652504 -64.9651873,179.455627 C-65.0961779,178.07749 -64.2774867,177.454047 -63.3278049,176.961855 C-63.3278049,176.961855 -63.3278049,176.961855 -63.3278049,176.961855 C-62.4108708,176.502476 -61.1992078,175.189964 -61.0027219,174.763398 C-60.9372266,174.238393 -60.3805166,173.483699 -59.3980871,172.532128 L-58.481153,171.61337 L-58.8741247,169.513351 C-59.0706106,168.397716 -59.2016012,167.413332 -59.2670965,166.461761 C-59.3325918,166.494574 -59.3980871,166.494574 -59.4635824,166.494574 C-59.5618254,166.494574 -59.692816,166.461761 -59.7910589,166.428948 L-64.6377108,164.657057 C-69.2878769,162.983605 -71.4819693,162.524226 -75.9356495,162.196098 C-79.4723955,161.966408 -81.5027496,161.474217 -84.351795,160.161705 C-85.5962057,159.571075 -87.5610646,158.914819 -88.6744846,158.685129 C-89.4931758,158.521065 -91.1960535,158.061686 -91.7527635,157.40543 C-91.7527635,157.40543 -91.7855112,157.372617 -91.7855112,157.372617 C-92.2767259,156.716362 -92.4077165,155.239786 -92.4077165,154.649156 L-92.4077165,154.616343 C-92.4077165,153.435082 -92.4077165,153.369457 -93.5538842,152.155383 C-94.4380707,151.203812 -95.060276,150.810059 -96.0099578,150.580369 L-97.5163496,150.186616 C-98.0075643,150.055365 -98.3350408,149.563173 -98.2367979,149.038168 L-97.9748167,147.791282 C-97.6473402,146.281893 -96.1409484,136.897435 -95.715229,133.714594 C-95.3550048,130.827068 -94.7327995,130.400502 -94.4708183,130.269251 C-94.2415848,130.137999 -93.9796036,130.072374 -93.7176224,130.072374 C-92.8661836,130.072374 -91.9165018,130.663004 -89.6896617,132.533333 C-88.6417369,133.419279 -85.9891774,134.666165 -84.5155333,135.092731 C-84.4827856,133.878658 -83.5658515,130.991132 -82.9108985,130.039561 C-82.7144126,129.777059 -82.4196838,129.612995 -82.0594597,129.612995 C-81.8957214,129.612995 -81.6009926,129.612995 -79.7343766,130.367689 C-78.7846948,130.761442 -72.2351652,133.288027 -65.0634303,136.011489 C-61.7559178,137.258375 -58.5139006,138.472449 -55.9923317,139.456833 C-51.9971186,140.999034 -51.9971186,140.999034 -51.8006327,141.195911 C-51.7351374,141.261536 -51.6696421,141.359975 -51.6041469,141.4256 C-51.4731563,141.392787 -51.3421657,141.359975 -51.2111751,141.359975 C-50.5562221,141.359975 -49.0825779,141.819354 -48.6568585,141.950605 C-47.6744291,142.278733 -46.9867285,142.541235 -46.6265043,142.869363 C-46.4955137,142.803737 -46.3317755,142.770925 -46.1680373,142.770925 C-46.0697943,142.770925 -45.9715514,142.803737 -45.8733084,142.803737 L-41.910843,144.083436 C-38.275854,145.231884 -22.8844594,149.53036 -20.690367,149.989739 C-19.9699187,150.12099 -17.3828545,150.810059 -15.8764627,151.236625 C-12.6344455,152.089758 8.55328287,156.946051 12.8432248,157.831997 C13.9238972,158.061686 14.3823642,158.192937 14.6443454,158.291376 C14.873579,158.357001 15.6267749,158.45544 16.7401949,158.586691 C18.7378015,158.81638 19.2617638,158.849193 19.5564927,159.242947 C19.6874832,159.210134 19.8184738,159.177321 19.9822121,159.177321 C20.1459503,159.177321 20.3751839,159.144508 20.6699127,159.144508 C22.0780616,159.144508 24.6323781,159.308572 25.8112935,159.538262 C26.1060223,159.603887 27.4814235,159.735139 28.5948436,159.86639 C29.020563,159.932015 29.4790301,159.964828 29.9374971,159.997641 C30.7561883,160.063266 31.4438889,160.161705 31.7386178,160.194518 C31.9678513,160.22733 32.4918137,160.292956 33.0485237,160.358582 C33.5069908,160.424207 33.9982055,160.45702 34.4894202,160.522646 C35.5700926,160.621084 36.9782415,160.785148 37.6331945,160.883586 C39.5980533,161.146089 47.1955077,162.032034 48.8983854,162.196098 C49.8153196,162.294536 51.0597302,162.425788 51.6819355,162.491413 C52.3041408,162.557039 53.6795421,162.721103 54.6619715,162.852354 C56.102868,163.049231 56.7250733,163.27892 57.0525498,163.50861 C57.0852975,163.475797 57.0852975,163.442984 57.1180451,163.442984 C57.314531,163.27892 57.5437646,163.180482 57.8057457,163.180482 L57.871241,163.180482 L60.1308288,163.311733 C63.5038365,163.50861 65.3377048,163.607048 66.3201343,163.607048 C66.8768443,163.607048 67.0733302,163.574235 67.1388255,163.541423 C67.1388255,163.541423 67.1388255,163.541423 67.1715731,163.50861 C67.1715731,163.50861 67.1715731,163.475797 67.2043208,163.475797 C67.3025637,163.377359 67.4008067,163.147669 67.4008067,163.049231 C67.4008067,162.786728 67.4008067,162.524226 67.4990496,162.261724 C67.5972925,161.999221 67.7282831,161.802345 67.924769,161.671093 C68.1212549,161.539842 68.3504885,161.441404 68.6124696,161.441404 C68.9726938,161.441404 69.3001703,161.572655 69.8241326,161.86797 C70.7410668,162.360162 71.0357956,163.574235 71.1995338,164.821121 C71.4287674,166.691451 71.7562439,166.953953 73.0006545,167.183643 C73.5901122,167.282081 74.7035322,167.577396 75.2602422,168.069588 C75.3584852,168.102401 75.9479428,168.364903 78.2075306,168.397716 C81.2203142,168.463341 81.6787813,168.528967 83.0541825,169.808666 C83.5781449,170.268045 84.0366119,170.56336 84.2330978,170.628986 C84.7570602,170.694611 85.5757514,171.088365 86.6236761,171.810246 C87.6388532,172.499315 87.8680868,172.597753 89.1452451,172.597753 C89.3089833,172.597753 89.4727215,172.597753 89.6364598,172.597753 C89.7674504,172.597753 89.9311886,172.597753 90.0949268,172.597753 C92.2890193,172.597753 96.1532418,173.02432 97.3649047,173.516512 C97.3649047,173.516512 97.3649047,173.516512 97.3976524,173.516512 C97.6596336,173.61495 98.2163436,173.877452 98.3145865,174.500895 C98.4455771,175.157151 97.9871101,175.583718 97.3976524,176.141535 C96.8409424,176.66654 95.8912606,177.191544 95.1708123,177.191544 C94.1883829,177.191544 92.4855052,178.208741 91.8632998,179.127499 C91.4375804,179.849381 90.5861416,180.768139 89.8329457,181.194705 C89.5709645,181.358769 89.3744786,181.522833 89.2762356,181.588459 C89.0797498,182.015025 88.6212827,182.343153 88.0645727,182.408778 C87.9990774,182.441591 87.9008344,182.572842 87.8025915,182.704094 C87.376872,183.393162 86.1652091,184.410359 85.5757514,184.869738 C85.5430038,184.902551 85.5102561,184.935363 85.4447608,184.968176 C87.0493956,184.574423 90.1604221,183.557226 90.7498798,183.229098 C91.011861,182.999409 91.3720851,182.704094 91.8632998,182.704094 C92.1907763,182.704094 92.4855052,182.835345 92.7147387,183.097847 C93.1077105,183.524413 93.1077105,184.147856 93.0422152,184.607236 C93.0422152,184.640048 93.0422152,184.672861 93.0422152,184.672861 C93.0749628,184.672861 93.1077105,184.705674 93.1404581,184.705674 C93.1404581,184.705674 93.1732058,184.705674 93.1732058,184.705674 C93.7299158,184.902551 94.2866258,185.263491 94.7778405,185.722871 C94.8433358,185.36193 95.105317,185.033802 95.5310364,184.607236 C95.9895035,184.147856 96.8081947,183.655665 97.528643,183.655665 C98.4455771,183.655665 101.098137,182.704094 102.113314,181.916587 C103.881687,180.571262 107.221947,178.274367 108.597348,178.274367 C108.859329,178.274367 109.055815,178.339992 109.252301,178.43843 C109.579778,178.635307 109.776263,178.963435 109.776263,179.324376 C109.809011,179.947819 109.317796,180.440011 108.892077,180.735326 C108.43361,181.063454 108.040638,181.752523 107.909647,182.113463 C108.073386,182.179089 108.466357,182.244714 109.219553,182.277527 C110.23473,182.31034 111.904861,183.754103 112.232337,184.049418 C113.182019,184.902551 113.509495,185.13224 114.131701,185.13224 C114.884897,185.13224 116.162055,184.804112 118.028671,184.279108 C120.157268,183.688477 122.154874,183.393162 123.825004,183.393162 C125.920854,183.393162 127.23076,183.852541 127.820218,184.7713 C127.918461,184.7713 128.016703,184.738487 128.114946,184.738487 C128.114946,184.738487 128.114946,184.738487 128.114946,184.738487 C129.523095,184.738487 132.437636,186.280688 133.190832,187.691638 C133.649299,188.577583 133.944028,189.299465 133.649299,189.988534 C133.387318,190.644789 132.732365,190.841666 132.470384,190.907292 C131.946421,191.071356 131.487954,191.202607 130.996739,191.301045 C131.225973,191.465109 131.487954,191.694799 131.782683,191.990114 C132.503131,192.679183 133.518308,193.269813 133.976775,193.368251 C133.976775,193.368251 134.009523,193.368251 134.009523,193.368251 C137.087802,194.221384 137.873746,196.255777 138.201222,199.307367 C138.528699,202.457395 138.495951,203.34334 137.513521,204.75429 C136.989559,205.508985 136.825821,205.935551 136.760326,206.591807 C136.727578,207.182437 136.301858,207.576191 135.745148,207.707442 C135.745148,207.773067 135.745148,207.838693 135.745148,207.904318 C135.745148,208.134008 135.810644,208.363698 135.843391,208.494949 C136.301858,208.134008 137.153297,207.313688 137.906493,206.591807 L139.609371,204.951167 C139.805857,204.787103 140.03509,204.688665 140.297072,204.688665 L140.329819,204.688665 C140.5918,204.688665 140.853782,204.819916 141.01752,205.016793 L142.13094,206.230866 C143.342603,207.543378 144.161294,209.44652 144.48877,211.710602 C144.48877,211.710602 144.48877,211.743415 144.48877,211.743415 C144.554266,212.169982 144.718004,212.891863 144.848995,213.384055 C145.405705,215.155946 144.456023,217.715344 142.491164,219.618486 C141.836211,220.274741 141.410492,220.832559 141.279501,221.029436 C141.181258,221.685691 140.690043,222.506011 140.624548,222.60445 C140.624548,222.60445 140.624548,222.637262 140.5918,222.637262 C140.46081,222.834139 140.231576,223.621646 140.198829,224.409153 L140.166081,225.852916 C140.428062,225.918542 140.984772,226.115419 142.491164,226.804487 C143.539089,227.296679 144.521518,227.559181 145.274714,227.559181 C145.700433,227.559181 145.995162,227.460743 146.191648,227.329492 C146.191648,227.329492 146.224396,227.296679 146.224396,227.296679 C146.682863,226.935738 147.763535,226.443546 148.516731,226.148231 C149.237179,225.885729 150.055871,225.42635 150.3506,225.19666 C151.59501,224.081025 155.000766,221.423189 156.277924,221.423189 C156.277924,221.423189 156.277924,221.423189 156.277924,221.423189 C156.408914,221.423189 156.539905,221.456002 156.670896,221.488815 C156.867381,221.062248 157.194858,220.734121 157.686073,220.37318 C158.14454,220.077865 158.897736,219.585673 159.25796,219.32317 C159.650932,219.027855 159.978408,218.798166 160.436875,218.798166 C160.666109,218.798166 160.829847,218.830979 160.993585,218.929417 C161.386557,217.945033 162.499977,216.599709 164.759565,214.171562 C165.119789,213.777808 165.349022,213.482493 165.512761,213.285617 C165.38177,212.990301 165.152536,212.465297 164.890555,211.907479 C164.170107,210.463716 163.71164,209.544958 164.170107,208.823077 C164.432088,208.39651 164.857808,208.199634 165.480013,208.199634 C165.578256,208.199634 165.872985,208.101195 166.036723,207.937131 C166.036723,207.937131 166.036723,207.937131 166.036723,207.937131 C166.626181,207.477752 167.575862,207.280875 171.800309,207.248063 C176.745204,207.182437 176.974437,207.083999 178.284343,205.968364 C179.659745,204.787103 179.954473,203.802719 179.496006,201.899577 L179.037539,199.996435 C178.972044,199.70112 179.037539,199.372992 179.234025,199.11049 L181.133389,196.87922 C182.148566,195.69796 183.327481,194.221384 183.687705,193.696379 C184.17892,193.007311 185.390583,191.858863 186.307517,191.071356 C186.307517,191.071356 186.307517,191.071356 186.340265,191.071356 L188.07589,189.693218 C188.239628,189.561967 188.468862,189.463529 188.698096,189.463529 L188.730843,189.463529 L191.448898,189.529154 C191.710879,189.529154 191.940113,189.529154 192.202094,189.529154 C193.512,189.529154 194.363439,189.463529 194.559925,189.397903 C194.821906,189.299465 195.051139,189.266652 195.247625,189.266652 C195.542354,189.266652 195.804335,189.332278 196.000821,189.463529 C196.131812,189.201027 196.361045,189.00415 196.655774,188.938524 L199.734053,188.249456 C201.436931,187.855702 203.53278,187.461949 204.384219,187.330697 C204.384219,187.330697 204.384219,187.330697 204.416967,187.330697 L205.923358,187.133821 C205.956106,187.133821 205.988854,187.133821 206.054349,187.133821 C206.087097,186.576003 206.31633,186.149437 206.676554,185.591619 C206.676554,185.591619 206.676554,185.591619 206.676554,185.558807 C207.135021,184.902551 207.691731,184.213482 208.477675,184.213482 C208.575918,184.213482 208.674161,184.213482 208.772404,184.246295 C208.837899,183.852541 209.034385,183.524413 209.329114,183.294724 C209.722086,182.736906 210.704515,179.947819 210.868253,178.536869 C210.933749,177.618111 211.19573,176.043097 211.32672,175.189964 C211.490459,174.271206 211.686945,172.630566 211.850683,171.514931 C211.948926,170.300858 212.505636,168.168026 212.931355,166.724263 L213.782794,164.066427 C213.913785,163.705486 214.241261,163.442984 214.601485,163.377359 L216.828325,163.147669 C218.007241,163.016418 218.825932,162.819541 219.055165,162.753915 C219.480885,162.491413 220.10309,162.392975 220.52881,162.392975 C220.594305,162.392975 220.692548,162.392975 220.758043,162.392975 C220.889034,162.392975 221.052772,162.425788 221.21651,162.425788 C221.511239,162.4586 221.805968,162.4586 222.002454,162.491413 C222.690154,162.589852 223.803574,163.475797 224.131051,163.738299 C225.244471,164.68987 225.571947,165.378939 225.571947,166.724263 C225.5392,169.841479 227.962526,175.058713 228.846712,175.452466 C229.468918,175.714969 230.156618,176.239973 230.254861,176.896229 C230.320356,177.060293 230.615085,177.486859 231.008057,177.979051 C231.008057,177.979051 231.008057,177.979051 231.008057,177.979051 C231.564767,178.66812 232.055982,178.963435 233.103906,179.225938 C234.315569,179.521253 235.494485,179.915006 235.920204,180.866577 C236.509662,181.325956 236.444167,181.916587 236.11669,182.605655 Z" id="Path" fill="#FFFFFF" fill-rule="nonzero" mask="url(#mask-2)"></path>
            </g>
        </g>
    </g>
</svg>