<?xml version="1.0" encoding="UTF-8"?>
<svg width="64px" height="119px" viewBox="0 0 64 119" version="1.1" xmlns="http://www.w3.org/2000/svg" xmlns:xlink="http://www.w3.org/1999/xlink">
    <title>US-HI</title>
    <g id="Page-1" stroke="none" stroke-width="1" fill="none" fill-rule="evenodd" opacity="0.743466332">
        <g id="Low-Res-TV" transform="translate(-216.000000, -706.000000)" fill="#FFFFFF" fill-rule="nonzero">
            <g id="US-HI" transform="translate(215.220169, 706.000000)">
                <path d="M55.7333198,118.528355 C55.1292508,118.294403 54.0721302,117.904483 53.4680612,117.670531 C52.8639923,117.436579 50.4477165,117.202627 48.182458,117.124643 C44.3315185,117.124643 44.029484,116.968675 43.8029582,115.097059 C43.651941,114.005283 44.2560099,111.431811 45.1621133,109.404226 C45.9927081,107.376642 46.6722857,104.02333 46.6722857,101.917761 C46.6722857,98.0965449 47.4273718,96.8488007 50.0701734,96.3029127 C50.9007682,96.1469446 52.2599234,94.8992005 53.0905181,93.4954883 C53.9211129,92.0917761 54.9782336,91 55.5067939,91 C56.5639145,91 63.2841815,98.564449 63.3596901,99.8121931 C63.3596901,100.280097 63.5107074,101.293889 63.6617246,101.995745 C63.8127418,102.697601 63.6617246,104.80317 63.2841815,106.674786 C62.8311298,109.248258 62.9066384,110.418018 63.7372332,111.353827 C66.3800348,114.395203 63.6617246,119.152228 59.3577334,118.99626 C57.9985783,118.918276 56.3373887,118.762308 55.7333198,118.528355 Z" id="path11192"></path>
                <path d="M48.5576535,74.2834054 C47.4263118,73.8241604 46.7798309,72.9822111 46.7798309,71.8340985 C46.7798309,69.6144141 50.4162863,65.7108313 52.1132989,66.0169946 C53.7295013,66.323158 57.2851467,72.5229661 56.7194758,73.9772421 C56.2346151,75.2018955 51.4668179,75.3549772 48.5576535,74.2834054 Z" id="path11194"></path>
                <path d="M43.4292136,59.1783304 C41.2702275,55.8080028 41.2702275,54.4755477 43.1978936,53.3782318 C44.4316,52.6728144 44.8942398,52.9079535 45.8966262,54.4755477 C46.590586,55.494484 47.2845459,57.6107362 47.5929724,59.1783304 C47.9785057,61.6081014 47.8242924,62 46.590586,62 C45.8195196,62 44.4316,60.7459246 43.4292136,59.1783304 Z" id="path11196"></path>
                <path d="M32.3323753,42.5746278 C27.9799076,39.5458559 27.7425003,37.9593564 30.9870671,35.0026981 C33.8359551,32.406608 35.0229917,32.3344943 37.6344723,34.7863573 C39.850274,36.8055385 40.4833603,41.0602419 38.9006447,43.7284456 C37.7927439,45.6755133 36.5265715,45.4591724 32.3323753,42.5746278 Z" id="path11198"></path>
                <path d="M12.6241403,10.4879486 C9.89583646,9.41544724 10.2747675,4.71294127 13.23043,1.9904378 C16.1103062,-0.649565553 16.2618787,-0.649565553 18.7628238,1.9079377 C21.0364104,4.21794064 21.4911277,8.09544557 19.5964722,9.74544766 C18.2323203,11.0654493 14.8977268,11.3954498 12.6241403,10.4879486 Z" id="path11200"></path>
                <path d="M0.920360896,1.49698209 C0.601707129,1.17308915 0.840697454,0.633267598 1.47800499,0.363356821 C3.07127383,-0.338411201 5.77983085,0.0394638878 5.77983085,0.957160532 C5.70016741,1.98282149 1.71699532,2.41467873 0.920360896,1.49698209 Z" id="path11202"></path>
            </g>
        </g>
    </g>
</svg>