<?xml version="1.0" encoding="UTF-8"?>
<svg width="113px" height="329px" viewBox="0 0 113 329" version="1.1" xmlns="http://www.w3.org/2000/svg" xmlns:xlink="http://www.w3.org/1999/xlink">
    <title>WEST COAST</title>
    <defs>
        <rect id="path-1" x="0" y="0" width="120" height="398"></rect>
    </defs>
    <g id="Page-1" stroke="none" stroke-width="1" fill="none" fill-rule="evenodd" opacity="0.763625372">
        <g id="Low-Res-TV" transform="translate(-90.000000, -158.000000)">
            <g id="WEST-COAST" transform="translate(83.000000, 153.000000)">
                <mask id="mask-2" fill="white">
                    <use xlink:href="#path-1"></use>
                </mask>
                <g id="Mask"></g>
                <path d="M14.3976389,66.8497495 C15.8416142,68.2919148 15.8416142,68.7180091 15.8416142,68.914668 C15.8416142,69.1441034 15.8416142,69.5701977 12.6911226,72.8478462 C9.40936039,76.2566006 9.40936039,76.2566006 10.7220653,80.9108614 C11.1158767,82.3202503 11.5753234,84.1557334 11.5753234,84.5818277 C11.5753234,85.7617812 10.7877005,85.8273341 10.65643,85.8273341 C9.83598947,85.8273341 9.17963704,84.6801572 8.75300796,83.6968626 C7.37466785,80.5175436 6.8495859,76.7482479 7.07930925,71.4056809 C7.27621498,66.816973 7.57157358,66.1286668 7.86693217,65.800902 C7.99820266,65.6370196 8.12947315,65.3092547 8.12947315,65.2109253 C8.12947315,64.5881721 8.58891985,63.9326424 9.60626612,63.9326424 C10.2954362,63.9326424 11.1158767,64.2276307 11.870682,64.719278 C12.6254873,65.2437018 13.5771983,66.0303374 14.3976389,66.8497495 Z" id="Path" fill="#FFFFFF" fill-rule="nonzero" mask="url(#mask-2)"></path>
                <path d="M429.376465,135.102226 C429.4421,137.232698 427.899672,139.428722 426.160338,139.592605 C426.029068,139.592605 425.897797,139.592605 425.799344,139.592605 C424.946086,139.592605 424.453822,139.26484 424.092828,138.445428 C424.092828,138.445428 424.092828,138.412651 424.06001,138.412651 C424.06001,138.445428 424.027193,138.478204 424.027193,138.510981 C423.863105,138.773193 423.436476,139.625381 422.68167,139.625381 C421.697142,139.625381 421.139242,138.412651 420.811066,135.429991 C420.712613,134.51225 420.581343,133.889497 420.48289,133.430626 C420.384437,134.446697 419.957808,135.036674 419.006097,135.921639 C417.955933,136.904933 417.890298,137.101592 417.594939,139.133734 C417.135492,142.640818 416.085328,143.722442 413.16456,143.787995 C413.03329,143.787995 412.902019,143.787995 412.803566,143.787995 C411.950308,143.787995 410.998597,143.689665 410.736056,142.968583 C410.440697,142.2475 411.031415,141.493641 412.048761,140.543123 C412.902019,139.756487 413.000472,139.494275 413.000472,138.642087 L413.000472,138.445428 C412.114396,138.871522 411.162685,139.133734 410.473515,139.133734 C410.079704,139.133734 409.784345,139.068181 409.554622,138.871522 C409.095175,138.937075 407.388659,139.985923 406.010319,140.805335 C404.992972,141.428088 403.680267,142.018065 403.08955,142.149171 C403.056733,142.149171 403.056733,142.149171 403.056733,142.149171 C402.761374,142.181947 402.26911,142.280277 401.842481,142.34583 C401.547122,142.378606 401.284581,142.444159 401.054858,142.476936 C400.562593,142.542489 398.724807,143.165242 396.755749,143.951877 C396.19785,144.181313 395.63995,144.410748 395.147686,144.607407 C394.195975,145.000725 393.277081,145.361266 393.145811,145.426819 C393.080176,145.459596 393.01454,145.492372 392.948905,145.492372 C392.916087,145.492372 392.88327,145.492372 392.817635,145.492372 C392.128465,145.492372 391.472112,144.771289 391.242389,144.476301 C390.12659,143.099689 390.159407,141.362535 391.275206,139.854817 C391.898741,139.035405 392.062829,138.117663 391.931559,137.691569 C391.898741,137.560463 391.833106,137.527686 391.833106,137.527686 C391.340842,137.363804 390.979848,137.068816 390.848577,136.675498 C390.618854,136.085521 390.81576,135.331662 391.50493,134.184485 C392.030012,133.365073 392.095647,133.135637 391.898741,130.611848 C391.570565,125.990364 391.669018,120.516691 392.1941,115.2069 L392.1941,115.108571 C392.226917,114.6497 392.358188,113.273088 392.522276,111.896475 C392.653547,110.487087 392.88327,109.471016 393.244264,108.618827 C393.178628,108.651603 393.080176,108.68438 392.981723,108.68438 L392.948905,108.68438 C392.784817,108.68438 392.587911,108.58605 392.489458,108.454944 C392.719182,108.815486 392.719182,108.913815 392.719182,109.044921 C392.719182,109.33991 392.719182,109.569345 390.389131,111.306499 C387.599633,113.43697 385.827481,115.403559 385.630575,116.550736 C385.532123,117.271819 384.777317,119.172855 383.924059,120.844456 C383.103619,122.450503 382.348813,124.122104 382.184725,124.548198 C381.659643,126.088693 375.555566,128.973024 372.700433,129.792436 C371.978445,129.989095 370.764193,130.349636 369.484306,130.742954 C368.466959,131.037942 367.416795,131.332931 366.497902,131.595143 C362.001888,132.906202 348.349757,136.83938 346.905782,138.838746 C346.643241,139.199287 346.249429,140.182582 346.085341,141.001994 C345.921253,141.886959 345.494624,143.624112 345.067995,144.869619 C344.542913,146.606773 344.247555,147.557291 342.967667,147.557291 C341.884686,147.557291 338.832647,150.73661 337.68403,153.850376 C337.355854,154.800894 336.633866,156.177506 336.075967,157.095248 C337.290219,155.4892 339.128006,153.325952 340.079717,152.440987 C340.703251,151.85101 341.950321,150.703833 342.869214,149.884421 C343.820925,148.999456 345.494624,147.786726 346.577606,147.09842 C347.594952,146.475667 349.596827,145.164607 350.975167,144.214089 C352.747319,142.968583 354.224112,142.280277 355.799357,141.886959 C356.751068,141.657523 357.407421,141.493641 357.998138,141.493641 C358.687308,141.493641 359.278025,141.657523 360.196919,141.952512 C361.870617,142.476936 362.494152,142.837477 363.084869,143.984654 C364.528845,146.705102 364.299121,148.638915 362.231611,151.162704 C361.443988,152.113222 360.853271,152.768752 360.229736,153.227622 C361.247083,152.768752 362.330064,152.473763 363.084869,152.473763 C364.364757,152.473763 364.430392,153.358728 364.430392,153.522611 C364.430392,154.047035 363.938128,154.932 363.839675,155.095882 C363.248957,156.14473 363.380228,158.635742 363.90531,159.324049 C364.299121,159.848472 364.72575,160.766214 364.889839,161.45452 C364.955474,161.782285 365.28365,162.372262 365.907185,163.093344 C365.84155,162.536144 366.071273,161.880614 366.465084,161.061202 C366.826078,160.307343 367.515248,158.996284 368.270054,158.996284 C368.434142,158.996284 368.893588,158.996284 370.632922,160.569555 C371.190822,161.126755 371.486181,161.356191 371.650269,161.45452 C372.175351,161.028426 373.225514,160.930096 374.013137,160.930096 C374.932031,160.930096 375.719654,160.79899 375.883742,160.700661 C376.835453,160.209014 379.231139,159.520708 380.117215,159.520708 C380.478209,159.520708 380.74075,159.619037 380.87202,159.848472 C381.068926,160.110688 381.167379,160.536779 380.642297,161.651179 C380.642297,161.651179 380.642297,161.683956 380.609479,161.683956 C380.412574,162.044497 380.18285,162.962238 380.150033,163.716098 L380.150033,163.748874 C380.084397,164.568286 379.887492,165.223816 379.559315,165.617134 C380.18285,165.453251 380.675115,165.256592 380.937656,165.059933 C381.626826,164.601063 382.25036,164.338851 382.775442,164.338851 C382.93953,164.338851 383.103619,164.371627 383.267707,164.43718 C383.267707,164.43718 383.267707,164.43718 383.300524,164.43718 C383.464612,164.502733 384.1866,164.633839 385.105494,164.666616 C385.630575,164.699392 386.155657,164.764945 386.615104,164.896051 C386.352563,164.601063 386.057205,164.306074 385.794664,164.011086 C384.941405,163.093344 383.759971,161.880614 384.514776,161.028426 C384.646047,160.79899 385.105494,159.651813 385.761846,157.783554 C387.763721,151.687128 388.649797,151.687128 389.043608,151.687128 C390.192225,151.687128 391.012665,153.653717 391.045483,154.932 L391.045483,154.964776 C391.045483,156.931365 391.439295,157.029695 391.800288,157.128024 C393.178628,157.488566 394.983598,159.12739 394.983598,160.34012 C394.983598,160.995649 394.327245,162.241156 393.867799,162.929462 C393.080176,164.109415 392.456641,164.797722 391.537747,164.797722 C391.340842,164.797722 390.94703,165.027157 390.586036,165.518804 C390.12659,166.141557 389.732778,166.633205 389.174879,166.698758 C389.240514,166.797087 389.306149,166.928193 389.338967,167.026523 C389.929684,168.272029 389.306149,168.894782 387.468362,170.697489 C386.385381,171.779113 385.171129,172.991843 384.908588,173.286831 C384.908588,173.286831 384.908588,173.286831 384.87577,173.286831 C383.792789,174.434008 380.74075,176.859468 379.821856,177.088903 C379.657768,177.154456 379.067051,177.67888 378.541969,178.596622 C377.885617,179.711022 377.458988,180.432105 376.474459,180.432105 C376.277553,180.432105 376.113465,180.399328 375.916559,180.366552 C375.752471,180.333775 375.621201,180.333775 375.522748,180.333775 C375.424295,180.333775 375.391478,180.333775 375.391478,180.333775 C375.391478,180.333775 375.325842,180.366552 375.194572,180.628764 C374.997666,181.087634 374.899213,181.415399 374.899213,181.513729 C374.899213,181.644835 374.899213,181.939823 373.881867,184.463612 C373.094244,186.364648 372.273803,187.544602 370.632922,189.216203 C368.335689,191.57611 368.270054,191.57611 367.974695,191.57611 C367.90906,191.57611 367.810607,191.57611 366.202543,191.182792 C364.03658,190.691144 362.920781,189.445638 362.067523,186.528531 C361.640894,185.119142 361.575259,184.2014 361.8378,183.447541 C361.8378,183.447541 361.8378,183.414765 361.8378,183.414765 C362.395699,181.9726 364.627298,178.727728 366.038455,177.187233 C366.727625,176.433374 367.482431,175.548409 367.679336,175.25342 C367.843425,175.056761 368.04033,174.827326 368.302871,174.663443 C367.941877,174.59789 367.646519,174.368455 367.482431,174.007914 C367.35116,173.712925 367.318343,173.319608 367.416795,172.893513 C365.677461,175.286197 362.691058,178.23608 361.312718,178.23608 C360.886089,178.23608 360.787636,178.268857 360.557912,178.760504 C360.557912,178.760504 360.557912,178.793281 360.525095,178.793281 C359.934378,180.00601 358.359132,180.792646 356.521345,180.792646 C355.963445,180.792646 355.438364,180.727093 354.913282,180.595987 C353.961571,180.366552 352.944224,179.252151 352.287872,177.777209 C352.287872,177.777209 352.287872,177.777209 352.287872,177.744433 C352.156601,177.416668 351.76279,177.088903 351.631519,177.056127 C349.69528,176.597256 347.693405,170.468053 347.693405,167.452617 C347.693405,166.469322 347.529317,166.108781 347.135505,165.74824 C345.986888,164.666616 344.411643,163.847204 343.525567,163.847204 L342.475403,163.847204 C342.344132,163.847204 342.24568,163.814427 342.147227,163.748874 C342.114409,164.043862 341.884686,164.306074 341.589327,164.338851 L340.30944,164.53551 C339.882811,164.601063 339.324911,164.633839 338.865465,164.633839 C338.471653,164.633839 338.176295,164.601063 337.946571,164.568286 C337.848118,164.53551 337.749665,164.53551 337.68403,164.53551 C337.55276,164.53551 337.454307,164.53551 337.191766,164.896051 C336.633866,165.64991 335.288344,170.009183 335.025803,172.074101 C334.960168,172.729631 334.796079,173.876808 334.664809,174.860102 L334.533538,175.679514 L334.467903,176.269491 C334.303815,177.318339 334.139727,178.531069 334.106909,179.186598 C333.811551,181.907047 332.761387,184.234177 331.317412,185.250248 C330.759512,185.643566 329.939071,186.430201 329.54526,186.987402 C329.118631,187.642931 328.331008,188.364014 327.674656,188.462343 C327.313662,188.527896 324.753887,189.085097 321.701848,189.773403 C318.78108,190.428933 315.532136,190.953356 314.481972,190.953356 C312.808273,190.953356 312.316009,190.82225 311.659656,189.70785 C311.298662,189.117873 311.003304,188.134579 310.904851,187.380719 C310.872033,187.216837 310.839216,186.921849 310.806398,186.790743 C310.77358,186.790743 310.707945,186.757966 310.64231,186.757966 C310.740763,186.889072 310.806398,187.020178 310.806398,187.184061 C310.872033,187.708484 311.036121,188.462343 311.233027,189.085097 C311.233027,189.085097 311.233027,189.117873 311.233027,189.117873 C311.528386,190.166721 310.937669,190.789474 310.018775,191.57611 C308.0169,193.280487 306.310384,195.11597 303.947515,198.033077 C301.551829,201.048514 301.059564,201.146843 300.928294,201.146843 C300.895476,201.146843 300.895476,201.146843 300.862659,201.146843 C300.632935,201.212396 300.0094,201.704043 299.812495,202.031808 C299.845312,202.228467 299.812495,202.457902 299.714042,202.654561 C299.18896,203.670632 296.43228,204.358939 294.725763,204.391715 C290.722014,204.522821 285.504012,206.849951 284.486665,208.488776 C283.73186,209.734282 283.666225,210.094823 283.699042,210.193153 C283.699042,210.193153 283.73186,210.291482 284.224124,210.488141 C284.617936,210.652024 285.1102,210.78313 285.438376,210.78313 C285.536829,210.78313 285.569647,210.78313 285.569647,210.78313 C285.700917,210.750353 285.832188,210.717577 285.963458,210.717577 C286.751081,210.717577 287.17771,211.405883 287.505887,212.126965 C287.801245,212.782495 288.063786,213.405248 287.702792,213.929672 C287.308981,214.519649 286.455723,214.585202 285.143018,214.585202 C284.027219,214.585202 280.778274,215.797932 279.826563,216.519014 C279.892198,216.551791 279.925016,216.617344 280.023469,216.682897 L280.843909,217.30565 C281.040815,217.469532 281.139268,217.698968 281.10645,217.96118 C281.073633,218.223392 280.876727,218.387274 280.614186,218.452827 L279.72811,218.682262 C279.498387,218.747815 279.203028,218.780592 278.874852,218.780592 C278.316953,218.780592 277.627782,218.715039 277.037065,218.551156 C276.15099,218.321721 275.59309,218.223392 275.133643,218.223392 C273.755303,218.223392 272.770774,219.07558 269.981277,221.959911 C267.815314,224.221488 267.191779,224.745912 265.911892,224.745912 C265.288357,224.745912 264.303828,224.811465 263.778746,224.877018 L262.728582,224.975347 C262.695765,224.975347 262.695765,224.975347 262.662947,224.975347 C262.433224,224.975347 262.236318,224.877018 262.105047,224.680359 C261.973777,224.4837 261.973777,224.221488 262.07223,223.992053 L262.597312,223.074311 C263.089576,222.189346 263.713111,221.796028 264.796092,221.632146 C265.452445,221.533816 266.07598,221.337158 266.174433,221.238828 C266.174433,221.238828 266.174433,221.238828 266.20725,221.238828 C266.469791,220.976616 266.699514,219.73111 266.568244,219.305016 C266.272885,219.108357 265.813439,218.583933 266.338521,217.666191 C266.469791,217.403979 266.699514,216.65012 266.797967,216.027367 C266.797967,216.027367 266.797967,215.994591 266.797967,215.994591 C266.962055,215.240731 267.355867,214.290213 267.880949,213.929672 C268.931113,213.208589 269.784371,211.471436 269.718736,210.652024 C269.6531,209.963717 269.587465,208.193787 269.554648,206.817175 C269.52183,204.227833 269.620283,203.801738 270.7689,201.73682 L271.786246,199.934113 L271.326799,198.918042 C271.031441,198.295289 270.506359,197.508653 270.178182,197.180888 C269.587465,196.656465 269.062383,195.7715 269.324924,195.11597 C269.456195,194.755429 269.784371,194.55877 270.178182,194.55877 C270.407906,194.55877 270.703264,194.55877 272.803592,196.722018 C274.477291,198.426395 276.15099,199.508019 277.791871,199.96689 C277.857506,199.999666 277.923141,199.999666 278.021594,199.999666 C278.415405,199.999666 278.677946,199.639125 278.776399,199.409689 C279.137393,198.688607 279.203028,197.475877 278.546676,196.558135 C277.693418,195.312629 274.149115,191.510557 273.328674,190.887803 C273.131768,190.756697 272.114422,190.428933 270.867352,190.297827 C269.620283,190.166721 267.782496,189.773403 266.797967,189.511191 C265.550898,189.15065 263.614658,189.019544 260.332896,189.019544 C255.836882,189.019544 255.147712,189.019544 254.491359,188.069026 C254.327271,187.83959 253.441195,187.184061 252.522302,186.692413 C251.078327,185.938554 250.454792,185.446907 250.389156,184.365283 C250.356339,184.103071 250.06098,183.414765 249.601534,182.923118 C248.977999,182.300364 248.617005,181.87427 248.748275,181.349846 C248.846728,180.890976 249.273357,180.727093 249.437445,180.66154 C249.503081,180.628764 249.535898,180.628764 249.535898,180.628764 C249.535898,180.628764 249.601534,180.366552 249.010816,179.514363 C248.649823,178.989939 248.026288,177.908315 247.632476,177.02335 C247.140212,175.90895 247.074577,175.876173 246.221319,175.777844 C244.908614,175.581185 241.298675,173.876808 240.281329,172.92629 C239.821882,172.500195 239.592159,171.549677 239.559341,170.795818 C239.526524,170.173065 239.362436,169.222547 239.263983,168.7309 L239.132712,168.304805 L236.999567,168.435911 C236.343214,168.468688 235.818132,168.501464 235.391503,168.501464 C234.111616,168.501464 233.455264,168.239252 232.109741,167.583723 L230.534495,166.797087 L229.517149,167.452617 C229.353061,167.550946 229.057702,167.747605 228.860797,167.878711 C229.024885,168.042594 229.22179,168.337582 229.188973,168.7309 C229.123338,169.320876 228.565438,169.746971 226.990192,170.730265 C225.743123,171.549677 224.299147,172.729631 223.741248,173.319608 C222.920807,174.204573 222.395725,174.69622 221.017385,174.69622 C220.196945,174.69622 219.081145,174.532338 216.948,174.171796 C215.70093,173.942361 213.600603,173.745702 212.25508,173.712925 C210.450111,173.647372 207.857519,173.057396 207.332437,171.942995 C207.266802,171.942995 207.168349,171.910219 207.037078,171.910219 C206.118185,171.910219 205.068021,171.090807 204.510121,170.566383 C203.919404,170.009183 203.689681,169.812524 203.328687,169.714194 C202.86924,169.583088 202.114435,169.583088 200.703277,169.583088 C198.241956,169.583088 197.257427,169.419206 196.765163,168.927559 C196.66671,168.829229 196.075993,168.567017 195.386823,168.435911 C193.155224,168.042594 192.859866,167.41984 192.630142,164.99438 C192.466054,163.290003 192.433237,163.290003 191.711249,162.962238 C190.923626,162.568921 190.562632,162.273932 190.431362,161.716732 C190.398544,162.01172 190.365726,162.273932 190.365726,162.437815 L190.168821,164.011086 C190.136003,164.338851 189.840644,164.601063 189.512468,164.601063 L189.479651,164.601063 L186.165071,164.502733 C184.425737,164.469957 181.76751,164.338851 179.667182,164.207745 C177.993483,164.109415 175.729067,163.912756 174.711721,163.781651 C171.82377,163.421109 170.740789,163.290003 168.804549,163.093344 C168.804549,163.093344 168.804549,163.093344 168.771731,163.093344 C168.246649,163.027791 167.68875,162.962238 167.196485,162.896685 C166.737039,162.831133 166.376045,162.798356 166.146322,162.76558 C165.391516,162.66725 162.897377,162.372262 159.123351,161.978944 L157.154293,161.782285 C156.826117,161.749509 156.563576,161.45452 156.563576,161.126755 L156.596394,160.176237 C156.465123,160.962873 156.202582,161.749509 155.447777,161.749509 C155.218054,161.749509 154.98833,161.651179 154.758607,161.487297 C154.430431,161.421744 153.511537,161.323414 152.264468,161.192308 L151.312757,161.093979 C150.16414,160.995649 149.146794,160.89732 148.7858,160.831767 C148.359171,160.766214 147.046466,160.602332 145.865031,160.504002 C144.650779,160.405673 143.338075,160.24179 142.878628,160.176237 C142.451999,160.110688 141.139294,159.946802 139.957859,159.848472 C138.645155,159.750143 133.689694,158.734072 129.685944,157.81633 C126.56827,157.095248 123.745954,156.472494 122.236344,156.14473 C121.547174,155.980847 121.251815,155.915294 121.153362,155.915294 C120.562645,155.784188 120.103198,155.685859 119.610934,155.554753 C118.856129,155.39087 118.068506,155.226988 116.919889,154.964776 C116.460442,154.866447 115.968178,154.735341 115.541549,154.669788 C114.885197,154.538682 114.360115,154.407576 114.163209,154.374799 C113.966303,154.342023 113.506856,154.243694 112.916139,154.112588 C112.325422,153.981482 111.636252,153.817599 110.947082,153.686493 C109.142113,153.293175 108.452943,153.06374 108.157584,152.539316 C108.124766,152.473763 108.091949,152.40821 108.059131,152.309881 C107.960678,152.572093 107.763773,152.899858 107.337144,152.899858 C107.140238,152.899858 107.008967,152.834305 106.943332,152.768752 C106.943332,152.768752 106.910514,152.768752 106.910514,152.735975 C106.647973,152.637646 105.59781,152.375434 104.449193,152.047669 C103.79284,151.883787 103.070853,151.687128 102.348865,151.490469 C100.806437,151.097151 99.4280967,150.73661 98.1810271,150.408845 C92.3066728,148.86835 89.3530868,148.081714 87.777841,147.491738 C86.6620419,147.065643 86.1697775,146.705102 85.8416013,146.246231 C85.8416013,146.279008 85.8087837,146.311784 85.8087837,146.344561 C85.6775132,146.606773 85.3821546,146.770655 85.0539784,146.770655 C84.9227079,146.770655 84.7914374,146.737879 84.5945317,146.705102 C84.5945317,146.705102 84.5945317,146.705102 84.5617141,146.705102 C84.397626,146.639549 82.395751,146.016796 79.8687942,145.23016 C77.5715606,144.509078 74.7492452,143.624112 72.2879236,142.870253 C70.4829544,142.313053 51.2846457,135.135003 43.3755988,132.021237 C42.1285292,131.52959 40.5204658,130.939613 39.9297486,130.710178 C38.3873203,130.152977 38.0263265,129.563001 38.0263265,127.79307 C38.0263265,126.973658 37.7966032,126.67867 37.5668798,126.482011 C35.4337344,124.712081 34.7445643,123.859892 34.7445643,123.007704 C34.7445643,122.974927 34.7445643,122.942151 34.7445643,122.909374 C33.9569414,122.679939 33.2021361,121.696644 32.7426894,120.61502 C32.9067775,121.794974 33.2349537,122.319397 34.3507529,123.827116 C36.3198102,126.416458 36.5495335,126.908105 36.8448921,129.595777 C36.9761626,130.677401 37.2715212,132.021237 37.5012446,132.611214 C37.5012446,132.611214 37.5012446,132.64399 37.5012446,132.64399 C37.9606913,134.020602 37.8622384,134.51225 37.5340622,134.774462 C37.2715212,135.036674 36.8120745,135.135003 36.1229045,135.135003 C35.0071053,135.135003 33.300589,134.807238 32.4145132,134.250038 C30.2813678,132.873426 26.8683351,128.612483 26.8683351,126.842552 C26.8683351,126.350905 26.8683351,126.318129 26.3432532,126.12147 C25.1618188,125.695375 24.275743,124.285987 23.7506611,121.991633 C23.7506611,121.991633 23.7506611,121.958856 23.7506611,121.958856 C23.6850258,121.499985 23.2583967,120.61502 22.8974029,120.090597 C22.8974029,120.090597 22.8974029,120.090597 22.8974029,120.05782 C22.4707738,119.40229 21.8800566,118.18956 21.5190628,117.337372 C21.2237042,116.616289 20.4032637,115.010241 19.6484584,113.731959 C18.7623826,112.191464 18.0732125,110.487087 17.8434892,109.274357 C17.6137658,108.159956 17.2199544,106.81612 17.0230486,106.291696 C16.5307843,105.078967 16.5636019,104.652872 17.7450363,103.669578 C18.1716654,103.309036 19.1233764,102.686283 19.7797288,102.686283 C20.4032637,102.686283 21.4534276,103.145154 26.0478946,108.454944 C26.5073413,108.979368 26.966788,109.503792 27.3277818,109.929886 C27.3277818,109.700451 27.3605995,109.405463 27.3934171,109.077698 C27.4590523,108.651603 27.4590523,108.389392 27.4590523,108.225509 C27.1308761,108.159956 26.7698823,107.996074 26.5729765,107.701085 C26.4088884,107.569979 25.8509889,107.176662 25.0961836,106.750567 C23.8491139,106.029485 23.1927615,105.373955 23.1927615,104.882308 C23.1927615,104.751202 23.1271263,104.423437 23.0943086,104.194001 C23.0943086,104.128449 23.061491,104.030119 23.061491,103.964566 C22.8645853,103.014048 22.8645853,102.391295 22.8974029,98.8514345 C22.9302205,95.8687744 22.9630382,95.508233 24.1772902,94.492162 C24.3741959,94.3282796 24.7351897,94.0005147 24.7680073,93.9021853 C24.7680073,93.8694088 24.7680073,93.7383029 24.6039192,93.3449851 C24.3741959,92.7222318 24.2101078,91.6078314 24.2101078,90.7884193 C24.2101078,89.9690071 23.9475668,89.3462539 23.0286734,87.9696416 C21.9128743,86.3963703 21.584698,85.7080641 21.7816038,84.4625577 C21.9128743,83.6759221 22.372321,82.790957 22.8645853,82.3976392 C23.2255791,82.1026508 23.3568496,82.0043214 22.2410505,79.8082969 C21.6175157,78.5627905 21.5190628,77.7106019 21.5190628,73.9413061 C21.5190628,69.8770221 21.5190628,69.4509278 22.5692267,68.4020802 C23.0943086,67.8776565 24.3085606,67.1565738 25.3915422,66.763256 C27.6231404,65.9110674 29.1983863,64.4033491 29.1983863,63.583937 C29.1983863,62.1089952 29.9531916,60.4373945 31.2987141,58.9624527 C32.0535194,58.1102641 32.1519722,57.9791581 32.1519722,56.2420044 C32.1519722,54.5376272 32.086337,54.4720743 31.3971669,53.8493211 C30.1829149,52.7676971 28.1482224,48.9328484 27.5575052,46.6712709 C27.1965113,45.2618821 27.2621466,44.4752465 28.0825871,41.197598 C28.8373924,38.0510555 28.9030277,37.4610787 28.6076691,35.920584 C28.4107634,34.83896 28.18104,32.544606 28.0497695,30.8402288 C27.9513166,29.1358516 27.7872285,27.4642509 27.7215933,27.1037096 C27.6887757,27.0053801 27.6887757,26.8414977 27.6559581,26.6776153 C27.5903228,26.2187445 27.4590523,25.6287678 27.3934171,25.104344 C27.2949642,24.4815908 26.8026999,22.1872369 26.2448003,19.7945535 C25.7197184,17.4674231 25.1946364,15.3369516 25.0961836,14.9764103 C25.0961836,14.9764103 25.0961836,14.9764103 25.0961836,14.9436338 C25.0633659,14.7797514 24.7680073,14.4519865 24.1116549,14.1569982 C23.2912144,13.8292333 22.5035914,13.5014685 22.1754152,13.5014685 C22.0769624,13.5014685 22.0113271,13.5014685 21.6831509,13.9931157 C21.158069,14.8780808 20.370446,15.4025046 18.7623826,15.9924813 C17.7122187,16.3530226 16.2354257,16.9429994 15.5462556,17.3035407 C15.5462556,17.3035407 15.5462556,17.3035407 15.513438,17.3035407 C15.2508971,17.4346466 14.9883561,17.5329761 14.7914504,17.6313055 C14.1350979,17.9262939 14.0366451,17.9918469 13.8725569,17.9918469 C13.6756512,17.9918469 13.4787455,17.8935174 13.347475,17.729635 C13.1177516,17.4346466 13.1833869,17.2379877 13.4131102,16.0908108 C13.4131102,16.0908108 13.4131102,16.0580343 13.4131102,16.0580343 C13.8397393,14.5175395 13.5115631,10.8137967 13.0192988,10.0599376 C12.3301287,9.04386655 12.2644935,6.61840669 12.7567578,5.70066512 C13.0192988,5.17624136 13.4131102,5.11068839 13.6428336,5.11068839 C13.7084688,5.11068839 13.7412865,5.11068839 13.8069217,5.11068839 C13.8397393,5.11068839 13.8397393,5.11068839 13.8725569,5.11068839 C14.4304565,5.27457082 21.3549747,9.76494921 21.4206099,9.7977257 C31.9878841,16.6807875 43.1786931,23.4982963 48.6264183,26.3498504 C51.1533752,27.6609098 53.6803321,29.0047457 53.942873,29.1686281 C54.7633136,29.7258284 64.7726882,34.8061835 68.6123499,36.5761137 C71.0408539,37.6905141 76.1275853,39.7882091 79.9016118,41.2303745 C87.1871238,44.0819286 87.2855767,44.1802581 87.4496648,44.311364 C87.6465705,44.5080229 87.7122058,44.7374583 87.7122058,44.9996702 C87.8106586,44.7374583 88.0731996,44.5735759 88.3357406,44.5735759 C88.4013758,44.5735759 88.467011,44.5735759 88.5326463,44.6063524 L95.7853407,47.0318123 C99.7562729,48.3756481 105.794715,50.2439077 109.240566,51.2599788 C111.209623,51.817179 114.064756,52.6693676 116.821436,53.4887797 C118.921764,54.1115329 120.989274,54.7015097 122.662973,55.1931569 C129.981302,57.2908519 130.112573,57.4219579 130.243843,57.5530638 C130.440749,57.7497227 130.473567,58.0119346 130.473567,58.2085935 C130.670473,57.8808287 130.965831,57.6841698 131.359643,57.6841698 C131.458095,57.6841698 131.589366,57.7169462 131.687819,57.7169462 C132.180083,57.8480522 134.444499,58.3396995 136.610462,58.7330173 C136.610462,58.7330173 136.64328,58.7330173 136.64328,58.7330173 C136.807368,58.7657938 137.037091,58.7985702 137.266815,58.8641232 C137.594991,58.9296762 137.857532,58.9624527 138.087255,59.0280056 C139.465595,59.322994 152.822367,61.9123363 153.60999,62.0434422 C154.003802,62.1089952 155.447777,62.3712071 157.285564,62.7317484 L158.401363,62.9611838 C160.829867,63.4528311 162.963012,63.8133724 163.586547,63.8789254 C164.767981,64.0100313 165.260246,64.1739137 165.391516,64.9277729 L165.424334,64.665561 C165.457152,64.3377961 165.75251,64.0755843 166.080686,64.0755843 C166.113504,64.0755843 166.113504,64.0755843 166.146322,64.0755843 L167.623115,64.2066902 C167.623115,64.2066902 167.655932,64.2066902 167.655932,64.2066902 C168.443555,64.3377961 169.985983,64.5016786 171.1346,64.600008 C172.283217,64.6983375 174.514815,64.9605494 175.761885,65.0916553 C176.976137,65.2227612 179.207735,65.4849731 180.323534,65.5833026 C181.373698,65.681632 182.620768,65.812738 183.047397,65.8782909 C183.375573,65.9438439 184.721095,66.1077263 185.935347,66.2388323 C187.018329,66.3371617 188.101311,66.5010441 188.52794,66.5338206 L188.692028,66.5665971 C188.724845,66.5665971 188.757663,66.5665971 188.757663,66.5993736 C188.888933,66.6321501 189.676556,66.7304795 190.332909,66.7960325 C190.72672,66.828809 191.186167,66.8943619 191.612796,66.9599149 C192.072243,67.0254679 192.531689,67.0582444 192.925501,67.1237973 C193.975665,67.2549033 194.271023,67.2876798 194.402294,67.3204562 C194.5992,67.3532327 195.649363,67.3860092 196.272898,67.4187857 L198.012232,67.4515622 C198.209138,67.4515622 198.373226,67.5498916 198.504497,67.6809976 C198.635767,67.8121035 198.701402,68.0087624 198.668585,68.2054213 L198.406044,70.4342223 C197.880962,74.6951653 198.110685,76.5306484 198.307591,76.9239662 C198.471679,77.2845076 199.817201,77.5794959 201.064271,77.8417078 C204.510121,78.5627905 205.790009,79.2838731 206.118185,81.8076625 C206.347908,83.6103691 206.544814,84.5281107 207.201166,87.6418767 C208.12006,92.0339257 208.218513,92.6239024 207.890336,93.5088675 C207.890336,93.541644 207.857519,93.5744204 207.857519,93.5744204 C207.955972,93.5744204 208.087242,93.6071969 208.316965,93.6071969 C209.564035,93.6071969 211.401822,93.3122086 211.828451,93.1155497 C212.025357,92.8861143 212.583256,92.5583494 214.519496,92.4927965 C214.683584,92.4927965 214.88049,92.4927965 215.01176,92.4927965 C216.25883,92.4927965 216.980818,92.6239024 217.440264,93.2794321 C217.669988,93.6071969 218.162252,93.8038558 220.295397,94.1316207 C220.328215,94.1316207 224.069424,94.7543739 224.069424,96.0982098 L224.069424,96.1309863 C224.200694,95.9998803 224.364782,95.9015509 224.561688,95.9015509 C224.660141,95.9015509 224.791412,95.9343273 224.889864,95.9998803 L225.972846,96.6226335 C226.924557,97.1470573 229.615602,99.3103053 229.845325,100.391929 C229.910961,100.523035 230.206319,100.916353 230.764219,101.473553 C231.453389,102.161859 232.109741,102.456848 233.488081,102.71906 C234.997692,103.014048 236.015038,103.472919 236.769843,104.194001 C237.590284,104.947861 238.246636,105.210072 239.624977,105.275625 C240.412599,105.308402 242.020663,106.619461 242.512927,107.045556 L244.120991,108.454944 L250.028163,108.651603 C255.410253,108.815486 256.493234,108.946592 257.838757,109.602121 L259.184279,110.290428 C259.414002,110.421534 259.578091,110.650969 259.545273,110.913181 L259.31555,113.764735 C259.118644,115.993536 258.921738,116.780172 258.75765,117.07516 C258.790468,117.173489 258.856103,117.435701 259.053009,117.796243 C259.414002,118.386219 259.840632,119.598949 259.971902,120.516691 C260.332896,123.13881 260.398531,123.302692 260.628254,123.827116 C260.890795,124.35154 260.956431,125.46594 260.890795,126.285352 C260.792343,127.3342 260.923613,127.760294 261.678418,128.940247 C262.925488,130.87406 266.272885,134.872791 266.962055,135.429991 C268.27476,135.757756 270.276635,138.740416 270.834535,140.280911 L271.293981,141.657523 L272.803592,141.526417 L274.838285,141.362535 L274.90392,141.362535 C275.133643,141.362535 275.330549,141.493641 275.461819,141.6903 C275.363367,140.969217 275.297731,140.510346 275.264914,140.412017 C275.166461,140.018699 275.100826,139.559828 275.363367,139.199287 C275.625908,138.805969 276.085354,138.70764 276.643254,138.60931 C276.807342,138.576534 276.938612,138.543757 277.004248,138.510981 C277.004248,138.445428 276.97143,138.314322 276.938612,138.15044 C276.741707,137.167145 276.905795,136.446062 277.726235,135.298885 C278.2185,134.545026 278.546676,133.692838 278.546676,133.463402 C278.546676,133.20119 278.087229,131.824578 277.266789,130.152977 C276.511983,128.579706 275.757178,126.711446 275.560272,125.924811 C275.363367,125.236505 275.002373,124.384316 274.739832,124.056551 C274.280385,123.433798 274.083479,122.548833 274.116297,121.237773 C274.116297,121.237773 274.116297,121.237773 274.116297,121.204997 C274.181932,119.795608 273.459945,118.124007 272.475416,117.599584 C271.884699,117.271819 271.523705,116.550736 271.523705,115.829654 C271.523705,115.534665 271.293981,114.911912 270.998623,114.518594 C270.801717,114.289159 270.211,113.469747 270.211,112.978099 C270.211,111.765369 273.591215,109.602121 273.952209,109.372686 C274.805467,108.848262 275.954084,107.864968 276.479166,107.242215 C277.037065,106.586685 278.152864,105.308402 278.973305,104.357884 C279.925016,103.309036 280.778274,101.899648 281.500262,100.031388 C282.583243,97.4092692 282.616061,96.9503984 282.583243,94.5904915 C282.550426,92.6566789 282.320702,91.2800665 281.66435,89.3134774 C281.172086,87.8057592 280.679821,86.1997114 280.548551,85.7080641 C280.548551,85.7080641 280.548551,85.6752876 280.548551,85.6752876 C280.28601,84.4953342 277.594965,81.4471211 275.494637,80.2999442 C273.230221,79.0872142 270.703264,76.9895192 270.539176,75.219589 C270.506359,74.5640594 270.736082,73.4168824 271.097076,72.6630232 C271.392434,72.0074936 271.654975,71.2536344 271.720611,71.024199 C271.819063,70.4342223 272.475416,69.8114691 272.672322,69.6148102 C272.672322,69.6148102 272.672322,69.5820337 272.705139,69.5820337 C273.000498,69.3525983 273.164586,69.1559394 273.164586,68.0087624 C273.164586,66.7304795 273.427127,65.9110674 273.985026,65.2883142 C274.181932,65.0588788 274.280385,64.9605494 274.280385,64.8949964 C274.313203,64.731114 274.116297,64.2066902 273.985026,63.9117018 C273.722486,63.1578427 273.459945,62.1745482 273.328674,61.6501244 C273.164586,60.7323828 272.344145,59.1263351 271.425252,57.9136052 C270.604811,56.8319812 270.539176,56.209228 270.539176,52.83325 C270.539176,50.0144724 270.375088,49.1950602 270.243818,48.9984013 C269.850006,48.572307 269.193654,47.1629182 268.767025,46.0485177 L267.848131,43.7869403 C267.782496,43.6230579 267.782496,43.4263989 267.880949,43.22974 L268.734207,41.5253628 C269.620283,39.7554327 269.882824,39.4604443 271.622158,39.2310089 C272.639504,39.099903 273.624033,39.03435 274.477291,39.03435 C275.855631,39.03435 277.004248,39.1982324 277.890323,39.5259973 C279.006123,39.9193151 280.515733,40.181527 281.729985,40.181527 C282.48479,40.181527 282.845784,40.0831975 282.977055,40.050421 C283.370866,39.8865386 284.256942,39.2310089 284.946112,38.5427027 C285.372741,38.1166084 286.48854,37.0677609 287.04644,37.0677609 C287.965333,37.0677609 294.824216,40.8370567 296.43228,41.9186806 C298.073161,42.9675282 298.729513,43.5902814 298.63106,44.6391289 C298.598243,44.9013408 298.762331,45.4913175 299.024872,45.9174118 C299.32023,46.3762826 299.418683,46.5073885 302.50354,46.8679298 C304.275691,47.0973652 306.605742,47.490683 307.590271,47.8184479 L309.198335,48.3428716 C309.493693,48.4412011 309.690599,48.7361895 309.657781,49.0311778 L309.428058,50.8338845 C309.198335,52.4399322 309.428058,53.4560032 310.937669,57.6841698 C311.134574,58.2741465 311.298662,59.1591116 311.298662,59.7818648 L311.298662,59.8146413 C311.265845,60.1424061 311.528386,60.6340534 311.88938,61.0601477 C312.414461,61.5845714 313.103632,62.6334189 313.497443,63.5511605 L313.95689,64.600008 L315.072689,64.4689021 C315.499318,64.4033491 315.794677,64.3705726 316.090035,64.3705726 C317.140199,64.3705726 317.698099,64.8622199 318.945168,65.8782909 C319.896879,66.697703 320.979861,67.3532327 321.308037,67.4515622 C321.669031,67.5498916 322.161295,67.7465505 322.456654,68.0743154 C322.686377,67.910433 323.047371,67.6154446 323.670906,67.0254679 C324.655434,66.0749498 325.016428,65.4849731 325.147699,64.6327845 C325.278969,63.7805959 325.574328,62.8628543 326.493221,62.4695365 C326.690127,62.4039836 327.051121,61.9451128 327.313662,61.1257007 C327.805926,59.6179824 327.707473,56.4386633 327.248026,55.6520277 C327.149574,55.4881453 326.755762,54.6687332 326.952668,54.1115329 C326.985486,53.980427 327.083938,53.4232268 327.182391,52.964356 C327.248026,52.7021441 327.280844,52.4071557 327.346479,52.1121674 C327.60902,50.6044491 328.363826,49.0639543 329.446807,49.0639543 C329.610895,49.0639543 329.807801,49.0967308 329.971889,49.1950602 C330.004707,49.1950602 330.037524,49.2278367 330.070342,49.2606132 C329.54526,47.1956947 329.709348,47.0645887 329.939071,46.8351533 C330.070342,46.7040474 330.267248,46.6384944 330.464153,46.6384944 C330.661059,46.6384944 331.186141,46.6384944 333.352104,48.6050835 C334.36945,49.4900486 335.682155,50.801108 336.404143,51.7844025 C337.093313,52.7349206 337.749665,53.3248973 337.946571,53.4560032 C338.602924,53.5215562 339.292094,54.2426389 339.62027,54.6687332 C339.62027,54.6687332 339.62027,54.6687332 339.653087,54.7015097 C339.948446,55.127604 340.703251,55.8486866 341.228333,56.143675 C342.081591,56.6680987 342.770762,57.5858403 343.295843,58.7657938 C343.689655,59.6835353 343.985014,59.9457472 344.050649,60.0113002 C344.772636,60.0768531 345.494624,60.9618182 345.789983,61.420689 C346.249429,62.1089952 346.544788,62.3056541 347.398046,62.43676 C348.776386,62.6661954 349.235833,63.0267368 349.925003,64.3705726 C350.318815,65.1244318 350.811079,66.4027147 350.909532,67.2876798 C350.975167,67.7137741 351.007985,67.9759859 351.106437,68.0743154 C351.237708,68.2054213 351.631519,68.3365273 352.156601,68.4676332 C353.00986,68.6970686 354.092841,69.1887159 354.552288,69.7131396 C355.339911,70.5653282 355.20864,71.0569755 354.749193,72.5646938 C354.3882,73.8429767 354.421017,74.0396356 354.650741,74.4657299 C354.913282,74.9573772 355.241458,75.7767893 355.339911,76.2356601 C355.438364,76.5962014 355.832175,76.8256368 358.621673,77.8417078 C360.59073,78.530014 362.264429,79.0216613 362.559787,79.0544378 C363.34741,79.0544378 364.528845,80.2343912 364.857021,80.5949325 L365.907185,81.7421095 L368.565412,81.8732154 C370.173476,81.9387684 372.142533,82.2337568 372.930156,82.5287451 C373.29115,82.6598511 373.619326,82.7581805 373.881867,82.7581805 C374.341314,82.7581805 374.767943,82.5287451 375.325842,82.0043214 C375.588383,81.7421095 375.949377,81.6110036 376.376006,81.6110036 C376.835453,81.6110036 377.491805,81.7421095 378.738875,82.1026508 C381.364285,82.8237335 381.626826,83.1514983 381.725278,83.3481572 C381.987819,83.7742515 382.053455,84.3314518 381.856549,84.888652 C381.692461,85.4458523 381.331467,85.9374995 380.839203,86.2652644 C381.068926,86.2324879 381.265832,86.1997114 381.528373,86.1997114 C382.742625,86.1997114 383.267707,86.4946998 384.05533,87.5763238 C384.350688,88.0024181 384.547594,88.2318535 384.646047,88.2318535 C384.711682,88.2318535 384.810135,88.199077 384.941405,88.1663005 C385.597758,88.0024181 386.286928,87.9040886 386.94328,87.9040886 C387.993444,87.9040886 388.912338,88.133524 389.503055,88.5923948 C389.864049,88.8873831 391.045483,89.6412423 392.161282,90.231219 C392.88327,90.6245368 393.57244,91.0178546 393.933434,91.2145136 C394.097522,91.312843 394.195975,91.3456195 394.228792,91.378396 C394.852327,91.7061608 394.589786,92.3616905 394.228792,93.1483261 C393.802163,94.0988442 394.39288,95.8032214 395.607132,97.0159513 C396.624479,98.0320224 398.26536,100.555812 398.26536,101.604659 C398.26536,102.194636 397.182378,103.964566 396.132214,105.406731 C396.165032,105.373955 396.19785,105.341178 396.263485,105.308402 C397.215196,104.587319 397.773095,104.226778 398.298177,104.226778 C398.593536,104.226778 398.888895,104.325107 399.151436,104.554543 C400.628229,105.800049 400.857952,107.340544 400.726681,111.273722 C400.693864,111.929252 400.595411,115.043018 400.33287,115.698548 C400.300052,115.829654 400.168782,116.41963 400.037511,117.534031 C400.135964,117.402925 400.168782,117.337372 400.2016,117.304595 C400.267235,116.97683 400.562593,116.354077 401.973751,116.354077 C402.498833,116.354077 403.023915,116.452407 403.516179,116.616289 C405.091425,117.173489 405.222696,117.599584 405.091425,119.435067 L405.058608,119.828385 L406.010319,119.828385 C406.732306,119.828385 407.257388,119.730055 407.421476,119.697279 C407.815288,119.336737 408.701364,119.041749 409.423351,118.84509 C410.210974,118.648431 411.589314,118.124007 412.541025,117.697913 C413.459919,117.271819 414.378812,117.042383 415.23207,117.042383 C416.052511,117.042383 416.840134,117.239042 417.594939,117.63236 C418.054386,117.861796 418.41538,118.386219 418.612285,119.107302 C418.809191,119.795608 418.842009,120.811679 418.382562,121.499985 C418.316927,121.598315 418.316927,121.631091 418.284109,121.663868 C418.316927,121.696644 418.382562,121.794974 418.54665,121.92608 C418.54665,121.92608 418.54665,121.92608 418.579468,121.92608 C418.842009,122.188292 418.973279,122.253845 419.268638,122.253845 C419.498361,122.253845 419.79372,122.221068 420.285984,122.122739 C421.040789,121.991633 421.500236,121.958856 421.86123,121.958856 C423.272388,121.958856 423.469293,122.876598 423.469293,123.663233 C423.469293,124.744857 422.747306,126.088693 421.565871,127.170317 C421.762777,127.498082 421.86123,127.989729 421.86123,128.4486 C421.86123,128.710812 421.894047,128.973024 421.894047,129.202459 C422.090953,128.874694 422.353494,128.54693 422.5504,128.284718 C423.633381,127.006435 424.125646,127.006435 424.289734,127.006435 C425.077357,127.006435 425.569621,128.120835 425.766527,128.776365 C425.930615,129.333565 426.061885,129.497448 426.094703,129.563001 C426.193156,129.530224 426.422879,129.464671 427.013596,129.038577 C427.210502,128.907471 427.899672,128.415824 428.490389,128.415824 C428.785748,128.415824 428.982654,128.54693 429.081107,128.645259 C429.474918,129.038577 429.573371,130.611848 429.606189,131.52959 C429.278012,132.906202 429.343648,134.41392 429.376465,135.102226 Z" id="Path" fill="#FFDBD0" fill-rule="nonzero" mask="url(#mask-2)"></path>
                <path d="M359.11669,182.605655 C359.11669,182.605655 359.083942,182.605655 359.11669,182.605655 C358.068765,184.574423 356.234897,186.215062 354.532019,186.707254 C353.615085,186.969757 352.56716,187.757264 350.504059,189.726031 C348.899424,191.268233 346.86907,193.072936 345.984883,193.729192 C345.231687,194.319822 344.020024,195.46827 343.365071,196.28859 C342.611875,197.207348 341.465708,198.585485 340.778007,199.405805 C340.286792,199.996435 339.468101,200.948006 339.369858,201.046445 C339.337111,201.079258 339.271615,201.11207 339.238868,201.144883 C339.435354,201.538637 339.533596,201.998016 339.533596,202.391769 C339.533596,202.687084 339.500849,202.949587 339.435354,203.146464 C339.992064,203.212089 340.516026,203.408966 340.908998,203.901158 C341.498455,204.688665 341.301969,205.738674 340.974493,206.788684 C340.843502,207.21525 340.712512,207.707442 340.712512,207.904318 C340.712512,207.937131 340.712512,207.969944 340.908998,208.232446 C341.170979,208.560574 341.85868,209.151205 342.41539,209.479333 C342.41539,209.479333 342.448137,209.479333 342.448137,209.512145 C343.561557,210.201214 343.954529,210.562155 344.08552,210.890283 C344.282005,211.021534 344.64223,211.185598 344.969706,211.316849 C344.904211,211.152785 344.805968,210.955908 344.64223,210.85747 C344.347501,210.660593 343.725295,210.168401 343.954529,209.413707 C344.21651,208.659013 345.002454,208.659013 345.395426,208.659013 C346.279612,208.659013 347.098303,209.380894 347.622266,210.102776 C348.5392,211.382475 348.637443,211.841854 347.720509,213.121553 C347.720509,213.121553 347.687761,213.154365 347.687761,213.154365 C347.55677,213.318429 347.360284,213.515306 347.131051,213.67937 C347.851499,213.777808 348.146228,214.204375 348.244471,214.466877 C348.408209,214.860631 348.440957,215.484074 347.687761,216.238768 C347.458527,216.468457 347.065556,216.862211 346.44335,216.862211 C346.115874,216.862211 345.821145,216.763773 345.460921,216.599709 C344.838715,216.370019 344.511239,215.779389 344.64223,215.155946 C344.64223,215.09032 344.674977,214.991882 344.707725,214.926256 C344.511239,214.991882 344.282005,215.09032 344.08552,215.155946 C344.380248,215.385635 344.609482,215.746576 344.674977,216.107517 C344.805968,216.698147 344.609482,217.0919 344.445744,217.32159 C344.052772,217.813782 343.463314,217.879408 342.9721,217.879408 C342.480885,217.879408 341.891427,217.813782 341.498455,217.32159 C341.334717,217.124713 341.203727,216.829398 341.203727,216.402832 C340.974493,216.468457 340.745259,216.50127 340.516026,216.50127 C340.123054,216.50127 339.76283,216.402832 339.435354,216.205955 C339.435354,216.468457 339.369858,216.73096 339.20612,216.960649 C339.20612,216.993462 339.173372,216.993462 339.173372,217.026275 C338.813148,217.616905 336.553561,219.487234 335.636626,219.487234 C335.44014,219.487234 335.276402,219.454422 335.145412,219.388796 C335.014421,219.716924 334.621449,219.979426 333.835506,220.274741 C334.228477,220.405993 334.424963,220.668495 334.555954,220.865372 C334.75244,221.226312 335.079916,222.145071 333.737263,223.326331 C333.278796,223.720085 332.361862,224.573217 331.706909,225.19666 C331.674161,225.229473 331.674161,225.229473 331.641413,225.262286 C330.397003,226.24667 326.008818,228.379501 324.600669,228.379501 C324.436931,228.379501 324.30594,228.346688 324.174949,228.313876 C324.30594,228.904506 324.502426,229.626387 324.829902,230.381082 C325.190127,231.234214 325.386612,232.349849 325.28837,233.038918 C325.222874,233.53111 325.091884,234.384242 324.993641,234.94206 C324.73166,236.779576 322.177343,241.963997 320.96568,242.751505 C320.867437,242.81713 320.801942,242.849943 320.736446,242.915568 C320.310727,243.210884 319.983251,243.473386 319.426541,243.473386 C319.361045,243.473386 319.262802,243.473386 319.197307,243.440573 C320.081493,244.490583 320.801942,245.737469 320.801942,246.590601 C320.801942,246.951542 320.670951,247.214044 320.474465,247.410921 C320.670951,247.574985 320.769194,247.837487 320.769194,248.132803 C320.769194,248.165615 320.769194,248.198428 320.769194,248.231241 L320.703699,249.642191 C320.703699,249.904693 320.638203,251.282831 320.310727,251.74221 C320.245232,251.840648 320.146989,251.939087 320.048746,252.004712 C319.950503,252.070338 319.819512,252.10315 319.655774,252.168776 C319.85226,252.660968 319.655774,253.087534 319.557531,253.284411 C319.426541,253.612539 319.066316,254.498484 318.804335,255.253179 C318.509606,256.073498 317.985644,257.156321 317.461682,257.681325 C317.428934,257.681325 317.428934,257.714138 317.396186,257.746951 C317.494429,257.845389 317.559925,258.009453 317.62542,258.140704 C317.821906,258.731335 317.527177,259.321965 317.1997,259.84697 C316.937719,260.339161 316.577495,260.831353 316.08628,261.093856 C317.232448,262.176678 317.559925,262.636057 317.559925,263.522002 C317.559925,264.014194 317.363439,264.440761 317.06871,264.768889 C317.461682,265.097016 317.658168,265.589208 317.789158,265.917336 C318.214878,266.967346 318.214878,267.525163 317.723663,268.148606 C318.902578,268.378296 319.623026,268.772049 320.343475,269.592369 C321.948109,271.397073 321.555138,272.447082 320.048746,274.054909 C319.426541,274.743978 319.000821,275.367421 318.902578,275.531485 C318.902578,275.531485 318.902578,275.531485 318.902578,275.531485 C318.509606,276.679932 316.741233,276.876809 315.693309,276.876809 L315.693309,276.876809 C315.693309,276.975247 315.693309,277.139311 315.693309,277.270563 L315.693309,277.729942 L315.988037,277.729942 C316.610243,277.729942 317.62542,277.729942 318.018392,278.583074 C318.411363,279.436207 317.690915,280.28934 317.232448,280.87997 C315.791552,282.586235 314.97286,283.340929 313.335478,283.340929 C312.74602,283.340929 312.516787,283.439368 310.355442,285.70345 C308.16135,288.000346 308.063107,288.262848 308.063107,288.886291 C308.063107,290.461305 307.60464,290.920684 306.163743,291.544128 C304.755594,292.200383 304.460865,292.200383 304.362622,292.200383 C304.002398,292.200383 303.83866,292.069132 303.249202,291.609753 C303.150959,291.773817 303.052716,291.937881 302.954473,292.069132 C302.72524,292.430073 302.365016,292.856639 302.004792,293.283206 C300.4984,295.055096 300.269166,295.514475 300.007185,297.023864 C299.810699,298.106686 299.253989,299.09107 298.27156,300.009828 C297.682102,300.567646 296.568682,301.781719 295.815486,302.667664 C295.029543,303.619235 293.130179,305.522377 291.656535,306.867702 C290.084648,308.344277 289.298704,309.098972 288.643751,309.361474 C288.709247,309.623976 288.741994,309.919292 288.578256,310.345858 C288.512761,310.542735 288.349022,311.067739 287.988798,312.01931 C287.759565,312.675566 287.497584,313.43026 287.235602,314.217767 C286.482406,316.449037 286.15493,317.925613 286.15493,319.074061 C286.15493,319.861568 286.15493,320.845952 285.729211,321.370956 C286.318668,321.895961 286.416911,322.552217 286.449659,322.94597 L286.449659,322.978783 C286.449659,324.881925 289.986405,332.724183 292.671712,336.267964 C294.50558,338.663298 295.258776,340.435189 295.979224,343.814907 C296.142963,344.536788 296.830663,346.341492 297.583859,347.85088 C297.878588,348.408698 298.173317,349.032141 298.500793,349.655584 C299.024756,350.705593 299.581466,351.788415 299.94169,352.477484 C300.989615,354.54469 301.022362,355.004069 301.120605,359.400983 C301.1861,363.108829 301.087858,364.454153 300.596643,365.340099 C300.465652,365.602601 300.170923,366.8823 300.007185,368.326063 C299.974437,368.621378 299.712456,371.082337 299.155746,371.93547 C298.238812,373.379233 295.357019,375.249562 293.457655,375.905818 C292.868198,376.135508 292.27874,376.299572 291.820273,376.463635 C291.59104,376.529261 291.394554,376.594887 291.329058,376.627699 C291.296311,376.627699 291.296311,376.627699 291.263563,376.660512 C291.03433,376.726138 290.870591,376.758951 290.739601,376.758951 C290.313881,376.758951 289.953657,376.496448 289.789919,376.135508 C289.658928,375.840192 289.626181,375.380813 290.150143,374.855809 C290.641358,374.363617 291.820273,373.969863 292.180497,373.838612 C293.785132,373.34642 295.651748,372.066721 296.73242,371.082337 C296.306701,371.147963 295.880981,371.213589 295.48801,371.34484 C295.324271,371.377653 295.193281,371.410465 294.996795,371.410465 C293.457655,371.410465 290.837844,369.408885 289.069471,367.407305 C287.988798,366.160419 286.940874,365.307286 286.678892,365.143222 C285.860201,364.782281 284.976015,363.666646 284.452052,362.747888 C283.993585,361.927568 283.109399,360.943184 282.585436,360.582244 C281.504764,359.794737 280.915306,358.941604 280.260353,357.235339 C279.867381,356.119704 279.310671,355.233758 278.688466,354.675941 C278.262747,354.282187 277.24757,353.297804 277.214822,352.411858 C277.182074,352.149356 276.920093,351.033721 276.461626,349.557145 C275.970411,347.916506 275.57744,345.652423 275.446449,343.486779 C275.184468,338.892988 275.118973,338.696111 272.171684,336.038275 C270.665292,334.69295 268.995162,332.986685 268.503948,332.231991 C268.143723,331.706986 267.48877,331.116356 267.128546,330.952292 C266.866565,330.821041 266.702827,330.788228 266.506341,330.788228 C265.81864,330.788228 264.541482,331.378858 262.118156,332.592931 C260.80825,333.249187 258.941634,334.036694 258.057448,334.233571 C258.057448,334.233571 258.057448,334.233571 258.0247,334.233571 C257.762719,334.299197 257.435242,334.332009 257.173261,334.332009 C256.092589,334.332009 255.601374,333.642941 255.077412,332.888247 C254.717188,332.363242 254.12773,331.903863 253.636515,331.739799 C252.850572,331.510109 251.409675,330.755415 250.394498,330.131972 L248.757116,329.147588 L245.711584,329.344465 C243.844968,329.442903 242.305829,329.606967 242.0111,329.672593 C241.847362,329.738218 241.683624,329.738218 241.519885,329.738218 C241.388895,329.738218 241.225157,329.705406 241.028671,329.63978 C240.995923,329.672593 240.963175,329.738218 240.930428,329.771031 C240.733942,330.000721 240.471961,330.164785 240.144484,330.164785 L237.786654,330.164785 C236.182019,330.131972 235.035851,330.033534 234.544636,329.278839 C234.446393,329.278839 234.315403,329.311652 234.184412,329.344465 L233.038245,329.574154 C232.972749,329.574154 232.907254,329.606967 232.841759,329.606967 C232.645273,329.606967 232.448787,329.541342 232.252301,329.41009 C232.154058,329.442903 232.055815,329.475716 231.957572,329.475716 L231.204376,329.508529 C231.204376,329.508529 231.204376,329.508529 231.171629,329.508529 C228.158845,329.574154 226.947182,329.967908 226.717948,330.131972 C226.685201,330.197598 226.619706,330.23041 226.586958,330.296036 C227.143668,330.755415 227.340154,331.313232 227.340154,332.396055 C227.340154,333.446064 227.012677,334.364822 226.42322,334.889827 C226.128491,335.152329 226.062996,335.382019 226.095743,335.480457 C226.128491,335.644521 226.324977,335.74296 226.42322,335.775772 C227.700378,336.300777 229.632489,338.203919 229.632489,339.516431 C229.632489,340.336751 228.912041,340.960194 228.027854,340.960194 C227.765873,340.960194 227.372901,341.025819 227.176416,341.058632 C227.012677,341.091445 226.816191,341.124258 226.619706,341.124258 C226.161238,341.124258 225.637276,341.025819 225.211557,340.894568 C224.622099,340.730504 223.63967,340.303938 222.755483,339.97581 L222.558997,339.910184 C221.96954,339.680495 221.576568,339.516431 221.380082,339.516431 C221.249091,339.516431 221.085353,339.582056 220.725129,339.74612 C219.382475,340.336751 218.432794,340.56644 216.304196,340.828942 C216.042215,340.861755 215.780234,340.894568 215.518253,340.894568 C213.422403,340.894568 211.392049,339.811746 209.656424,337.777353 C208.935976,336.92422 207.724313,336.005462 207.06936,335.677334 L206.152425,335.217955 L205.923192,335.414832 C205.169996,336.136713 204.056576,336.497654 202.74667,336.497654 C201.240278,336.497654 199.570148,336.005462 197.965513,335.119516 C197.670785,334.955452 196.393626,334.758576 194.690749,334.758576 C193.577329,334.758576 192.889628,334.857014 192.660394,334.955452 C192.398413,335.217955 192.070937,335.447644 191.645217,335.447644 C191.350488,335.447644 191.121255,335.349206 190.924769,335.152329 C190.662788,335.546083 190.171573,335.874211 189.418377,335.874211 C188.566938,335.874211 187.027799,336.563279 185.848884,337.810165 C184.473482,339.286741 181.133222,341.321134 176.876028,343.322715 C174.354459,344.503975 172.880815,345.422733 172.618834,345.685236 C172.618834,345.718049 172.586086,345.718049 172.586086,345.750861 C172.487843,345.8493 172.291357,346.013364 171.505414,346.636807 C171.27618,346.833684 170.981451,347.063373 170.71947,347.293063 C170.71947,347.293063 170.71947,347.293063 170.686722,347.293063 C168.689116,348.868077 167.772182,349.885273 165.905566,352.575922 C164.562912,354.479064 164.562912,354.479064 164.628408,356.415019 C164.661155,357.629092 164.824893,358.941604 164.955884,359.36817 C165.414351,360.811933 164.759398,364.519779 164.530165,365.340099 C164.530165,365.372911 164.530165,365.47135 164.530165,365.504163 C164.431922,366.947926 163.61323,367.177615 163.122016,367.177615 C162.630801,367.177615 162.106839,366.947926 161.320895,366.390108 C159.912746,365.372911 159.58527,365.274473 158.537345,365.274473 C157.063701,365.274473 156.179514,364.979158 154.70587,363.994774 C153.821684,363.404144 152.577273,362.780701 151.92232,362.583824 C151.136376,362.321322 150.121199,361.796317 149.69548,361.271312 C149.498994,361.00881 149.13877,360.582244 148.909536,360.352554 C148.320079,359.761924 147.370397,356.972837 147.566883,356.119704 C147.566883,356.119704 147.566883,356.086891 147.566883,356.086891 C147.534135,355.857202 147.46864,355.529074 147.403145,355.004069 L147.403145,354.971256 C147.370397,354.741567 147.337649,354.675941 147.304902,354.610315 C147.108416,354.216562 146.977425,353.822808 146.846435,352.247794 C146.715444,350.804031 146.289725,350.180588 145.569276,349.163392 C145.2418,348.736825 144.914323,348.244634 144.521352,347.621191 C142.261764,343.847719 140.689877,339.024239 140.395148,337.646102 C140.395148,337.646102 140.395148,337.646102 140.395148,337.613289 C140.100419,336.071087 138.594027,333.544502 137.02214,332.428867 C136.203449,331.87105 136.268944,331.116356 136.268944,330.821041 C136.268944,330.656977 136.268944,330.656977 136.268944,330.624164 C135.941468,329.967908 134.697057,329.213214 133.943861,329.081963 C133.943861,329.081963 133.943861,329.081963 133.911114,329.081963 C133.354404,328.983524 131.913507,328.688209 130.832835,328.45852 C130.177882,328.327268 129.555676,328.22883 128.998966,328.22883 C128.213023,328.22883 126.837622,328.392894 126.313659,329.377278 C126.01893,329.967908 125.560463,330.263223 125.232987,330.4601 C125.036501,330.821041 124.610781,331.378858 123.562857,332.494493 C123.300876,332.756995 123.23538,332.953872 123.137137,333.150749 C122.875156,333.642941 122.54768,334.200758 121.499755,334.200758 L121.467007,334.200758 C119.502148,334.167945 118.912691,333.708566 116.456617,331.510109 C113.280095,328.655396 111.609965,326.063186 111.478975,323.733477 C111.446227,323.044409 110.824022,319.500627 110.529293,318.745933 C110.365554,318.352179 109.121144,317.236544 108.629929,316.842791 C108.269705,316.514663 108.073219,316.350599 107.942229,316.219348 C107.942229,316.219348 107.909481,316.186535 107.909481,316.186535 C107.811238,316.055284 107.483761,315.694343 107.582004,315.169338 C107.385519,314.939649 106.992547,314.513083 106.272098,313.758388 C105.42066,312.905256 105.027688,312.052123 104.732959,311.395867 C104.503725,310.936488 103.848773,310.345858 103.652287,310.214607 C103.030081,309.886479 102.833595,309.164597 102.669857,308.37709 C102.604362,308.180214 102.571614,307.950524 102.538867,307.819273 C102.375128,307.327081 102.014904,306.703638 101.687428,306.408323 C101.687428,306.408323 101.687428,306.408323 101.65468,306.37551 C101.523689,306.244259 101.392699,306.113008 101.196213,305.981756 C100.966979,305.78488 100.737746,305.588003 100.54126,305.325501 C100.312026,305.489564 100.082793,305.522377 99.8535594,305.522377 C99.5915782,305.522377 99.3950923,305.456752 99.1658588,305.358313 C98.8056347,305.227062 98.2816723,305.062998 97.2992429,305.030185 C96.4150564,304.997373 95.5636175,304.800496 94.8104216,304.636432 C94.2537116,304.505181 93.7624969,304.406742 93.3040298,304.37393 C92.0596192,304.275491 90.4222367,303.980176 89.9637697,303.848925 C89.9637697,303.848925 89.9637697,303.848925 89.931022,303.848925 C89.4398073,303.717674 88.9813402,303.520797 88.6538637,303.389546 C88.5556208,303.356733 88.4573779,303.291107 88.3263873,303.258295 C88.260892,303.520797 88.1953967,303.848925 88.1299014,304.209866 C87.9334155,305.358313 87.6386866,307.294268 85.7720707,307.294268 C84.4949124,307.294268 82.1043341,306.933327 81.1874,305.620816 C81.0564094,305.423939 80.9581664,305.227062 80.8926711,305.030185 C80.4014564,305.489564 79.7792511,305.686441 78.9605599,305.686441 C78.2401116,305.686441 77.3886728,305.522377 76.1115145,305.259875 C74.5396274,304.898934 72.5747685,304.406742 71.5595914,304.14424 C71.1011243,304.012989 70.5771619,303.750486 70.0859472,303.520797 C69.6929754,303.32392 69.0707701,303.028605 68.8742842,303.028605 C67.597126,303.028605 66.8439301,302.405162 65.4685288,301.223901 C65.2720429,301.059837 65.0755571,300.895773 64.8790712,300.73171 C63.7001558,299.780139 62.4557452,298.730129 62.0627734,298.369188 C61.8007922,298.139499 60.3598957,297.056677 58.5587751,295.875416 L57.8383268,295.383224 C52.6314507,291.872255 46.9661076,288.000346 45.5252111,286.720647 C45.2304822,286.458145 45.066744,286.130017 45.066744,285.769076 C45.066744,285.440948 45.164987,285.178446 45.3287252,284.915943 C45.1322393,284.883131 44.9357534,284.817505 44.7392675,284.784692 C43.2656234,284.456564 42.4469322,284.2925 42.1522033,283.570619 C42.0212127,283.242491 42.0212127,282.88155 42.2176986,282.553422 C42.6106704,281.897166 45.1322393,280.87997 45.3614728,280.814344 C45.6889493,280.683093 46.3439023,280.420591 46.5403882,280.256527 C46.5403882,280.190901 46.5403882,280.125276 46.5403882,279.928399 C46.5403882,279.501833 46.3766499,279.173705 46.2129117,279.009641 C45.5907064,278.451823 45.2959775,277.894006 45.2632299,277.23775 C45.2304822,276.220553 45.9509305,275.334608 46.6713788,274.612726 C47.2608364,274.022096 47.9812847,273.0049 48.3087612,272.381456 C48.6689853,271.725201 49.3566859,270.642378 50.3391154,270.576753 C50.470106,270.511127 50.8303301,270.281438 51.2233019,269.920497 L51.6490213,269.493931 L51.2233019,268.673611 C50.470106,267.262661 50.3391154,266.245464 50.3391154,263.915756 C50.3391154,263.161062 50.371863,262.406367 50.4046107,261.815737 C50.4046107,261.651673 50.4373583,261.487609 50.4373583,261.290732 L50.4046107,261.290732 C49.6186671,261.290732 49.0947047,260.601664 48.3415088,259.125088 C48.0795276,258.632896 47.7193035,257.97664 47.3263317,257.221946 C46.8023694,256.20475 46.2129117,255.089115 45.721697,254.137544 C45.3287252,253.382849 43.2656234,249.51094 41.7592315,246.590601 C40.4493256,244.064016 39.2704103,241.963997 39.1721673,241.767121 C39.106672,241.668682 38.9756814,241.471806 36.8143367,237.403019 C35.7336643,235.270188 34.3255154,232.677977 33.801553,231.693593 C33.801553,231.693593 33.801553,231.693593 33.801553,231.660781 C33.5723195,231.267027 33.2775907,230.676397 32.9173665,230.052954 C32.3934042,229.101383 31.8039465,227.985748 31.3127318,227.06699 C31.0180029,226.509172 30.6577788,225.820103 30.2975547,225.131035 C29.6753494,223.916961 28.9876488,222.670075 28.5619293,221.816943 C28.4309387,221.587253 28.3326958,221.390376 28.2344528,221.1935 C26.2368463,217.518467 26.3678369,217.124713 30.0355735,206.755871 L30.7232741,204.819916 C31.7711988,201.833952 32.8191236,198.913613 33.6705624,196.583905 C35.013216,192.941685 35.111459,192.843247 35.3079448,192.64637 C35.5371784,192.41668 35.8319072,192.318242 36.224879,192.318242 C37.1090655,192.318242 39.2704103,192.974498 48.6689853,196.485467 C49.815153,196.912033 51.3870401,197.46985 53.0244225,198.027668 C52.8606843,197.174535 53.2536561,196.091713 54.0395996,193.926069 C54.2033379,193.499502 54.3670761,193.007311 54.563562,192.482306 C55.3822532,190.251036 56.1027014,187.724451 56.233692,186.936944 C56.4301779,185.558807 56.8231497,184.672861 57.7073362,183.72129 C57.7073362,183.72129 57.7073362,183.72129 57.7400839,183.688477 C58.100308,183.294724 58.2640462,183.097847 58.3295415,182.966596 C58.3950368,182.736906 58.3295415,182.244714 58.2640462,181.522833 C58.2312986,181.227518 58.1658033,180.800952 58.1330556,180.407198 C58.100308,180.013445 58.0348127,179.652504 58.0348127,179.455627 C57.9038221,178.07749 58.7225133,177.454047 59.6721951,176.961855 C59.6721951,176.961855 59.6721951,176.961855 59.6721951,176.961855 C60.5891292,176.502476 61.8007922,175.189964 61.9972781,174.763398 C62.0627734,174.238393 62.6194834,173.483699 63.6019129,172.532128 L64.518847,171.61337 L64.1258753,169.513351 C63.9293894,168.397716 63.7983988,167.413332 63.7329035,166.461761 C63.6674082,166.494574 63.6019129,166.494574 63.5364176,166.494574 C63.4381746,166.494574 63.307184,166.461761 63.2089411,166.428948 L58.3622892,164.657057 C53.7121231,162.983605 51.5180307,162.524226 47.0643505,162.196098 C43.5276045,161.966408 41.4972504,161.474217 38.648205,160.161705 C37.4037943,159.571075 35.4389354,158.914819 34.3255154,158.685129 C33.5068242,158.521065 31.8039465,158.061686 31.2472365,157.40543 C31.2472365,157.40543 31.2144888,157.372617 31.2144888,157.372617 C30.7232741,156.716362 30.5922835,155.239786 30.5922835,154.649156 L30.5922835,154.616343 C30.5922835,153.435082 30.5922835,153.369457 29.4461158,152.155383 C28.5619293,151.203812 27.939724,150.810059 26.9900422,150.580369 L25.4836504,150.186616 C24.9924357,150.055365 24.6649592,149.563173 24.7632021,149.038168 L25.0251833,147.791282 C25.3526598,146.281893 26.8590516,136.897435 27.284771,133.714594 C27.6449952,130.827068 28.2672005,130.400502 28.5291817,130.269251 C28.7584152,130.137999 29.0203964,130.072374 29.2823776,130.072374 C30.1338164,130.072374 31.0834982,130.663004 33.3103383,132.533333 C34.3582631,133.419279 37.0108226,134.666165 38.4844667,135.092731 C38.5172144,133.878658 39.4341485,130.991132 40.0891015,130.039561 C40.2855874,129.777059 40.5803162,129.612995 40.9405403,129.612995 C41.1042786,129.612995 41.3990074,129.612995 43.2656234,130.367689 C44.2153052,130.761442 50.7648348,133.288027 57.9365697,136.011489 C61.2440822,137.258375 64.4860994,138.472449 67.0076683,139.456833 C71.0028814,140.999034 71.0028814,140.999034 71.1993673,141.195911 C71.2648626,141.261536 71.3303579,141.359975 71.3958531,141.4256 C71.5268437,141.392787 71.6578343,141.359975 71.7888249,141.359975 C72.4437779,141.359975 73.9174221,141.819354 74.3431415,141.950605 C75.3255709,142.278733 76.0132715,142.541235 76.3734957,142.869363 C76.5044863,142.803737 76.6682245,142.770925 76.8319627,142.770925 C76.9302057,142.770925 77.0284486,142.803737 77.1266916,142.803737 L81.089157,144.083436 C84.724146,145.231884 100.115541,149.53036 102.309633,149.989739 C103.030081,150.12099 105.617146,150.810059 107.123537,151.236625 C110.365554,152.089758 131.553283,156.946051 135.843225,157.831997 C136.923897,158.061686 137.382364,158.192937 137.644345,158.291376 C137.873579,158.357001 138.626775,158.45544 139.740195,158.586691 C141.737801,158.81638 142.261764,158.849193 142.556493,159.242947 C142.687483,159.210134 142.818474,159.177321 142.982212,159.177321 C143.14595,159.177321 143.375184,159.144508 143.669913,159.144508 C145.078062,159.144508 147.632378,159.308572 148.811293,159.538262 C149.106022,159.603887 150.481424,159.735139 151.594844,159.86639 C152.020563,159.932015 152.47903,159.964828 152.937497,159.997641 C153.756188,160.063266 154.443889,160.161705 154.738618,160.194518 C154.967851,160.22733 155.491814,160.292956 156.048524,160.358582 C156.506991,160.424207 156.998206,160.45702 157.48942,160.522646 C158.570093,160.621084 159.978241,160.785148 160.633194,160.883586 C162.598053,161.146089 170.195508,162.032034 171.898385,162.196098 C172.81532,162.294536 174.05973,162.425788 174.681936,162.491413 C175.304141,162.557039 176.679542,162.721103 177.661972,162.852354 C179.102868,163.049231 179.725073,163.27892 180.05255,163.50861 C180.085297,163.475797 180.085297,163.442984 180.118045,163.442984 C180.314531,163.27892 180.543765,163.180482 180.805746,163.180482 L180.871241,163.180482 L183.130829,163.311733 C186.503837,163.50861 188.337705,163.607048 189.320134,163.607048 C189.876844,163.607048 190.07333,163.574235 190.138825,163.541423 C190.138825,163.541423 190.138825,163.541423 190.171573,163.50861 C190.171573,163.50861 190.171573,163.475797 190.204321,163.475797 C190.302564,163.377359 190.400807,163.147669 190.400807,163.049231 C190.400807,162.786728 190.400807,162.524226 190.49905,162.261724 C190.597293,161.999221 190.728283,161.802345 190.924769,161.671093 C191.121255,161.539842 191.350488,161.441404 191.61247,161.441404 C191.972694,161.441404 192.30017,161.572655 192.824133,161.86797 C193.741067,162.360162 194.035796,163.574235 194.199534,164.821121 C194.428767,166.691451 194.756244,166.953953 196.000654,167.183643 C196.590112,167.282081 197.703532,167.577396 198.260242,168.069588 C198.358485,168.102401 198.947943,168.364903 201.207531,168.397716 C204.220314,168.463341 204.678781,168.528967 206.054182,169.808666 C206.578145,170.268045 207.036612,170.56336 207.233098,170.628986 C207.75706,170.694611 208.575751,171.088365 209.623676,171.810246 C210.638853,172.499315 210.868087,172.597753 212.145245,172.597753 C212.308983,172.597753 212.472722,172.597753 212.63646,172.597753 C212.76745,172.597753 212.931189,172.597753 213.094927,172.597753 C215.289019,172.597753 219.153242,173.02432 220.364905,173.516512 C220.364905,173.516512 220.364905,173.516512 220.397652,173.516512 C220.659634,173.61495 221.216344,173.877452 221.314587,174.500895 C221.445577,175.157151 220.98711,175.583718 220.397652,176.141535 C219.840942,176.66654 218.891261,177.191544 218.170812,177.191544 C217.188383,177.191544 215.485505,178.208741 214.8633,179.127499 C214.43758,179.849381 213.586142,180.768139 212.832946,181.194705 C212.570964,181.358769 212.374479,181.522833 212.276236,181.588459 C212.07975,182.015025 211.621283,182.343153 211.064573,182.408778 C210.999077,182.441591 210.900834,182.572842 210.802591,182.704094 C210.376872,183.393162 209.165209,184.410359 208.575751,184.869738 C208.543004,184.902551 208.510256,184.935363 208.444761,184.968176 C210.049396,184.574423 213.160422,183.557226 213.74988,183.229098 C214.011861,182.999409 214.372085,182.704094 214.8633,182.704094 C215.190776,182.704094 215.485505,182.835345 215.714739,183.097847 C216.10771,183.524413 216.10771,184.147856 216.042215,184.607236 C216.042215,184.640048 216.042215,184.672861 216.042215,184.672861 C216.074963,184.672861 216.10771,184.705674 216.140458,184.705674 C216.140458,184.705674 216.173206,184.705674 216.173206,184.705674 C216.729916,184.902551 217.286626,185.263491 217.777841,185.722871 C217.843336,185.36193 218.105317,185.033802 218.531036,184.607236 C218.989504,184.147856 219.808195,183.655665 220.528643,183.655665 C221.445577,183.655665 224.098137,182.704094 225.113314,181.916587 C226.881687,180.571262 230.221947,178.274367 231.597348,178.274367 C231.859329,178.274367 232.055815,178.339992 232.252301,178.43843 C232.579778,178.635307 232.776263,178.963435 232.776263,179.324376 C232.809011,179.947819 232.317796,180.440011 231.892077,180.735326 C231.43361,181.063454 231.040638,181.752523 230.909647,182.113463 C231.073386,182.179089 231.466357,182.244714 232.219553,182.277527 C233.23473,182.31034 234.904861,183.754103 235.232337,184.049418 C236.182019,184.902551 236.509495,185.13224 237.131701,185.13224 C237.884897,185.13224 239.162055,184.804112 241.028671,184.279108 C243.157268,183.688477 245.154874,183.393162 246.825004,183.393162 C248.920854,183.393162 250.23076,183.852541 250.820218,184.7713 C250.918461,184.7713 251.016703,184.738487 251.114946,184.738487 C251.114946,184.738487 251.114946,184.738487 251.114946,184.738487 C252.523095,184.738487 255.437636,186.280688 256.190832,187.691638 C256.649299,188.577583 256.944028,189.299465 256.649299,189.988534 C256.387318,190.644789 255.732365,190.841666 255.470384,190.907292 C254.946421,191.071356 254.487954,191.202607 253.996739,191.301045 C254.225973,191.465109 254.487954,191.694799 254.782683,191.990114 C255.503131,192.679183 256.518308,193.269813 256.976775,193.368251 C256.976775,193.368251 257.009523,193.368251 257.009523,193.368251 C260.087802,194.221384 260.873746,196.255777 261.201222,199.307367 C261.528699,202.457395 261.495951,203.34334 260.513521,204.75429 C259.989559,205.508985 259.825821,205.935551 259.760326,206.591807 C259.727578,207.182437 259.301858,207.576191 258.745148,207.707442 C258.745148,207.773067 258.745148,207.838693 258.745148,207.904318 C258.745148,208.134008 258.810644,208.363698 258.843391,208.494949 C259.301858,208.134008 260.153297,207.313688 260.906493,206.591807 L262.609371,204.951167 C262.805857,204.787103 263.03509,204.688665 263.297072,204.688665 L263.329819,204.688665 C263.5918,204.688665 263.853782,204.819916 264.01752,205.016793 L265.13094,206.230866 C266.342603,207.543378 267.161294,209.44652 267.48877,211.710602 C267.48877,211.710602 267.48877,211.743415 267.48877,211.743415 C267.554266,212.169982 267.718004,212.891863 267.848995,213.384055 C268.405705,215.155946 267.456023,217.715344 265.491164,219.618486 C264.836211,220.274741 264.410492,220.832559 264.279501,221.029436 C264.181258,221.685691 263.690043,222.506011 263.624548,222.60445 C263.624548,222.60445 263.624548,222.637262 263.5918,222.637262 C263.46081,222.834139 263.231576,223.621646 263.198829,224.409153 L263.166081,225.852916 C263.428062,225.918542 263.984772,226.115419 265.491164,226.804487 C266.539089,227.296679 267.521518,227.559181 268.274714,227.559181 C268.700433,227.559181 268.995162,227.460743 269.191648,227.329492 C269.191648,227.329492 269.224396,227.296679 269.224396,227.296679 C269.682863,226.935738 270.763535,226.443546 271.516731,226.148231 C272.237179,225.885729 273.055871,225.42635 273.3506,225.19666 C274.59501,224.081025 278.000766,221.423189 279.277924,221.423189 C279.277924,221.423189 279.277924,221.423189 279.277924,221.423189 C279.408914,221.423189 279.539905,221.456002 279.670896,221.488815 C279.867381,221.062248 280.194858,220.734121 280.686073,220.37318 C281.14454,220.077865 281.897736,219.585673 282.25796,219.32317 C282.650932,219.027855 282.978408,218.798166 283.436875,218.798166 C283.666109,218.798166 283.829847,218.830979 283.993585,218.929417 C284.386557,217.945033 285.499977,216.599709 287.759565,214.171562 C288.119789,213.777808 288.349022,213.482493 288.512761,213.285617 C288.38177,212.990301 288.152536,212.465297 287.890555,211.907479 C287.170107,210.463716 286.71164,209.544958 287.170107,208.823077 C287.432088,208.39651 287.857808,208.199634 288.480013,208.199634 C288.578256,208.199634 288.872985,208.101195 289.036723,207.937131 C289.036723,207.937131 289.036723,207.937131 289.036723,207.937131 C289.626181,207.477752 290.575862,207.280875 294.800309,207.248063 C299.745204,207.182437 299.974437,207.083999 301.284343,205.968364 C302.659745,204.787103 302.954473,203.802719 302.496006,201.899577 L302.037539,199.996435 C301.972044,199.70112 302.037539,199.372992 302.234025,199.11049 L304.133389,196.87922 C305.148566,195.69796 306.327481,194.221384 306.687705,193.696379 C307.17892,193.007311 308.390583,191.858863 309.307517,191.071356 C309.307517,191.071356 309.307517,191.071356 309.340265,191.071356 L311.07589,189.693218 C311.239628,189.561967 311.468862,189.463529 311.698096,189.463529 L311.730843,189.463529 L314.448898,189.529154 C314.710879,189.529154 314.940113,189.529154 315.202094,189.529154 C316.512,189.529154 317.363439,189.463529 317.559925,189.397903 C317.821906,189.299465 318.051139,189.266652 318.247625,189.266652 C318.542354,189.266652 318.804335,189.332278 319.000821,189.463529 C319.131812,189.201027 319.361045,189.00415 319.655774,188.938524 L322.734053,188.249456 C324.436931,187.855702 326.53278,187.461949 327.384219,187.330697 C327.384219,187.330697 327.384219,187.330697 327.416967,187.330697 L328.923358,187.133821 C328.956106,187.133821 328.988854,187.133821 329.054349,187.133821 C329.087097,186.576003 329.31633,186.149437 329.676554,185.591619 C329.676554,185.591619 329.676554,185.591619 329.676554,185.558807 C330.135021,184.902551 330.691731,184.213482 331.477675,184.213482 C331.575918,184.213482 331.674161,184.213482 331.772404,184.246295 C331.837899,183.852541 332.034385,183.524413 332.329114,183.294724 C332.722086,182.736906 333.704515,179.947819 333.868253,178.536869 C333.933749,177.618111 334.19573,176.043097 334.32672,175.189964 C334.490459,174.271206 334.686945,172.630566 334.850683,171.514931 C334.948926,170.300858 335.505636,168.168026 335.931355,166.724263 L336.782794,164.066427 C336.913785,163.705486 337.241261,163.442984 337.601485,163.377359 L339.828325,163.147669 C341.007241,163.016418 341.825932,162.819541 342.055165,162.753915 C342.480885,162.491413 343.10309,162.392975 343.52881,162.392975 C343.594305,162.392975 343.692548,162.392975 343.758043,162.392975 C343.889034,162.392975 344.052772,162.425788 344.21651,162.425788 C344.511239,162.4586 344.805968,162.4586 345.002454,162.491413 C345.690154,162.589852 346.803574,163.475797 347.131051,163.738299 C348.244471,164.68987 348.571947,165.378939 348.571947,166.724263 C348.5392,169.841479 350.962526,175.058713 351.846712,175.452466 C352.468918,175.714969 353.156618,176.239973 353.254861,176.896229 C353.320356,177.060293 353.615085,177.486859 354.008057,177.979051 C354.008057,177.979051 354.008057,177.979051 354.008057,177.979051 C354.564767,178.66812 355.055982,178.963435 356.103906,179.225938 C357.315569,179.521253 358.494485,179.915006 358.920204,180.866577 C359.509662,181.325956 359.444167,181.916587 359.11669,182.605655 Z" id="Path" fill="#FFFFFF" fill-rule="nonzero" mask="url(#mask-2)"></path>
            </g>
        </g>
    </g>
</svg>